solid focus_adapter_ring_v1
facet normal 0.9910799233909781 -0.13326884651460538 0.0
outer loop
vertex 158.47310769916456 158.95319478030027 0.0
vertex 158.30545473443857 156.59530483177394 10.0
vertex 158.30545473443857 156.59530483177394 0.0
endloop
endfacet
facet normal 0.9974817288128104 -0.07092390770824049 0.0
outer loop
vertex 158.30545473443857 156.59530483177394 10.0
vertex 158.47310769916456 158.95319478030027 0.0
vertex 158.47310769916456 158.95319478030027 10.0
endloop
endfacet
facet normal 0.0 0.0 -1.0
outer loop
vertex 201.94948602592768 115.47681645353869 0.0
vertex 199.5915960773999 111.94530483177448 0.0
vertex 199.5915960773999 115.30916348881257 0.0
endloop
endfacet
facet normal 0.0 0.0 -1.0
outer loop
vertex 151.2851324542047 159.89950967389635 0.0
vertex 151.28513245420467 147.89109998965156 0.0
vertex 150.89159607739998 153.89530483177393 0.0
endloop
endfacet
facet normal 0.0 0.0 -1.0
outer loop
vertex 151.28513245420467 147.89109998965156 0.0
vertex 151.2851324542047 159.89950967389635 0.0
vertex 152.45900806810283 141.98962875705797 0.0
endloop
endfacet
facet normal 0.0 0.0 -1.0
outer loop
vertex 152.45900806810283 141.98962875705797 0.0
vertex 151.2851324542047 159.89950967389635 0.0
vertex 152.45900806810283 165.80098090648994 0.0
endloop
endfacet
facet normal 0.0 0.0 -1.0
outer loop
vertex 152.45900806810283 141.98962875705797 0.0
vertex 152.45900806810283 165.80098090648994 0.0
vertex 154.39313758188078 136.29186694297982 0.0
endloop
endfacet
facet normal 0.0 0.0 -1.0
outer loop
vertex 154.39313758188078 136.29186694297982 0.0
vertex 152.45900806810283 165.80098090648994 0.0
vertex 154.39313758188078 171.49874272056812 0.0
endloop
endfacet
facet normal 0.0 0.0 -1.0
outer loop
vertex 154.39313758188078 136.29186694297982 0.0
vertex 154.39313758188078 171.49874272056812 0.0
vertex 154.94159607740048 156.59530483177394 0.0
endloop
endfacet
facet normal 0.0 0.0 -1.0
outer loop
vertex 154.94159607740048 156.59530483177394 0.0
vertex 154.39313758188078 171.49874272056812 0.0
vertex 157.05442750331582 176.89530483177396 0.0
endloop
endfacet
facet normal 0.0 0.0 -1.0
outer loop
vertex 154.94159607740048 156.59530483177394 0.0
vertex 157.05442750331582 176.89530483177396 0.0
vertex 158.30545473443857 156.59530483177394 0.0
endloop
endfacet
facet normal 0.0 0.0 -1.0
outer loop
vertex 158.30545473443857 156.59530483177394 0.0
vertex 157.05442750331582 176.89530483177396 0.0
vertex 158.47310769916456 158.95319478030027 0.0
endloop
endfacet
facet normal 0.0 0.0 -1.0
outer loop
vertex 158.47310769916456 158.95319478030027 0.0
vertex 157.05442750331582 176.89530483177396 0.0
vertex 160.39734242400317 181.8983305661751 0.0
endloop
endfacet
facet normal 0.0 0.0 -1.0
outer loop
vertex 158.47310769916456 158.95319478030027 0.0
vertex 160.39734242400317 181.8983305661751 0.0
vertex 159.46197030869823 163.92454282949603 0.0
endloop
endfacet
facet normal 0.0 0.0 -1.0
outer loop
vertex 159.46197030869823 163.92454282949603 0.0
vertex 160.39734242400317 181.8983305661751 0.0
vertex 161.09126419258718 168.72428783592062 0.0
endloop
endfacet
facet normal 0.0 0.0 -1.0
outer loop
vertex 161.09126419258718 168.72428783592062 0.0
vertex 160.39734242400317 181.8983305661751 0.0
vertex 164.3646841428188 186.42221676635515 0.0
endloop
endfacet
facet normal 0.0 0.0 -1.0
outer loop
vertex 161.09126419258718 168.72428783592062 0.0
vertex 164.3646841428188 186.42221676635515 0.0
vertex 163.3331116807525 173.27030483177344 0.0
endloop
endfacet
facet normal 0.0 0.0 -1.0
outer loop
vertex 163.3331116807525 173.27030483177344 0.0
vertex 164.3646841428188 186.42221676635515 0.0
vertex 166.14915414111402 177.48481020586144 0.0
endloop
endfacet
facet normal 0.0 0.0 -1.0
outer loop
vertex 166.14915414111402 177.48481020586144 0.0
vertex 164.3646841428188 186.42221676635515 0.0
vertex 168.88857034299886 190.38955848517077 0.0
endloop
endfacet
facet normal 0.0 0.0 -1.0
outer loop
vertex 166.14915414111402 177.48481020586144 0.0
vertex 168.88857034299886 190.38955848517077 0.0
vertex 168.61483135449242 180.29637621410208 0.0
endloop
endfacet
facet normal 0.0 0.0 -1.0
outer loop
vertex 168.61483135449242 180.29637621410208 0.0
vertex 168.88857034299886 190.38955848517077 0.0
vertex 169.49120830642065 181.2956926027523 0.0
endloop
endfacet
facet normal 0.0 0.0 -1.0
outer loop
vertex 169.49120830642065 181.2956926027523 0.0
vertex 168.88857034299886 190.38955848517077 0.0
vertex 173.8915960774 193.73247340585814 0.0
endloop
endfacet
facet normal 0.0 0.0 -1.0
outer loop
vertex 169.49120830642065 181.2956926027523 0.0
vertex 173.8915960774 193.73247340585814 0.0
vertex 170.49052469507183 182.1720695546814 0.0
endloop
endfacet
facet normal 0.0 0.0 -1.0
outer loop
vertex 170.49052469507183 182.1720695546814 0.0
vertex 173.8915960774 193.73247340585814 0.0
vertex 173.3020907033114 184.63774676805903 0.0
endloop
endfacet
facet normal 0.0 0.0 -1.0
outer loop
vertex 173.3020907033114 184.63774676805903 0.0
vertex 173.8915960774 193.73247340585814 0.0
vertex 177.5165960773993 187.45378922842076 0.0
endloop
endfacet
facet normal 0.0 0.0 -1.0
outer loop
vertex 177.5165960773993 187.45378922842076 0.0
vertex 173.8915960774 193.73247340585814 0.0
vertex 179.28815818860588 196.39376332729316 0.0
endloop
endfacet
facet normal 0.0 0.0 -1.0
outer loop
vertex 177.5165960773993 187.45378922842076 0.0
vertex 179.28815818860588 196.39376332729316 0.0
vertex 182.06261307325204 189.6956367165862 0.0
endloop
endfacet
facet normal 0.0 0.0 -1.0
outer loop
vertex 182.06261307325204 189.6956367165862 0.0
vertex 179.28815818860588 196.39376332729316 0.0
vertex 184.98592000268405 198.3278928410711 0.0
endloop
endfacet
facet normal 0.0 0.0 -1.0
outer loop
vertex 182.06261307325204 189.6956367165862 0.0
vertex 184.98592000268405 198.3278928410711 0.0
vertex 186.86235807967657 191.3249306004753 0.0
endloop
endfacet
facet normal 0.0 0.0 -1.0
outer loop
vertex 186.86235807967657 191.3249306004753 0.0
vertex 184.98592000268405 198.3278928410711 0.0
vertex 190.88739123527762 199.50176845496924 0.0
endloop
endfacet
facet normal 0.0 0.0 -1.0
outer loop
vertex 186.86235807967657 191.3249306004753 0.0
vertex 190.88739123527762 199.50176845496924 0.0
vertex 191.83370612887225 192.31379321000918 0.0
endloop
endfacet
facet normal 0.0 0.0 -1.0
outer loop
vertex 191.83370612887225 192.31379321000918 0.0
vertex 190.88739123527762 199.50176845496924 0.0
vertex 196.89159607739998 199.89530483177396 0.0
endloop
endfacet
facet normal 0.0 0.0 -1.0
outer loop
vertex 191.83370612887225 192.31379321000918 0.0
vertex 196.89159607739998 199.89530483177396 0.0
vertex 194.19159607739996 195.84530483177343 0.0
endloop
endfacet
facet normal 0.0 0.0 -1.0
outer loop
vertex 194.19159607739996 195.84530483177343 0.0
vertex 196.89159607739998 199.89530483177396 0.0
vertex 199.59159607739994 195.84530483177343 0.0
endloop
endfacet
facet normal 0.0 0.0 -1.0
outer loop
vertex 199.59159607739994 195.84530483177343 0.0
vertex 196.89159607739998 199.89530483177396 0.0
vertex 202.89580091952237 199.5017684549692 0.0
endloop
endfacet
facet normal 0.0 0.0 -1.0
outer loop
vertex 199.59159607739994 195.84530483177343 0.0
vertex 202.89580091952237 199.5017684549692 0.0
vertex 199.59159607739994 192.4814461747353 0.0
endloop
endfacet
facet normal 0.0 0.0 -1.0
outer loop
vertex 199.59159607739994 192.4814461747353 0.0
vertex 202.89580091952237 199.5017684549692 0.0
vertex 201.9494860259263 192.31379321000938 0.0
endloop
endfacet
facet normal 0.0 0.0 -1.0
outer loop
vertex 201.9494860259263 192.31379321000938 0.0
vertex 202.89580091952237 199.5017684549692 0.0
vertex 206.92083407512203 191.32493060047568 0.0
endloop
endfacet
facet normal 0.0 0.0 -1.0
outer loop
vertex 206.92083407512203 191.32493060047568 0.0
vertex 202.89580091952237 199.5017684549692 0.0
vertex 208.79727215211597 198.32789284107108 0.0
endloop
endfacet
facet normal 0.0 0.0 -1.0
outer loop
vertex 206.92083407512203 191.32493060047568 0.0
vertex 208.79727215211597 198.32789284107108 0.0
vertex 211.72057908154665 189.69563671658673 0.0
endloop
endfacet
facet normal 0.0 0.0 -1.0
outer loop
vertex 211.72057908154665 189.69563671658673 0.0
vertex 208.79727215211597 198.32789284107108 0.0
vertex 214.49503396619414 196.39376332729313 0.0
endloop
endfacet
facet normal 0.0 0.0 -1.0
outer loop
vertex 211.72057908154665 189.69563671658673 0.0
vertex 214.49503396619414 196.39376332729313 0.0
vertex 216.2665960773995 187.4537892284214 0.0
endloop
endfacet
facet normal 0.0 0.0 -1.0
outer loop
vertex 216.2665960773995 187.4537892284214 0.0
vertex 214.49503396619414 196.39376332729313 0.0
vertex 219.89159607739998 193.73247340585812 0.0
endloop
endfacet
facet normal 0.0 0.0 -1.0
outer loop
vertex 216.2665960773995 187.4537892284214 0.0
vertex 219.89159607739998 193.73247340585812 0.0
vertex 220.48110145148743 184.63774676805988 0.0
endloop
endfacet
facet normal 0.0 0.0 -1.0
outer loop
vertex 220.48110145148743 184.63774676805988 0.0
vertex 219.89159607739998 193.73247340585812 0.0
vertex 224.89462181180116 190.38955848517077 0.0
endloop
endfacet
facet normal 0.0 0.0 -1.0
outer loop
vertex 220.48110145148743 184.63774676805988 0.0
vertex 224.89462181180116 190.38955848517077 0.0
vertex 224.29198384837835 181.29569260275326 0.0
endloop
endfacet
facet normal 0.0 0.0 -1.0
outer loop
vertex 224.29198384837835 181.29569260275326 0.0
vertex 224.89462181180116 190.38955848517077 0.0
vertex 227.63403801368506 177.48481020586252 0.0
endloop
endfacet
facet normal 0.0 0.0 -1.0
outer loop
vertex 227.63403801368506 177.48481020586252 0.0
vertex 224.89462181180116 190.38955848517077 0.0
vertex 229.4185080119812 186.42221676635512 0.0
endloop
endfacet
facet normal 0.0 0.0 -1.0
outer loop
vertex 227.63403801368506 177.48481020586252 0.0
vertex 229.4185080119812 186.42221676635512 0.0
vertex 230.45008047404679 173.27030483177464 0.0
endloop
endfacet
facet normal 0.0 0.0 -1.0
outer loop
vertex 230.45008047404679 173.27030483177464 0.0
vertex 229.4185080119812 186.42221676635512 0.0
vertex 233.3858497307968 181.89833056617508 0.0
endloop
endfacet
facet normal 0.0 0.0 -1.0
outer loop
vertex 230.45008047404679 173.27030483177464 0.0
vertex 233.3858497307968 181.89833056617508 0.0
vertex 232.69192796221225 168.72428783592187 0.0
endloop
endfacet
facet normal 0.0 0.0 -1.0
outer loop
vertex 232.69192796221225 168.72428783592187 0.0
vertex 233.3858497307968 181.89833056617508 0.0
vertex 234.32122184610137 163.92454282949734 0.0
endloop
endfacet
facet normal 0.0 0.0 -1.0
outer loop
vertex 234.32122184610137 163.92454282949734 0.0
vertex 233.3858497307968 181.89833056617508 0.0
vertex 236.72876465148414 176.89530483177393 0.0
endloop
endfacet
facet normal 0.0 0.0 -1.0
outer loop
vertex 234.32122184610137 163.92454282949734 0.0
vertex 236.72876465148414 176.89530483177393 0.0
vertex 235.31008445563523 158.95319478030166 0.0
endloop
endfacet
facet normal 0.0 0.0 -1.0
outer loop
vertex 235.31008445563523 158.95319478030166 0.0
vertex 236.72876465148414 176.89530483177393 0.0
vertex 235.47773742036136 156.59530483177392 0.0
endloop
endfacet
facet normal 0.0 0.0 -1.0
outer loop
vertex 235.47773742036136 156.59530483177392 0.0
vertex 236.72876465148414 176.89530483177393 0.0
vertex 238.84159607739954 156.59530483177392 0.0
endloop
endfacet
facet normal 0.0 0.0 -1.0
outer loop
vertex 238.84159607739954 156.59530483177392 0.0
vertex 236.72876465148414 176.89530483177393 0.0
vertex 239.39005457291915 171.49874272056803 0.0
endloop
endfacet
facet normal 0.0 0.0 -1.0
outer loop
vertex 238.84159607739954 156.59530483177392 0.0
vertex 239.39005457291915 171.49874272056803 0.0
vertex 238.84159607739954 151.1953048317739 0.0
endloop
endfacet
facet normal 0.0 0.0 -1.0
outer loop
vertex 154.39313758188078 136.29186694297982 0.0
vertex 154.94159607740048 151.19530483177397 0.0
vertex 157.0544275033158 130.89530483177393 0.0
endloop
endfacet
facet normal 0.0 0.0 -1.0
outer loop
vertex 154.94159607740048 151.19530483177397 0.0
vertex 154.39313758188078 136.29186694297982 0.0
vertex 154.94159607740048 156.59530483177394 0.0
endloop
endfacet
facet normal 0.0 0.0 -1.0
outer loop
vertex 157.0544275033158 130.89530483177393 0.0
vertex 154.94159607740048 151.19530483177397 0.0
vertex 158.30545473443857 151.19530483177397 0.0
endloop
endfacet
facet normal 0.0 0.0 -1.0
outer loop
vertex 157.0544275033158 130.89530483177393 0.0
vertex 158.30545473443857 151.19530483177397 0.0
vertex 158.47310769916473 148.83741488324623 0.0
endloop
endfacet
facet normal 0.0 0.0 -1.0
outer loop
vertex 157.0544275033158 130.89530483177393 0.0
vertex 158.47310769916473 148.83741488324623 0.0
vertex 160.39734242400317 125.89227909737279 0.0
endloop
endfacet
facet normal 0.0 0.0 -1.0
outer loop
vertex 160.39734242400317 125.89227909737279 0.0
vertex 158.47310769916473 148.83741488324623 0.0
vertex 159.4619703086986 143.8660668340505 0.0
endloop
endfacet
facet normal 0.0 0.0 -1.0
outer loop
vertex 160.39734242400317 125.89227909737279 0.0
vertex 159.4619703086986 143.8660668340505 0.0
vertex 161.09126419258772 139.06632182762598 0.0
endloop
endfacet
facet normal 0.0 0.0 -1.0
outer loop
vertex 160.39734242400317 125.89227909737279 0.0
vertex 161.09126419258772 139.06632182762598 0.0
vertex 164.3646841428188 121.36839289719276 0.0
endloop
endfacet
facet normal 0.0 0.0 -1.0
outer loop
vertex 164.3646841428188 121.36839289719276 0.0
vertex 161.09126419258772 139.06632182762598 0.0
vertex 163.33311168075318 134.52030483177325 0.0
endloop
endfacet
facet normal 0.0 0.0 -1.0
outer loop
vertex 164.3646841428188 121.36839289719276 0.0
vertex 163.33311168075318 134.52030483177325 0.0
vertex 166.1491541411149 130.30579945768534 0.0
endloop
endfacet
facet normal 0.0 0.0 -1.0
outer loop
vertex 164.3646841428188 121.36839289719276 0.0
vertex 166.1491541411149 130.30579945768534 0.0
vertex 168.88857034299883 117.40105117837712 0.0
endloop
endfacet
facet normal 0.0 0.0 -1.0
outer loop
vertex 168.88857034299883 117.40105117837712 0.0
vertex 166.1491541411149 130.30579945768534 0.0
vertex 169.49120830642164 126.49491706079458 0.0
endloop
endfacet
facet normal 0.0 0.0 -1.0
outer loop
vertex 168.88857034299883 117.40105117837712 0.0
vertex 169.49120830642164 126.49491706079458 0.0
vertex 173.89159607739998 114.05813625768977 0.0
endloop
endfacet
facet normal 0.0 0.0 -1.0
outer loop
vertex 173.89159607739998 114.05813625768977 0.0
vertex 169.49120830642164 126.49491706079458 0.0
vertex 173.3020907033125 123.152862895488 0.0
endloop
endfacet
facet normal 0.0 0.0 -1.0
outer loop
vertex 173.89159607739998 114.05813625768977 0.0
vertex 173.3020907033125 123.152862895488 0.0
vertex 177.5165960774005 120.33682043512643 0.0
endloop
endfacet
facet normal 0.0 0.0 -1.0
outer loop
vertex 173.89159607739998 114.05813625768977 0.0
vertex 177.5165960774005 120.33682043512643 0.0
vertex 179.28815818860585 111.39684633625475 0.0
endloop
endfacet
facet normal 0.0 0.0 -1.0
outer loop
vertex 179.28815818860585 111.39684633625475 0.0
vertex 177.5165960774005 120.33682043512643 0.0
vertex 182.06261307325332 118.09497294696114 0.0
endloop
endfacet
facet normal 0.0 0.0 -1.0
outer loop
vertex 179.28815818860585 111.39684633625475 0.0
vertex 182.06261307325332 118.09497294696114 0.0
vertex 184.98592000268403 109.46271682247678 0.0
endloop
endfacet
facet normal 0.0 0.0 -1.0
outer loop
vertex 184.98592000268403 109.46271682247678 0.0
vertex 182.06261307325332 118.09497294696114 0.0
vertex 186.86235807967793 116.4656790630722 0.0
endloop
endfacet
facet normal 0.0 0.0 -1.0
outer loop
vertex 184.98592000268403 109.46271682247678 0.0
vertex 186.86235807967793 116.4656790630722 0.0
vertex 190.8873912352776 108.28884120857865 0.0
endloop
endfacet
facet normal 0.0 0.0 -1.0
outer loop
vertex 190.8873912352776 108.28884120857865 0.0
vertex 186.86235807967793 116.4656790630722 0.0
vertex 191.83370612887364 115.47681645353852 0.0
endloop
endfacet
facet normal 0.0 0.0 -1.0
outer loop
vertex 190.8873912352776 108.28884120857865 0.0
vertex 191.83370612887364 115.47681645353852 0.0
vertex 196.89159607739998 107.89530483177393 0.0
endloop
endfacet
facet normal 0.0 0.0 -1.0
outer loop
vertex 196.89159607739998 107.89530483177393 0.0
vertex 191.83370612887364 115.47681645353852 0.0
vertex 194.19159607739994 111.94530483177448 0.0
endloop
endfacet
facet normal 0.0 0.0 -1.0
outer loop
vertex 194.19159607739994 111.94530483177448 0.0
vertex 191.83370612887364 115.47681645353852 0.0
vertex 194.19159607739994 115.30916348881257 0.0
endloop
endfacet
facet normal 0.0 0.0 -1.0
outer loop
vertex 196.89159607739998 107.89530483177393 0.0
vertex 194.19159607739994 111.94530483177448 0.0
vertex 199.5915960773999 111.94530483177448 0.0
endloop
endfacet
facet normal 0.0 0.0 -1.0
outer loop
vertex 196.89159607739998 107.89530483177393 0.0
vertex 199.5915960773999 111.94530483177448 0.0
vertex 202.89580091952234 108.28884120857865 0.0
endloop
endfacet
facet normal 0.0 0.0 -1.0
outer loop
vertex 202.89580091952234 108.28884120857865 0.0
vertex 199.5915960773999 111.94530483177448 0.0
vertex 201.94948602592768 115.47681645353869 0.0
endloop
endfacet
facet normal 0.0 0.0 -1.0
outer loop
vertex 202.89580091952234 108.28884120857865 0.0
vertex 201.94948602592768 115.47681645353869 0.0
vertex 206.9208340751234 116.46567906307256 0.0
endloop
endfacet
facet normal 0.0 0.0 -1.0
outer loop
vertex 202.89580091952234 108.28884120857865 0.0
vertex 206.9208340751234 116.46567906307256 0.0
vertex 208.7972721521159 109.46271682247678 0.0
endloop
endfacet
facet normal 0.0 0.0 -1.0
outer loop
vertex 208.7972721521159 109.46271682247678 0.0
vertex 206.9208340751234 116.46567906307256 0.0
vertex 211.72057908154792 118.09497294696168 0.0
endloop
endfacet
facet normal 0.0 0.0 -1.0
outer loop
vertex 208.7972721521159 109.46271682247678 0.0
vertex 211.72057908154792 118.09497294696168 0.0
vertex 214.4950339661941 111.39684633625474 0.0
endloop
endfacet
facet normal 0.0 0.0 -1.0
outer loop
vertex 214.4950339661941 111.39684633625474 0.0
vertex 211.72057908154792 118.09497294696168 0.0
vertex 216.26659607740066 120.33682043512712 0.0
endloop
endfacet
facet normal 0.0 0.0 -1.0
outer loop
vertex 214.4950339661941 111.39684633625474 0.0
vertex 216.26659607740066 120.33682043512712 0.0
vertex 219.89159607739998 114.05813625768975 0.0
endloop
endfacet
facet normal 0.0 0.0 -1.0
outer loop
vertex 219.89159607739998 114.05813625768975 0.0
vertex 216.26659607740066 120.33682043512712 0.0
vertex 220.48110145148857 123.15286289548885 0.0
endloop
endfacet
facet normal 0.0 0.0 -1.0
outer loop
vertex 219.89159607739998 114.05813625768975 0.0
vertex 220.48110145148857 123.15286289548885 0.0
vertex 224.8946218118011 117.40105117837712 0.0
endloop
endfacet
facet normal 0.0 0.0 -1.0
outer loop
vertex 224.8946218118011 117.40105117837712 0.0
vertex 220.48110145148857 123.15286289548885 0.0
vertex 224.29198384837935 126.49491706079557 0.0
endloop
endfacet
facet normal 0.0 0.0 -1.0
outer loop
vertex 224.8946218118011 117.40105117837712 0.0
vertex 224.29198384837935 126.49491706079557 0.0
vertex 227.6340380136859 130.30579945768645 0.0
endloop
endfacet
facet normal 0.0 0.0 -1.0
outer loop
vertex 224.8946218118011 117.40105117837712 0.0
vertex 227.6340380136859 130.30579945768645 0.0
vertex 229.41850801198115 121.36839289719273 0.0
endloop
endfacet
facet normal 0.0 0.0 -1.0
outer loop
vertex 229.41850801198115 121.36839289719273 0.0
vertex 227.6340380136859 130.30579945768645 0.0
vertex 230.4500804740475 134.52030483177447 0.0
endloop
endfacet
facet normal 0.0 0.0 -1.0
outer loop
vertex 229.41850801198115 121.36839289719273 0.0
vertex 230.4500804740475 134.52030483177447 0.0
vertex 233.3858497307968 125.89227909737276 0.0
endloop
endfacet
facet normal 0.0 0.0 -1.0
outer loop
vertex 233.3858497307968 125.89227909737276 0.0
vertex 230.4500804740475 134.52030483177447 0.0
vertex 232.6919279622128 139.0663218276273 0.0
endloop
endfacet
facet normal 0.0 0.0 -1.0
outer loop
vertex 233.3858497307968 125.89227909737276 0.0
vertex 232.6919279622128 139.0663218276273 0.0
vertex 234.3212218461017 143.86606683405188 0.0
endloop
endfacet
facet normal 0.0 0.0 -1.0
outer loop
vertex 233.3858497307968 125.89227909737276 0.0
vertex 234.3212218461017 143.86606683405188 0.0
vertex 236.72876465148414 130.89530483177393 0.0
endloop
endfacet
facet normal 0.0 0.0 -1.0
outer loop
vertex 236.72876465148414 130.89530483177393 0.0
vertex 234.3212218461017 143.86606683405188 0.0
vertex 235.31008445563543 148.83741488324762 0.0
endloop
endfacet
facet normal 0.0 0.0 -1.0
outer loop
vertex 236.72876465148414 130.89530483177393 0.0
vertex 235.31008445563543 148.83741488324762 0.0
vertex 235.47773742036136 151.1953048317739 0.0
endloop
endfacet
facet normal 0.0 0.0 -1.0
outer loop
vertex 236.72876465148414 130.89530483177393 0.0
vertex 235.47773742036136 151.1953048317739 0.0
vertex 238.84159607739954 151.1953048317739 0.0
endloop
endfacet
facet normal 0.0 0.0 -1.0
outer loop
vertex 236.72876465148414 130.89530483177393 0.0
vertex 238.84159607739954 151.1953048317739 0.0
vertex 239.39005457291915 136.2918669429798 0.0
endloop
endfacet
facet normal 0.0 0.0 -1.0
outer loop
vertex 239.39005457291915 136.2918669429798 0.0
vertex 238.84159607739954 151.1953048317739 0.0
vertex 239.39005457291915 171.49874272056803 0.0
endloop
endfacet
facet normal 0.0 0.0 -1.0
outer loop
vertex 239.39005457291915 136.2918669429798 0.0
vertex 239.39005457291915 171.49874272056803 0.0
vertex 241.32418408669713 165.80098090648988 0.0
endloop
endfacet
facet normal 0.0 0.0 -1.0
outer loop
vertex 239.39005457291915 136.2918669429798 0.0
vertex 241.32418408669713 165.80098090648988 0.0
vertex 241.32418408669713 141.98962875705797 0.0
endloop
endfacet
facet normal 0.0 0.0 -1.0
outer loop
vertex 241.32418408669713 141.98962875705797 0.0
vertex 241.32418408669713 165.80098090648988 0.0
vertex 242.49805970059526 159.8995096738963 0.0
endloop
endfacet
facet normal 0.0 0.0 -1.0
outer loop
vertex 241.32418408669713 141.98962875705797 0.0
vertex 242.49805970059526 159.8995096738963 0.0
vertex 242.49805970059526 147.89109998965156 0.0
endloop
endfacet
facet normal 0.0 0.0 -1.0
outer loop
vertex 242.49805970059526 147.89109998965156 0.0
vertex 242.49805970059526 159.8995096738963 0.0
vertex 242.89159607739998 153.89530483177393 0.0
endloop
endfacet
facet normal 0.0 0.0 -1.0
outer loop
vertex 194.19159607739996 192.48144617473534 0.0
vertex 191.83370612887225 192.31379321000918 0.0
vertex 194.19159607739996 195.84530483177343 0.0
endloop
endfacet
facet normal 0.0 -1.0 0.0
outer loop
vertex 158.30545473443857 156.59530483177394 10.0
vertex 154.94159607740048 156.59530483177394 0.0
vertex 158.30545473443857 156.59530483177394 0.0
endloop
endfacet
facet normal 0.0 -1.0 0.0
outer loop
vertex 154.94159607740048 156.59530483177394 0.0
vertex 158.30545473443857 156.59530483177394 10.0
vertex 154.94159607740048 156.59530483177394 10.0
endloop
endfacet
facet normal 1.0 0.0 0.0
outer loop
vertex 194.19159607739994 115.30916348881257 0.0
vertex 194.19159607739994 111.94530483177448 10.0
vertex 194.19159607739994 111.94530483177448 0.0
endloop
endfacet
facet normal 1.0 0.0 0.0
outer loop
vertex 194.19159607739994 111.94530483177448 10.0
vertex 194.19159607739994 115.30916348881257 0.0
vertex 194.19159607739994 115.30916348881257 10.0
endloop
endfacet
facet normal -1.0 0.0 0.0
outer loop
vertex 199.59159607739994 195.84530483177343 10.0
vertex 199.59159607739994 192.4814461747353 0.0
vertex 199.59159607739994 192.4814461747353 10.0
endloop
endfacet
facet normal -1.0 0.0 0.0
outer loop
vertex 199.59159607739994 192.4814461747353 0.0
vertex 199.59159607739994 195.84530483177343 10.0
vertex 199.59159607739994 195.84530483177343 0.0
endloop
endfacet
facet normal -1.0 0.0 0.0
outer loop
vertex 199.5915960773999 115.30916348881257 10.0
vertex 199.5915960773999 111.94530483177448 0.0
vertex 199.5915960773999 111.94530483177448 10.0
endloop
endfacet
facet normal -1.0 0.0 0.0
outer loop
vertex 199.5915960773999 111.94530483177448 0.0
vertex 199.5915960773999 115.30916348881257 10.0
vertex 199.5915960773999 115.30916348881257 0.0
endloop
endfacet
facet normal -0.13326884651459567 -0.9910799233909793 0.0
outer loop
vertex 201.9494860259263 192.31379321000938 10.0
vertex 199.59159607739994 192.4814461747353 0.0
vertex 201.9494860259263 192.31379321000938 0.0
endloop
endfacet
facet normal -0.07092390770822016 -0.9974817288128119 0.0
outer loop
vertex 199.59159607739994 192.4814461747353 0.0
vertex 201.9494860259263 192.31379321000938 10.0
vertex 199.59159607739994 192.4814461747353 10.0
endloop
endfacet
facet normal -0.9974817288128117 0.0709239077082215 0.0
outer loop
vertex 235.47773742036136 151.1953048317739 10.0
vertex 235.31008445563543 148.83741488324762 0.0
vertex 235.31008445563543 148.83741488324762 10.0
endloop
endfacet
facet normal -0.991079923390979 0.1332688465145985 0.0
outer loop
vertex 235.31008445563543 148.83741488324762 0.0
vertex 235.47773742036136 151.1953048317739 10.0
vertex 235.47773742036136 151.1953048317739 0.0
endloop
endfacet
facet normal -0.9659258262890724 0.25881904510250536 0.0
outer loop
vertex 234.3212218461017 143.86606683405188 10.0
vertex 232.6919279622128 139.0663218276273 0.0
vertex 232.6919279622128 139.0663218276273 10.0
endloop
endfacet
facet normal -0.9238795325112946 0.3826834323650708 0.0
outer loop
vertex 232.6919279622128 139.0663218276273 0.0
vertex 234.3212218461017 143.86606683405188 10.0
vertex 234.3212218461017 143.86606683405188 0.0
endloop
endfacet
facet normal 0.0 1.0 0.0
outer loop
vertex 154.94159607740048 151.19530483177397 10.0
vertex 158.30545473443857 151.19530483177397 0.0
vertex 154.94159607740048 151.19530483177397 0.0
endloop
endfacet
facet normal 0.0 1.0 0.0
outer loop
vertex 158.30545473443857 151.19530483177397 0.0
vertex 154.94159607740048 151.19530483177397 10.0
vertex 158.30545473443857 151.19530483177397 10.0
endloop
endfacet
facet normal 0.0 1.0 0.0
outer loop
vertex 235.47773742036136 151.1953048317739 10.0
vertex 238.84159607739954 151.1953048317739 0.0
vertex 235.47773742036136 151.1953048317739 0.0
endloop
endfacet
facet normal 0.0 1.0 0.0
outer loop
vertex 238.84159607739954 151.1953048317739 0.0
vertex 235.47773742036136 151.1953048317739 10.0
vertex 238.84159607739954 151.1953048317739 10.0
endloop
endfacet
facet normal 0.0 -1.0 0.0
outer loop
vertex 238.84159607739954 156.59530483177392 10.0
vertex 235.47773742036136 156.59530483177392 0.0
vertex 238.84159607739954 156.59530483177392 0.0
endloop
endfacet
facet normal 0.0 -1.0 0.0
outer loop
vertex 235.47773742036136 156.59530483177392 0.0
vertex 238.84159607739954 156.59530483177392 10.0
vertex 235.47773742036136 156.59530483177392 10.0
endloop
endfacet
facet normal 1.0 0.0 0.0
outer loop
vertex 194.19159607739996 195.84530483177343 0.0
vertex 194.19159607739996 192.48144617473534 10.0
vertex 194.19159607739996 192.48144617473534 0.0
endloop
endfacet
facet normal 1.0 0.0 0.0
outer loop
vertex 194.19159607739996 192.48144617473534 10.0
vertex 194.19159607739996 195.84530483177343 0.0
vertex 194.19159607739996 195.84530483177343 10.0
endloop
endfacet
facet normal -0.991079923390979 0.1332688465145985 0.0
outer loop
vertex 235.31008445563543 148.83741488324762 10.0
vertex 234.3212218461017 143.86606683405188 0.0
vertex 234.3212218461017 143.86606683405188 10.0
endloop
endfacet
facet normal -0.9659258262890724 0.25881904510250536 0.0
outer loop
vertex 234.3212218461017 143.86606683405188 0.0
vertex 235.31008445563543 148.83741488324762 10.0
vertex 235.31008445563543 148.83741488324762 0.0
endloop
endfacet
facet normal 0.9238795325112861 -0.3826834323650915 0.0
outer loop
vertex 239.39005457291915 136.2918669429798 0.0
vertex 236.72876465148414 130.89530483177393 10.0
vertex 236.72876465148414 130.89530483177393 0.0
endloop
endfacet
facet normal 0.866025403784439 -0.4999999999999994 0.0
outer loop
vertex 236.72876465148414 130.89530483177393 10.0
vertex 239.39005457291915 136.2918669429798 0.0
vertex 239.39005457291915 136.2918669429798 10.0
endloop
endfacet
facet normal 0.5000000000000017 -0.8660254037844377 0.0
outer loop
vertex 219.89159607739998 114.05813625768975 10.0
vertex 214.4950339661941 111.39684633625474 0.0
vertex 219.89159607739998 114.05813625768975 0.0
endloop
endfacet
facet normal 0.38268343236508934 -0.923879532511287 0.0
outer loop
vertex 214.4950339661941 111.39684633625474 0.0
vertex 219.89159607739998 114.05813625768975 10.0
vertex 214.4950339661941 111.39684633625474 10.0
endloop
endfacet
facet normal -0.9914448613738107 -0.1305261922200507 0.0
outer loop
vertex 151.28513245420467 147.89109998965156 10.0
vertex 152.45900806810283 141.98962875705797 0.0
vertex 152.45900806810283 141.98962875705797 10.0
endloop
endfacet
facet normal -0.9659258262890679 -0.25881904510252257 0.0
outer loop
vertex 152.45900806810283 141.98962875705797 0.0
vertex 151.28513245420467 147.89109998965156 10.0
vertex 151.28513245420467 147.89109998965156 0.0
endloop
endfacet
facet normal 1.0 1.1509980100646993e-16 0.0
outer loop
vertex 242.89159607739998 153.89530483177393 0.0
vertex 242.49805970059526 147.89109998965156 10.0
vertex 242.49805970059526 147.89109998965156 0.0
endloop
endfacet
facet normal 0.9914448613738107 -0.13052619222005057 0.0
outer loop
vertex 242.49805970059526 147.89109998965156 10.0
vertex 242.89159607739998 153.89530483177393 0.0
vertex 242.89159607739998 153.89530483177393 10.0
endloop
endfacet
facet normal 0.2588190451025207 -0.9659258262890684 0.0
outer loop
vertex 208.7972721521159 109.46271682247678 10.0
vertex 202.89580091952234 108.28884120857865 0.0
vertex 208.7972721521159 109.46271682247678 0.0
endloop
endfacet
facet normal 0.13052619222005105 -0.9914448613738105 0.0
outer loop
vertex 202.89580091952234 108.28884120857865 0.0
vertex 208.7972721521159 109.46271682247678 10.0
vertex 202.89580091952234 108.28884120857865 10.0
endloop
endfacet
facet normal -0.9914448613738105 0.1305261922200523 0.0
outer loop
vertex 151.2851324542047 159.89950967389635 10.0
vertex 150.89159607739998 153.89530483177393 0.0
vertex 150.89159607739998 153.89530483177393 10.0
endloop
endfacet
facet normal -1.0 1.6335317912072085e-15 0.0
outer loop
vertex 150.89159607739998 153.89530483177393 0.0
vertex 151.2851324542047 159.89950967389635 10.0
vertex 151.2851324542047 159.89950967389635 0.0
endloop
endfacet
facet normal -0.8660254037844387 0.5 0.0
outer loop
vertex 157.05442750331582 176.89530483177396 10.0
vertex 154.39313758188078 171.49874272056812 0.0
vertex 154.39313758188078 171.49874272056812 10.0
endloop
endfacet
facet normal -0.9238795325112864 0.3826834323650906 0.0
outer loop
vertex 154.39313758188078 171.49874272056812 0.0
vertex 157.05442750331582 176.89530483177396 10.0
vertex 157.05442750331582 176.89530483177396 0.0
endloop
endfacet
facet normal -0.4999999999999992 0.8660254037844393 0.0
outer loop
vertex 173.8915960774 193.73247340585814 10.0
vertex 179.28815818860588 196.39376332729316 0.0
vertex 173.8915960774 193.73247340585814 0.0
endloop
endfacet
facet normal -0.3826834323650891 0.9238795325112872 0.0
outer loop
vertex 179.28815818860588 196.39376332729316 0.0
vertex 173.8915960774 193.73247340585814 10.0
vertex 179.28815818860588 196.39376332729316 10.0
endloop
endfacet
facet normal -0.3826834323650891 0.9238795325112872 0.0
outer loop
vertex 179.28815818860588 196.39376332729316 10.0
vertex 184.98592000268405 198.3278928410711 0.0
vertex 179.28815818860588 196.39376332729316 0.0
endloop
endfacet
facet normal -0.25881904510252124 0.9659258262890682 0.0
outer loop
vertex 184.98592000268405 198.3278928410711 0.0
vertex 179.28815818860588 196.39376332729316 10.0
vertex 184.98592000268405 198.3278928410711 10.0
endloop
endfacet
facet normal 1.6335317912072085e-15 1.0 0.0
outer loop
vertex 196.89159607739998 199.89530483177396 10.0
vertex 202.89580091952237 199.5017684549692 0.0
vertex 196.89159607739998 199.89530483177396 0.0
endloop
endfacet
facet normal 0.13052619222005266 0.9914448613738103 0.0
outer loop
vertex 202.89580091952237 199.5017684549692 0.0
vertex 196.89159607739998 199.89530483177396 10.0
vertex 202.89580091952237 199.5017684549692 10.0
endloop
endfacet
facet normal -0.7071067811865467 0.7071067811865485 0.0
outer loop
vertex 164.3646841428188 186.42221676635515 10.0
vertex 168.88857034299886 190.38955848517077 0.0
vertex 164.3646841428188 186.42221676635515 0.0
endloop
endfacet
facet normal -0.6087614290087205 0.7933533402912354 0.0
outer loop
vertex 168.88857034299886 190.38955848517077 0.0
vertex 164.3646841428188 186.42221676635515 10.0
vertex 168.88857034299886 190.38955848517077 10.0
endloop
endfacet
facet normal 0.793353340291235 -0.608761429008721 0.0
outer loop
vertex 233.3858497307968 125.89227909737276 0.0
vertex 229.41850801198115 121.36839289719273 10.0
vertex 229.41850801198115 121.36839289719273 0.0
endloop
endfacet
facet normal 0.7071067811865457 -0.7071067811865495 0.0
outer loop
vertex 229.41850801198115 121.36839289719273 10.0
vertex 233.3858497307968 125.89227909737276 0.0
vertex 233.3858497307968 125.89227909737276 10.0
endloop
endfacet
facet normal -0.6087614290087201 -0.7933533402912358 0.0
outer loop
vertex 168.88857034299883 117.40105117837712 10.0
vertex 164.3646841428188 121.36839289719276 0.0
vertex 168.88857034299883 117.40105117837712 0.0
endloop
endfacet
facet normal -0.7071067811865477 -0.7071067811865474 0.0
outer loop
vertex 164.3646841428188 121.36839289719276 0.0
vertex 168.88857034299883 117.40105117837712 10.0
vertex 164.3646841428188 121.36839289719276 10.0
endloop
endfacet
facet normal -0.9659258262890679 -0.25881904510252257 0.0
outer loop
vertex 152.45900806810283 141.98962875705797 10.0
vertex 154.39313758188078 136.29186694297982 0.0
vertex 154.39313758188078 136.29186694297982 10.0
endloop
endfacet
facet normal -0.9238795325112867 -0.38268343236508995 0.0
outer loop
vertex 154.39313758188078 136.29186694297982 0.0
vertex 152.45900806810283 141.98962875705797 10.0
vertex 152.45900806810283 141.98962875705797 0.0
endloop
endfacet
facet normal 0.38268343236508934 -0.923879532511287 0.0
outer loop
vertex 214.4950339661941 111.39684633625474 10.0
vertex 208.7972721521159 109.46271682247678 0.0
vertex 214.4950339661941 111.39684633625474 0.0
endloop
endfacet
facet normal 0.2588190451025207 -0.9659258262890684 0.0
outer loop
vertex 208.7972721521159 109.46271682247678 0.0
vertex 214.4950339661941 111.39684633625474 10.0
vertex 208.7972721521159 109.46271682247678 10.0
endloop
endfacet
facet normal -0.793353340291235 0.608761429008721 0.0
outer loop
vertex 160.39734242400317 181.8983305661751 10.0
vertex 157.05442750331582 176.89530483177396 0.0
vertex 157.05442750331582 176.89530483177396 10.0
endloop
endfacet
facet normal -0.8660254037844387 0.5 0.0
outer loop
vertex 157.05442750331582 176.89530483177396 0.0
vertex 160.39734242400317 181.8983305661751 10.0
vertex 160.39734242400317 181.8983305661751 0.0
endloop
endfacet
facet normal -0.1305261922200509 -0.9914448613738105 0.0
outer loop
vertex 190.8873912352776 108.28884120857865 10.0
vertex 184.98592000268403 109.46271682247678 0.0
vertex 190.8873912352776 108.28884120857865 0.0
endloop
endfacet
facet normal -0.25881904510252296 -0.9659258262890679 0.0
outer loop
vertex 184.98592000268403 109.46271682247678 0.0
vertex 190.8873912352776 108.28884120857865 10.0
vertex 184.98592000268403 109.46271682247678 10.0
endloop
endfacet
facet normal -0.25881904510252296 -0.9659258262890679 0.0
outer loop
vertex 184.98592000268403 109.46271682247678 10.0
vertex 179.28815818860585 111.39684633625475 0.0
vertex 184.98592000268403 109.46271682247678 0.0
endloop
endfacet
facet normal -0.3826834323650915 -0.9238795325112861 0.0
outer loop
vertex 179.28815818860585 111.39684633625475 0.0
vertex 184.98592000268403 109.46271682247678 10.0
vertex 179.28815818860585 111.39684633625475 10.0
endloop
endfacet
facet normal 0.9659258262890679 -0.25881904510252257 0.0
outer loop
vertex 241.32418408669713 141.98962875705797 0.0
vertex 239.39005457291915 136.2918669429798 10.0
vertex 239.39005457291915 136.2918669429798 0.0
endloop
endfacet
facet normal 0.9238795325112861 -0.3826834323650915 0.0
outer loop
vertex 239.39005457291915 136.2918669429798 10.0
vertex 241.32418408669713 141.98962875705797 0.0
vertex 241.32418408669713 141.98962875705797 10.0
endloop
endfacet
facet normal -0.4999999999999994 -0.866025403784439 0.0
outer loop
vertex 173.89159607739998 114.05813625768977 10.0
vertex 168.88857034299883 117.40105117837712 0.0
vertex 173.89159607739998 114.05813625768977 0.0
endloop
endfacet
facet normal -0.6087614290087201 -0.7933533402912358 0.0
outer loop
vertex 168.88857034299883 117.40105117837712 0.0
vertex 173.89159607739998 114.05813625768977 10.0
vertex 168.88857034299883 117.40105117837712 10.0
endloop
endfacet
facet normal -1.0 1.6335317912072085e-15 0.0
outer loop
vertex 150.89159607739998 153.89530483177393 10.0
vertex 151.28513245420467 147.89109998965156 0.0
vertex 151.28513245420467 147.89109998965156 10.0
endloop
endfacet
facet normal -0.9914448613738107 -0.1305261922200507 0.0
outer loop
vertex 151.28513245420467 147.89109998965156 0.0
vertex 150.89159607739998 153.89530483177393 10.0
vertex 150.89159607739998 153.89530483177393 0.0
endloop
endfacet
facet normal 0.9914448613738107 -0.13052619222005057 0.0
outer loop
vertex 242.49805970059526 147.89109998965156 0.0
vertex 241.32418408669713 141.98962875705797 10.0
vertex 241.32418408669713 141.98962875705797 0.0
endloop
endfacet
facet normal 0.9659258262890679 -0.25881904510252257 0.0
outer loop
vertex 241.32418408669713 141.98962875705797 10.0
vertex 242.49805970059526 147.89109998965156 0.0
vertex 242.49805970059526 147.89109998965156 10.0
endloop
endfacet
facet normal -0.9659258262890684 0.2588190451025209 0.0
outer loop
vertex 152.45900806810283 165.80098090648994 10.0
vertex 151.2851324542047 159.89950967389635 0.0
vertex 151.2851324542047 159.89950967389635 10.0
endloop
endfacet
facet normal -0.9914448613738105 0.1305261922200523 0.0
outer loop
vertex 151.2851324542047 159.89950967389635 0.0
vertex 152.45900806810283 165.80098090648994 10.0
vertex 152.45900806810283 165.80098090648994 0.0
endloop
endfacet
facet normal -0.9238795325112864 0.3826834323650906 0.0
outer loop
vertex 154.39313758188078 171.49874272056812 10.0
vertex 152.45900806810283 165.80098090648994 0.0
vertex 152.45900806810283 165.80098090648994 10.0
endloop
endfacet
facet normal -0.9659258262890684 0.2588190451025209 0.0
outer loop
vertex 152.45900806810283 165.80098090648994 0.0
vertex 154.39313758188078 171.49874272056812 10.0
vertex 154.39313758188078 171.49874272056812 0.0
endloop
endfacet
facet normal -0.6087614290087205 0.7933533402912354 0.0
outer loop
vertex 168.88857034299886 190.38955848517077 10.0
vertex 173.8915960774 193.73247340585814 0.0
vertex 168.88857034299886 190.38955848517077 0.0
endloop
endfacet
facet normal -0.4999999999999992 0.8660254037844393 0.0
outer loop
vertex 173.8915960774 193.73247340585814 0.0
vertex 168.88857034299886 190.38955848517077 10.0
vertex 173.8915960774 193.73247340585814 10.0
endloop
endfacet
facet normal -1.2527112417601704e-32 -2.3801513593443228e-32 1.0
outer loop
vertex 201.9494860259263 192.31379321000938 10.0
vertex 199.59159607739994 195.84530483177343 10.0
vertex 199.59159607739994 192.4814461747353 10.0
endloop
endfacet
facet normal -1.2527112417601704e-32 -2.3801513593443228e-32 1.0
outer loop
vertex 151.28513245420467 147.89109998965156 10.0
vertex 151.2851324542047 159.89950967389635 10.0
vertex 150.89159607739998 153.89530483177393 10.0
endloop
endfacet
facet normal -1.2527112417601704e-32 -2.3801513593443228e-32 1.0
outer loop
vertex 151.2851324542047 159.89950967389635 10.0
vertex 151.28513245420467 147.89109998965156 10.0
vertex 152.45900806810283 141.98962875705797 10.0
endloop
endfacet
facet normal -1.2527112417601704e-32 -2.3801513593443228e-32 1.0
outer loop
vertex 151.2851324542047 159.89950967389635 10.0
vertex 152.45900806810283 141.98962875705797 10.0
vertex 152.45900806810283 165.80098090648994 10.0
endloop
endfacet
facet normal -1.2527112417601704e-32 -2.3801513593443228e-32 1.0
outer loop
vertex 152.45900806810283 165.80098090648994 10.0
vertex 152.45900806810283 141.98962875705797 10.0
vertex 154.39313758188078 136.29186694297982 10.0
endloop
endfacet
facet normal -1.2527112417601704e-32 -2.3801513593443228e-32 1.0
outer loop
vertex 152.45900806810283 165.80098090648994 10.0
vertex 154.39313758188078 136.29186694297982 10.0
vertex 154.39313758188078 171.49874272056812 10.0
endloop
endfacet
facet normal -1.2527112417601704e-32 -2.3801513593443228e-32 1.0
outer loop
vertex 154.39313758188078 171.49874272056812 10.0
vertex 154.39313758188078 136.29186694297982 10.0
vertex 154.94159607740048 151.19530483177397 10.0
endloop
endfacet
facet normal -1.2527112417601704e-32 -2.3801513593443228e-32 1.0
outer loop
vertex 154.94159607740048 151.19530483177397 10.0
vertex 154.39313758188078 136.29186694297982 10.0
vertex 157.0544275033158 130.89530483177393 10.0
endloop
endfacet
facet normal -1.2527112417601704e-32 -2.3801513593443228e-32 1.0
outer loop
vertex 154.94159607740048 151.19530483177397 10.0
vertex 157.0544275033158 130.89530483177393 10.0
vertex 158.30545473443857 151.19530483177397 10.0
endloop
endfacet
facet normal -1.2527112417601704e-32 -2.3801513593443228e-32 1.0
outer loop
vertex 158.30545473443857 151.19530483177397 10.0
vertex 157.0544275033158 130.89530483177393 10.0
vertex 158.47310769916473 148.83741488324623 10.0
endloop
endfacet
facet normal -1.2527112417601704e-32 -2.3801513593443228e-32 1.0
outer loop
vertex 158.47310769916473 148.83741488324623 10.0
vertex 157.0544275033158 130.89530483177393 10.0
vertex 160.39734242400317 125.89227909737279 10.0
endloop
endfacet
facet normal -1.2527112417601704e-32 -2.3801513593443228e-32 1.0
outer loop
vertex 158.47310769916473 148.83741488324623 10.0
vertex 160.39734242400317 125.89227909737279 10.0
vertex 159.4619703086986 143.8660668340505 10.0
endloop
endfacet
facet normal -1.2527112417601704e-32 -2.3801513593443228e-32 1.0
outer loop
vertex 159.4619703086986 143.8660668340505 10.0
vertex 160.39734242400317 125.89227909737279 10.0
vertex 161.09126419258772 139.06632182762598 10.0
endloop
endfacet
facet normal -1.2527112417601704e-32 -2.3801513593443228e-32 1.0
outer loop
vertex 161.09126419258772 139.06632182762598 10.0
vertex 160.39734242400317 125.89227909737279 10.0
vertex 164.3646841428188 121.36839289719276 10.0
endloop
endfacet
facet normal -1.2527112417601704e-32 -2.3801513593443228e-32 1.0
outer loop
vertex 161.09126419258772 139.06632182762598 10.0
vertex 164.3646841428188 121.36839289719276 10.0
vertex 163.33311168075318 134.52030483177325 10.0
endloop
endfacet
facet normal -1.2527112417601704e-32 -2.3801513593443228e-32 1.0
outer loop
vertex 163.33311168075318 134.52030483177325 10.0
vertex 164.3646841428188 121.36839289719276 10.0
vertex 166.1491541411149 130.30579945768534 10.0
endloop
endfacet
facet normal -1.2527112417601704e-32 -2.3801513593443228e-32 1.0
outer loop
vertex 166.1491541411149 130.30579945768534 10.0
vertex 164.3646841428188 121.36839289719276 10.0
vertex 168.88857034299883 117.40105117837712 10.0
endloop
endfacet
facet normal -1.2527112417601704e-32 -2.3801513593443228e-32 1.0
outer loop
vertex 166.1491541411149 130.30579945768534 10.0
vertex 168.88857034299883 117.40105117837712 10.0
vertex 169.49120830642164 126.49491706079458 10.0
endloop
endfacet
facet normal -1.2527112417601704e-32 -2.3801513593443228e-32 1.0
outer loop
vertex 169.49120830642164 126.49491706079458 10.0
vertex 168.88857034299883 117.40105117837712 10.0
vertex 173.89159607739998 114.05813625768977 10.0
endloop
endfacet
facet normal -1.2527112417601704e-32 -2.3801513593443228e-32 1.0
outer loop
vertex 169.49120830642164 126.49491706079458 10.0
vertex 173.89159607739998 114.05813625768977 10.0
vertex 173.3020907033125 123.152862895488 10.0
endloop
endfacet
facet normal -1.2527112417601704e-32 -2.3801513593443228e-32 1.0
outer loop
vertex 173.3020907033125 123.152862895488 10.0
vertex 173.89159607739998 114.05813625768977 10.0
vertex 177.5165960774005 120.33682043512643 10.0
endloop
endfacet
facet normal -1.2527112417601704e-32 -2.3801513593443228e-32 1.0
outer loop
vertex 177.5165960774005 120.33682043512643 10.0
vertex 173.89159607739998 114.05813625768977 10.0
vertex 179.28815818860585 111.39684633625475 10.0
endloop
endfacet
facet normal -1.2527112417601704e-32 -2.3801513593443228e-32 1.0
outer loop
vertex 177.5165960774005 120.33682043512643 10.0
vertex 179.28815818860585 111.39684633625475 10.0
vertex 182.06261307325332 118.09497294696114 10.0
endloop
endfacet
facet normal -1.2527112417601704e-32 -2.3801513593443228e-32 1.0
outer loop
vertex 182.06261307325332 118.09497294696114 10.0
vertex 179.28815818860585 111.39684633625475 10.0
vertex 184.98592000268403 109.46271682247678 10.0
endloop
endfacet
facet normal -1.2527112417601704e-32 -2.3801513593443228e-32 1.0
outer loop
vertex 182.06261307325332 118.09497294696114 10.0
vertex 184.98592000268403 109.46271682247678 10.0
vertex 186.86235807967793 116.4656790630722 10.0
endloop
endfacet
facet normal -1.2527112417601704e-32 -2.3801513593443228e-32 1.0
outer loop
vertex 186.86235807967793 116.4656790630722 10.0
vertex 184.98592000268403 109.46271682247678 10.0
vertex 190.8873912352776 108.28884120857865 10.0
endloop
endfacet
facet normal -1.2527112417601704e-32 -2.3801513593443228e-32 1.0
outer loop
vertex 186.86235807967793 116.4656790630722 10.0
vertex 190.8873912352776 108.28884120857865 10.0
vertex 191.83370612887364 115.47681645353852 10.0
endloop
endfacet
facet normal -1.2527112417601704e-32 -2.3801513593443228e-32 1.0
outer loop
vertex 191.83370612887364 115.47681645353852 10.0
vertex 190.8873912352776 108.28884120857865 10.0
vertex 196.89159607739998 107.89530483177393 10.0
endloop
endfacet
facet normal -1.2527112417601704e-32 -2.3801513593443228e-32 1.0
outer loop
vertex 191.83370612887364 115.47681645353852 10.0
vertex 196.89159607739998 107.89530483177393 10.0
vertex 194.19159607739994 111.94530483177448 10.0
endloop
endfacet
facet normal -1.2527112417601704e-32 -2.3801513593443228e-32 1.0
outer loop
vertex 194.19159607739994 111.94530483177448 10.0
vertex 196.89159607739998 107.89530483177393 10.0
vertex 199.5915960773999 111.94530483177448 10.0
endloop
endfacet
facet normal -1.2527112417601704e-32 -2.3801513593443228e-32 1.0
outer loop
vertex 199.5915960773999 111.94530483177448 10.0
vertex 196.89159607739998 107.89530483177393 10.0
vertex 202.89580091952234 108.28884120857865 10.0
endloop
endfacet
facet normal -1.2527112417601704e-32 -2.3801513593443228e-32 1.0
outer loop
vertex 199.5915960773999 111.94530483177448 10.0
vertex 202.89580091952234 108.28884120857865 10.0
vertex 199.5915960773999 115.30916348881257 10.0
endloop
endfacet
facet normal -1.2527112417601704e-32 -2.3801513593443228e-32 1.0
outer loop
vertex 199.5915960773999 115.30916348881257 10.0
vertex 202.89580091952234 108.28884120857865 10.0
vertex 201.94948602592768 115.47681645353869 10.0
endloop
endfacet
facet normal -1.2527112417601704e-32 -2.3801513593443228e-32 1.0
outer loop
vertex 201.94948602592768 115.47681645353869 10.0
vertex 202.89580091952234 108.28884120857865 10.0
vertex 206.9208340751234 116.46567906307256 10.0
endloop
endfacet
facet normal -1.2527112417601704e-32 -2.3801513593443228e-32 1.0
outer loop
vertex 206.9208340751234 116.46567906307256 10.0
vertex 202.89580091952234 108.28884120857865 10.0
vertex 208.7972721521159 109.46271682247678 10.0
endloop
endfacet
facet normal -1.2527112417601704e-32 -2.3801513593443228e-32 1.0
outer loop
vertex 206.9208340751234 116.46567906307256 10.0
vertex 208.7972721521159 109.46271682247678 10.0
vertex 211.72057908154792 118.09497294696168 10.0
endloop
endfacet
facet normal -1.2527112417601704e-32 -2.3801513593443228e-32 1.0
outer loop
vertex 211.72057908154792 118.09497294696168 10.0
vertex 208.7972721521159 109.46271682247678 10.0
vertex 214.4950339661941 111.39684633625474 10.0
endloop
endfacet
facet normal -1.2527112417601704e-32 -2.3801513593443228e-32 1.0
outer loop
vertex 211.72057908154792 118.09497294696168 10.0
vertex 214.4950339661941 111.39684633625474 10.0
vertex 216.26659607740066 120.33682043512712 10.0
endloop
endfacet
facet normal -1.2527112417601704e-32 -2.3801513593443228e-32 1.0
outer loop
vertex 216.26659607740066 120.33682043512712 10.0
vertex 214.4950339661941 111.39684633625474 10.0
vertex 219.89159607739998 114.05813625768975 10.0
endloop
endfacet
facet normal -1.2527112417601704e-32 -2.3801513593443228e-32 1.0
outer loop
vertex 216.26659607740066 120.33682043512712 10.0
vertex 219.89159607739998 114.05813625768975 10.0
vertex 220.48110145148857 123.15286289548885 10.0
endloop
endfacet
facet normal -1.2527112417601704e-32 -2.3801513593443228e-32 1.0
outer loop
vertex 220.48110145148857 123.15286289548885 10.0
vertex 219.89159607739998 114.05813625768975 10.0
vertex 224.8946218118011 117.40105117837712 10.0
endloop
endfacet
facet normal -1.2527112417601704e-32 -2.3801513593443228e-32 1.0
outer loop
vertex 220.48110145148857 123.15286289548885 10.0
vertex 224.8946218118011 117.40105117837712 10.0
vertex 224.29198384837935 126.49491706079557 10.0
endloop
endfacet
facet normal -1.2527112417601704e-32 -2.3801513593443228e-32 1.0
outer loop
vertex 224.29198384837935 126.49491706079557 10.0
vertex 224.8946218118011 117.40105117837712 10.0
vertex 227.6340380136859 130.30579945768645 10.0
endloop
endfacet
facet normal -1.2527112417601704e-32 -2.3801513593443228e-32 1.0
outer loop
vertex 227.6340380136859 130.30579945768645 10.0
vertex 224.8946218118011 117.40105117837712 10.0
vertex 229.41850801198115 121.36839289719273 10.0
endloop
endfacet
facet normal -1.2527112417601704e-32 -2.3801513593443228e-32 1.0
outer loop
vertex 227.6340380136859 130.30579945768645 10.0
vertex 229.41850801198115 121.36839289719273 10.0
vertex 230.4500804740475 134.52030483177447 10.0
endloop
endfacet
facet normal -1.2527112417601704e-32 -2.3801513593443228e-32 1.0
outer loop
vertex 230.4500804740475 134.52030483177447 10.0
vertex 229.41850801198115 121.36839289719273 10.0
vertex 233.3858497307968 125.89227909737276 10.0
endloop
endfacet
facet normal -1.2527112417601704e-32 -2.3801513593443228e-32 1.0
outer loop
vertex 230.4500804740475 134.52030483177447 10.0
vertex 233.3858497307968 125.89227909737276 10.0
vertex 232.6919279622128 139.0663218276273 10.0
endloop
endfacet
facet normal -1.2527112417601704e-32 -2.3801513593443228e-32 1.0
outer loop
vertex 232.6919279622128 139.0663218276273 10.0
vertex 233.3858497307968 125.89227909737276 10.0
vertex 234.3212218461017 143.86606683405188 10.0
endloop
endfacet
facet normal -1.2527112417601704e-32 -2.3801513593443228e-32 1.0
outer loop
vertex 234.3212218461017 143.86606683405188 10.0
vertex 233.3858497307968 125.89227909737276 10.0
vertex 236.72876465148414 130.89530483177393 10.0
endloop
endfacet
facet normal -1.2527112417601704e-32 -2.3801513593443228e-32 1.0
outer loop
vertex 234.3212218461017 143.86606683405188 10.0
vertex 236.72876465148414 130.89530483177393 10.0
vertex 235.31008445563543 148.83741488324762 10.0
endloop
endfacet
facet normal -1.2527112417601704e-32 -2.3801513593443228e-32 1.0
outer loop
vertex 235.31008445563543 148.83741488324762 10.0
vertex 236.72876465148414 130.89530483177393 10.0
vertex 235.47773742036136 151.1953048317739 10.0
endloop
endfacet
facet normal -1.2527112417601704e-32 -2.3801513593443228e-32 1.0
outer loop
vertex 235.47773742036136 151.1953048317739 10.0
vertex 236.72876465148414 130.89530483177393 10.0
vertex 238.84159607739954 151.1953048317739 10.0
endloop
endfacet
facet normal -1.2527112417601704e-32 -2.3801513593443228e-32 1.0
outer loop
vertex 238.84159607739954 151.1953048317739 10.0
vertex 236.72876465148414 130.89530483177393 10.0
vertex 239.39005457291915 136.2918669429798 10.0
endloop
endfacet
facet normal -1.2527112417601704e-32 -2.3801513593443228e-32 1.0
outer loop
vertex 238.84159607739954 151.1953048317739 10.0
vertex 239.39005457291915 136.2918669429798 10.0
vertex 238.84159607739954 156.59530483177392 10.0
endloop
endfacet
facet normal -1.2527112417601704e-32 -2.3801513593443228e-32 1.0
outer loop
vertex 154.39313758188078 171.49874272056812 10.0
vertex 154.94159607740048 156.59530483177394 10.0
vertex 157.05442750331582 176.89530483177396 10.0
endloop
endfacet
facet normal -1.2527112417601704e-32 -2.3801513593443228e-32 1.0
outer loop
vertex 154.94159607740048 156.59530483177394 10.0
vertex 154.39313758188078 171.49874272056812 10.0
vertex 154.94159607740048 151.19530483177397 10.0
endloop
endfacet
facet normal -1.2527112417601704e-32 -2.3801513593443228e-32 1.0
outer loop
vertex 157.05442750331582 176.89530483177396 10.0
vertex 154.94159607740048 156.59530483177394 10.0
vertex 158.30545473443857 156.59530483177394 10.0
endloop
endfacet
facet normal -1.2527112417601704e-32 -2.3801513593443228e-32 1.0
outer loop
vertex 157.05442750331582 176.89530483177396 10.0
vertex 158.30545473443857 156.59530483177394 10.0
vertex 158.47310769916456 158.95319478030027 10.0
endloop
endfacet
facet normal -1.2527112417601704e-32 -2.3801513593443228e-32 1.0
outer loop
vertex 157.05442750331582 176.89530483177396 10.0
vertex 158.47310769916456 158.95319478030027 10.0
vertex 160.39734242400317 181.8983305661751 10.0
endloop
endfacet
facet normal -1.2527112417601704e-32 -2.3801513593443228e-32 1.0
outer loop
vertex 160.39734242400317 181.8983305661751 10.0
vertex 158.47310769916456 158.95319478030027 10.0
vertex 159.46197030869823 163.92454282949603 10.0
endloop
endfacet
facet normal -1.2527112417601704e-32 -2.3801513593443228e-32 1.0
outer loop
vertex 160.39734242400317 181.8983305661751 10.0
vertex 159.46197030869823 163.92454282949603 10.0
vertex 161.09126419258718 168.72428783592062 10.0
endloop
endfacet
facet normal -1.2527112417601704e-32 -2.3801513593443228e-32 1.0
outer loop
vertex 160.39734242400317 181.8983305661751 10.0
vertex 161.09126419258718 168.72428783592062 10.0
vertex 164.3646841428188 186.42221676635515 10.0
endloop
endfacet
facet normal -1.2527112417601704e-32 -2.3801513593443228e-32 1.0
outer loop
vertex 164.3646841428188 186.42221676635515 10.0
vertex 161.09126419258718 168.72428783592062 10.0
vertex 163.3331116807525 173.27030483177344 10.0
endloop
endfacet
facet normal -1.2527112417601704e-32 -2.3801513593443228e-32 1.0
outer loop
vertex 164.3646841428188 186.42221676635515 10.0
vertex 163.3331116807525 173.27030483177344 10.0
vertex 166.14915414111402 177.48481020586144 10.0
endloop
endfacet
facet normal -1.2527112417601704e-32 -2.3801513593443228e-32 1.0
outer loop
vertex 164.3646841428188 186.42221676635515 10.0
vertex 166.14915414111402 177.48481020586144 10.0
vertex 168.88857034299886 190.38955848517077 10.0
endloop
endfacet
facet normal -1.2527112417601704e-32 -2.3801513593443228e-32 1.0
outer loop
vertex 168.88857034299886 190.38955848517077 10.0
vertex 166.14915414111402 177.48481020586144 10.0
vertex 168.61483135449242 180.29637621410208 10.0
endloop
endfacet
facet normal -1.2527112417601704e-32 -2.3801513593443228e-32 1.0
outer loop
vertex 168.88857034299886 190.38955848517077 10.0
vertex 168.61483135449242 180.29637621410208 10.0
vertex 169.49120830642065 181.2956926027523 10.0
endloop
endfacet
facet normal -1.2527112417601704e-32 -2.3801513593443228e-32 1.0
outer loop
vertex 168.88857034299886 190.38955848517077 10.0
vertex 169.49120830642065 181.2956926027523 10.0
vertex 173.8915960774 193.73247340585814 10.0
endloop
endfacet
facet normal -1.2527112417601704e-32 -2.3801513593443228e-32 1.0
outer loop
vertex 173.8915960774 193.73247340585814 10.0
vertex 169.49120830642065 181.2956926027523 10.0
vertex 170.49052469507183 182.1720695546814 10.0
endloop
endfacet
facet normal -1.2527112417601704e-32 -2.3801513593443228e-32 1.0
outer loop
vertex 173.8915960774 193.73247340585814 10.0
vertex 170.49052469507183 182.1720695546814 10.0
vertex 173.3020907033114 184.63774676805903 10.0
endloop
endfacet
facet normal -1.2527112417601704e-32 -2.3801513593443228e-32 1.0
outer loop
vertex 173.8915960774 193.73247340585814 10.0
vertex 173.3020907033114 184.63774676805903 10.0
vertex 177.5165960773993 187.45378922842076 10.0
endloop
endfacet
facet normal -1.2527112417601704e-32 -2.3801513593443228e-32 1.0
outer loop
vertex 173.8915960774 193.73247340585814 10.0
vertex 177.5165960773993 187.45378922842076 10.0
vertex 179.28815818860588 196.39376332729316 10.0
endloop
endfacet
facet normal -1.2527112417601704e-32 -2.3801513593443228e-32 1.0
outer loop
vertex 179.28815818860588 196.39376332729316 10.0
vertex 177.5165960773993 187.45378922842076 10.0
vertex 182.06261307325204 189.6956367165862 10.0
endloop
endfacet
facet normal -1.2527112417601704e-32 -2.3801513593443228e-32 1.0
outer loop
vertex 179.28815818860588 196.39376332729316 10.0
vertex 182.06261307325204 189.6956367165862 10.0
vertex 184.98592000268405 198.3278928410711 10.0
endloop
endfacet
facet normal -1.2527112417601704e-32 -2.3801513593443228e-32 1.0
outer loop
vertex 184.98592000268405 198.3278928410711 10.0
vertex 182.06261307325204 189.6956367165862 10.0
vertex 186.86235807967657 191.3249306004753 10.0
endloop
endfacet
facet normal -1.2527112417601704e-32 -2.3801513593443228e-32 1.0
outer loop
vertex 184.98592000268405 198.3278928410711 10.0
vertex 186.86235807967657 191.3249306004753 10.0
vertex 190.88739123527762 199.50176845496924 10.0
endloop
endfacet
facet normal -1.2527112417601704e-32 -2.3801513593443228e-32 1.0
outer loop
vertex 190.88739123527762 199.50176845496924 10.0
vertex 186.86235807967657 191.3249306004753 10.0
vertex 191.83370612887225 192.31379321000918 10.0
endloop
endfacet
facet normal -1.2527112417601704e-32 -2.3801513593443228e-32 1.0
outer loop
vertex 190.88739123527762 199.50176845496924 10.0
vertex 191.83370612887225 192.31379321000918 10.0
vertex 196.89159607739998 199.89530483177396 10.0
endloop
endfacet
facet normal -1.2527112417601704e-32 -2.3801513593443228e-32 1.0
outer loop
vertex 196.89159607739998 199.89530483177396 10.0
vertex 191.83370612887225 192.31379321000918 10.0
vertex 194.19159607739996 195.84530483177343 10.0
endloop
endfacet
facet normal -1.2527112417601704e-32 -2.3801513593443228e-32 1.0
outer loop
vertex 194.19159607739996 195.84530483177343 10.0
vertex 191.83370612887225 192.31379321000918 10.0
vertex 194.19159607739996 192.48144617473534 10.0
endloop
endfacet
facet normal -1.2527112417601704e-32 -2.3801513593443228e-32 1.0
outer loop
vertex 196.89159607739998 199.89530483177396 10.0
vertex 194.19159607739996 195.84530483177343 10.0
vertex 199.59159607739994 195.84530483177343 10.0
endloop
endfacet
facet normal -1.2527112417601704e-32 -2.3801513593443228e-32 1.0
outer loop
vertex 196.89159607739998 199.89530483177396 10.0
vertex 199.59159607739994 195.84530483177343 10.0
vertex 202.89580091952237 199.5017684549692 10.0
endloop
endfacet
facet normal -1.2527112417601704e-32 -2.3801513593443228e-32 1.0
outer loop
vertex 202.89580091952237 199.5017684549692 10.0
vertex 199.59159607739994 195.84530483177343 10.0
vertex 201.9494860259263 192.31379321000938 10.0
endloop
endfacet
facet normal -1.2527112417601704e-32 -2.3801513593443228e-32 1.0
outer loop
vertex 202.89580091952237 199.5017684549692 10.0
vertex 201.9494860259263 192.31379321000938 10.0
vertex 206.92083407512203 191.32493060047568 10.0
endloop
endfacet
facet normal -1.2527112417601704e-32 -2.3801513593443228e-32 1.0
outer loop
vertex 202.89580091952237 199.5017684549692 10.0
vertex 206.92083407512203 191.32493060047568 10.0
vertex 208.79727215211597 198.32789284107108 10.0
endloop
endfacet
facet normal -1.2527112417601704e-32 -2.3801513593443228e-32 1.0
outer loop
vertex 208.79727215211597 198.32789284107108 10.0
vertex 206.92083407512203 191.32493060047568 10.0
vertex 211.72057908154665 189.69563671658673 10.0
endloop
endfacet
facet normal -1.2527112417601704e-32 -2.3801513593443228e-32 1.0
outer loop
vertex 208.79727215211597 198.32789284107108 10.0
vertex 211.72057908154665 189.69563671658673 10.0
vertex 214.49503396619414 196.39376332729313 10.0
endloop
endfacet
facet normal -1.2527112417601704e-32 -2.3801513593443228e-32 1.0
outer loop
vertex 214.49503396619414 196.39376332729313 10.0
vertex 211.72057908154665 189.69563671658673 10.0
vertex 216.2665960773995 187.4537892284214 10.0
endloop
endfacet
facet normal -1.2527112417601704e-32 -2.3801513593443228e-32 1.0
outer loop
vertex 214.49503396619414 196.39376332729313 10.0
vertex 216.2665960773995 187.4537892284214 10.0
vertex 219.89159607739998 193.73247340585812 10.0
endloop
endfacet
facet normal -1.2527112417601704e-32 -2.3801513593443228e-32 1.0
outer loop
vertex 219.89159607739998 193.73247340585812 10.0
vertex 216.2665960773995 187.4537892284214 10.0
vertex 220.48110145148743 184.63774676805988 10.0
endloop
endfacet
facet normal -1.2527112417601704e-32 -2.3801513593443228e-32 1.0
outer loop
vertex 219.89159607739998 193.73247340585812 10.0
vertex 220.48110145148743 184.63774676805988 10.0
vertex 224.89462181180116 190.38955848517077 10.0
endloop
endfacet
facet normal -1.2527112417601704e-32 -2.3801513593443228e-32 1.0
outer loop
vertex 224.89462181180116 190.38955848517077 10.0
vertex 220.48110145148743 184.63774676805988 10.0
vertex 224.29198384837835 181.29569260275326 10.0
endloop
endfacet
facet normal -1.2527112417601704e-32 -2.3801513593443228e-32 1.0
outer loop
vertex 224.89462181180116 190.38955848517077 10.0
vertex 224.29198384837835 181.29569260275326 10.0
vertex 227.63403801368506 177.48481020586252 10.0
endloop
endfacet
facet normal -1.2527112417601704e-32 -2.3801513593443228e-32 1.0
outer loop
vertex 224.89462181180116 190.38955848517077 10.0
vertex 227.63403801368506 177.48481020586252 10.0
vertex 229.4185080119812 186.42221676635512 10.0
endloop
endfacet
facet normal -1.2527112417601704e-32 -2.3801513593443228e-32 1.0
outer loop
vertex 229.4185080119812 186.42221676635512 10.0
vertex 227.63403801368506 177.48481020586252 10.0
vertex 230.45008047404679 173.27030483177464 10.0
endloop
endfacet
facet normal -1.2527112417601704e-32 -2.3801513593443228e-32 1.0
outer loop
vertex 229.4185080119812 186.42221676635512 10.0
vertex 230.45008047404679 173.27030483177464 10.0
vertex 233.3858497307968 181.89833056617508 10.0
endloop
endfacet
facet normal -1.2527112417601704e-32 -2.3801513593443228e-32 1.0
outer loop
vertex 233.3858497307968 181.89833056617508 10.0
vertex 230.45008047404679 173.27030483177464 10.0
vertex 232.69192796221225 168.72428783592187 10.0
endloop
endfacet
facet normal -1.2527112417601704e-32 -2.3801513593443228e-32 1.0
outer loop
vertex 233.3858497307968 181.89833056617508 10.0
vertex 232.69192796221225 168.72428783592187 10.0
vertex 234.32122184610137 163.92454282949734 10.0
endloop
endfacet
facet normal -1.2527112417601704e-32 -2.3801513593443228e-32 1.0
outer loop
vertex 233.3858497307968 181.89833056617508 10.0
vertex 234.32122184610137 163.92454282949734 10.0
vertex 236.72876465148414 176.89530483177393 10.0
endloop
endfacet
facet normal -1.2527112417601704e-32 -2.3801513593443228e-32 1.0
outer loop
vertex 236.72876465148414 176.89530483177393 10.0
vertex 234.32122184610137 163.92454282949734 10.0
vertex 235.31008445563523 158.95319478030166 10.0
endloop
endfacet
facet normal -1.2527112417601704e-32 -2.3801513593443228e-32 1.0
outer loop
vertex 236.72876465148414 176.89530483177393 10.0
vertex 235.31008445563523 158.95319478030166 10.0
vertex 235.47773742036136 156.59530483177392 10.0
endloop
endfacet
facet normal -1.2527112417601704e-32 -2.3801513593443228e-32 1.0
outer loop
vertex 236.72876465148414 176.89530483177393 10.0
vertex 235.47773742036136 156.59530483177392 10.0
vertex 238.84159607739954 156.59530483177392 10.0
endloop
endfacet
facet normal -1.2527112417601704e-32 -2.3801513593443228e-32 1.0
outer loop
vertex 236.72876465148414 176.89530483177393 10.0
vertex 238.84159607739954 156.59530483177392 10.0
vertex 239.39005457291915 171.49874272056803 10.0
endloop
endfacet
facet normal -1.2527112417601704e-32 -2.3801513593443228e-32 1.0
outer loop
vertex 239.39005457291915 171.49874272056803 10.0
vertex 238.84159607739954 156.59530483177392 10.0
vertex 239.39005457291915 136.2918669429798 10.0
endloop
endfacet
facet normal -1.2527112417601704e-32 -2.3801513593443228e-32 1.0
outer loop
vertex 239.39005457291915 171.49874272056803 10.0
vertex 239.39005457291915 136.2918669429798 10.0
vertex 241.32418408669713 141.98962875705797 10.0
endloop
endfacet
facet normal -1.2527112417601704e-32 -2.3801513593443228e-32 1.0
outer loop
vertex 239.39005457291915 171.49874272056803 10.0
vertex 241.32418408669713 141.98962875705797 10.0
vertex 241.32418408669713 165.80098090648988 10.0
endloop
endfacet
facet normal -1.2527112417601704e-32 -2.3801513593443228e-32 1.0
outer loop
vertex 241.32418408669713 165.80098090648988 10.0
vertex 241.32418408669713 141.98962875705797 10.0
vertex 242.49805970059526 147.89109998965156 10.0
endloop
endfacet
facet normal -1.2527112417601704e-32 -2.3801513593443228e-32 1.0
outer loop
vertex 241.32418408669713 165.80098090648988 10.0
vertex 242.49805970059526 147.89109998965156 10.0
vertex 242.49805970059526 159.8995096738963 10.0
endloop
endfacet
facet normal -1.2527112417601704e-32 -2.3801513593443228e-32 1.0
outer loop
vertex 242.49805970059526 159.8995096738963 10.0
vertex 242.49805970059526 147.89109998965156 10.0
vertex 242.89159607739998 153.89530483177393 10.0
endloop
endfacet
facet normal -1.2527112417601704e-32 -2.3801513593443228e-32 1.0
outer loop
vertex 194.19159607739994 115.30916348881257 10.0
vertex 191.83370612887364 115.47681645353852 10.0
vertex 194.19159607739994 111.94530483177448 10.0
endloop
endfacet
facet normal -0.13052619222005105 0.9914448613738105 0.0
outer loop
vertex 190.88739123527762 199.50176845496924 10.0
vertex 196.89159607739998 199.89530483177396 0.0
vertex 190.88739123527762 199.50176845496924 0.0
endloop
endfacet
facet normal 1.6335317912072085e-15 1.0 0.0
outer loop
vertex 196.89159607739998 199.89530483177396 0.0
vertex 190.88739123527762 199.50176845496924 10.0
vertex 196.89159607739998 199.89530483177396 10.0
endloop
endfacet
facet normal 0.13052619222005266 0.9914448613738103 0.0
outer loop
vertex 202.89580091952237 199.5017684549692 10.0
vertex 208.79727215211597 198.32789284107108 0.0
vertex 202.89580091952237 199.5017684549692 0.0
endloop
endfacet
facet normal 0.2588190451025207 0.9659258262890684 0.0
outer loop
vertex 208.79727215211597 198.32789284107108 0.0
vertex 202.89580091952237 199.5017684549692 10.0
vertex 208.79727215211597 198.32789284107108 10.0
endloop
endfacet
facet normal 0.2588190451025207 0.9659258262890684 0.0
outer loop
vertex 208.79727215211597 198.32789284107108 10.0
vertex 214.49503396619414 196.39376332729313 0.0
vertex 208.79727215211597 198.32789284107108 0.0
endloop
endfacet
facet normal 0.3826834323650908 0.9238795325112864 0.0
outer loop
vertex 214.49503396619414 196.39376332729313 0.0
vertex 208.79727215211597 198.32789284107108 10.0
vertex 214.49503396619414 196.39376332729313 10.0
endloop
endfacet
facet normal 0.49999999999999983 0.8660254037844387 0.0
outer loop
vertex 219.89159607739998 193.73247340585812 10.0
vertex 224.89462181180116 190.38955848517077 0.0
vertex 219.89159607739998 193.73247340585812 0.0
endloop
endfacet
facet normal 0.6087614290087193 0.7933533402912363 0.0
outer loop
vertex 224.89462181180116 190.38955848517077 0.0
vertex 219.89159607739998 193.73247340585812 10.0
vertex 224.89462181180116 190.38955848517077 10.0
endloop
endfacet
facet normal 0.6087614290087193 0.7933533402912363 0.0
outer loop
vertex 224.89462181180116 190.38955848517077 10.0
vertex 229.4185080119812 186.42221676635512 0.0
vertex 224.89462181180116 190.38955848517077 0.0
endloop
endfacet
facet normal 0.7071067811865495 0.7071067811865456 0.0
outer loop
vertex 229.4185080119812 186.42221676635512 0.0
vertex 224.89462181180116 190.38955848517077 10.0
vertex 229.4185080119812 186.42221676635512 10.0
endloop
endfacet
facet normal 0.866025403784439 0.4999999999999994 0.0
outer loop
vertex 236.72876465148414 176.89530483177393 0.0
vertex 239.39005457291915 171.49874272056803 10.0
vertex 239.39005457291915 171.49874272056803 0.0
endloop
endfacet
facet normal 0.9238795325112861 0.3826834323650915 0.0
outer loop
vertex 239.39005457291915 171.49874272056803 10.0
vertex 236.72876465148414 176.89530483177393 0.0
vertex 236.72876465148414 176.89530483177393 10.0
endloop
endfacet
facet normal -0.25881904510252124 0.9659258262890682 0.0
outer loop
vertex 184.98592000268405 198.3278928410711 10.0
vertex 190.88739123527762 199.50176845496924 0.0
vertex 184.98592000268405 198.3278928410711 0.0
endloop
endfacet
facet normal -0.13052619222005105 0.9914448613738105 0.0
outer loop
vertex 190.88739123527762 199.50176845496924 0.0
vertex 184.98592000268405 198.3278928410711 10.0
vertex 190.88739123527762 199.50176845496924 10.0
endloop
endfacet
facet normal 0.7933533402912375 0.6087614290087179 0.0
outer loop
vertex 233.3858497307968 181.89833056617508 0.0
vertex 236.72876465148414 176.89530483177393 10.0
vertex 236.72876465148414 176.89530483177393 0.0
endloop
endfacet
facet normal 0.866025403784439 0.4999999999999994 0.0
outer loop
vertex 236.72876465148414 176.89530483177393 10.0
vertex 233.3858497307968 181.89833056617508 0.0
vertex 233.3858497307968 181.89833056617508 10.0
endloop
endfacet
facet normal 0.6087614290087211 -0.793353340291235 0.0
outer loop
vertex 224.8946218118011 117.40105117837712 10.0
vertex 219.89159607739998 114.05813625768975 0.0
vertex 224.8946218118011 117.40105117837712 0.0
endloop
endfacet
facet normal 0.5000000000000017 -0.8660254037844377 0.0
outer loop
vertex 219.89159607739998 114.05813625768975 0.0
vertex 224.8946218118011 117.40105117837712 10.0
vertex 219.89159607739998 114.05813625768975 10.0
endloop
endfacet
facet normal 0.866025403784439 -0.4999999999999994 0.0
outer loop
vertex 236.72876465148414 130.89530483177393 0.0
vertex 233.3858497307968 125.89227909737276 10.0
vertex 233.3858497307968 125.89227909737276 0.0
endloop
endfacet
facet normal 0.793353340291235 -0.608761429008721 0.0
outer loop
vertex 233.3858497307968 125.89227909737276 10.0
vertex 236.72876465148414 130.89530483177393 0.0
vertex 236.72876465148414 130.89530483177393 10.0
endloop
endfacet
facet normal 0.9238795325112861 0.3826834323650915 0.0
outer loop
vertex 239.39005457291915 171.49874272056803 0.0
vertex 241.32418408669713 165.80098090648988 10.0
vertex 241.32418408669713 165.80098090648988 0.0
endloop
endfacet
facet normal 0.9659258262890679 0.25881904510252296 0.0
outer loop
vertex 241.32418408669713 165.80098090648988 10.0
vertex 239.39005457291915 171.49874272056803 0.0
vertex 239.39005457291915 171.49874272056803 10.0
endloop
endfacet
facet normal 0.9659258262890679 0.25881904510252296 0.0
outer loop
vertex 241.32418408669713 165.80098090648988 0.0
vertex 242.49805970059526 159.8995096738963 10.0
vertex 242.49805970059526 159.8995096738963 0.0
endloop
endfacet
facet normal 0.9914448613738105 0.13052619222005105 0.0
outer loop
vertex 242.49805970059526 159.8995096738963 10.0
vertex 241.32418408669713 165.80098090648988 0.0
vertex 241.32418408669713 165.80098090648988 10.0
endloop
endfacet
facet normal 0.9914448613738105 0.13052619222005105 0.0
outer loop
vertex 242.49805970059526 159.8995096738963 0.0
vertex 242.89159607739998 153.89530483177393 10.0
vertex 242.89159607739998 153.89530483177393 0.0
endloop
endfacet
facet normal 1.0 1.1509980100646993e-16 0.0
outer loop
vertex 242.89159607739998 153.89530483177393 10.0
vertex 242.49805970059526 159.8995096738963 0.0
vertex 242.49805970059526 159.8995096738963 10.0
endloop
endfacet
facet normal -0.8660254037844392 -0.49999999999999933 0.0
outer loop
vertex 157.0544275033158 130.89530483177393 10.0
vertex 160.39734242400317 125.89227909737279 0.0
vertex 160.39734242400317 125.89227909737279 10.0
endloop
endfacet
facet normal -0.7933533402912348 -0.6087614290087213 0.0
outer loop
vertex 160.39734242400317 125.89227909737279 0.0
vertex 157.0544275033158 130.89530483177393 10.0
vertex 157.0544275033158 130.89530483177393 0.0
endloop
endfacet
facet normal 0.3826834323650908 0.9238795325112864 0.0
outer loop
vertex 214.49503396619414 196.39376332729313 10.0
vertex 219.89159607739998 193.73247340585812 0.0
vertex 214.49503396619414 196.39376332729313 0.0
endloop
endfacet
facet normal 0.49999999999999983 0.8660254037844387 0.0
outer loop
vertex 219.89159607739998 193.73247340585812 0.0
vertex 214.49503396619414 196.39376332729313 10.0
vertex 219.89159607739998 193.73247340585812 10.0
endloop
endfacet
facet normal -1.0 0.0 0.0
outer loop
vertex 238.84159607739954 156.59530483177392 10.0
vertex 238.84159607739954 151.1953048317739 0.0
vertex 238.84159607739954 151.1953048317739 10.0
endloop
endfacet
facet normal -1.0 0.0 0.0
outer loop
vertex 238.84159607739954 151.1953048317739 0.0
vertex 238.84159607739954 156.59530483177392 10.0
vertex 238.84159607739954 156.59530483177392 0.0
endloop
endfacet
facet normal 0.7071067811865495 0.7071067811865456 0.0
outer loop
vertex 229.4185080119812 186.42221676635512 0.0
vertex 233.3858497307968 181.89833056617508 10.0
vertex 233.3858497307968 181.89833056617508 0.0
endloop
endfacet
facet normal 0.7933533402912375 0.6087614290087179 0.0
outer loop
vertex 233.3858497307968 181.89833056617508 10.0
vertex 229.4185080119812 186.42221676635512 0.0
vertex 229.4185080119812 186.42221676635512 10.0
endloop
endfacet
facet normal 0.13052619222005105 -0.9914448613738105 0.0
outer loop
vertex 202.89580091952234 108.28884120857865 10.0
vertex 196.89159607739998 107.89530483177393 0.0
vertex 202.89580091952234 108.28884120857865 0.0
endloop
endfacet
facet normal 1.1509980100646993e-16 -1.0 0.0
outer loop
vertex 196.89159607739998 107.89530483177393 0.0
vertex 202.89580091952234 108.28884120857865 10.0
vertex 196.89159607739998 107.89530483177393 10.0
endloop
endfacet
facet normal 0.7071067811865457 -0.7071067811865495 0.0
outer loop
vertex 229.41850801198115 121.36839289719273 10.0
vertex 224.8946218118011 117.40105117837712 0.0
vertex 229.41850801198115 121.36839289719273 0.0
endloop
endfacet
facet normal 0.6087614290087211 -0.793353340291235 0.0
outer loop
vertex 224.8946218118011 117.40105117837712 0.0
vertex 229.41850801198115 121.36839289719273 10.0
vertex 224.8946218118011 117.40105117837712 10.0
endloop
endfacet
facet normal -0.3826834323650915 -0.9238795325112861 0.0
outer loop
vertex 179.28815818860585 111.39684633625475 10.0
vertex 173.89159607739998 114.05813625768977 0.0
vertex 179.28815818860585 111.39684633625475 0.0
endloop
endfacet
facet normal -0.4999999999999994 -0.866025403784439 0.0
outer loop
vertex 173.89159607739998 114.05813625768977 0.0
vertex 179.28815818860585 111.39684633625475 10.0
vertex 173.89159607739998 114.05813625768977 10.0
endloop
endfacet
facet normal -0.9238795325112867 -0.38268343236508995 0.0
outer loop
vertex 154.39313758188078 136.29186694297982 10.0
vertex 157.0544275033158 130.89530483177393 0.0
vertex 157.0544275033158 130.89530483177393 10.0
endloop
endfacet
facet normal -0.8660254037844392 -0.49999999999999933 0.0
outer loop
vertex 157.0544275033158 130.89530483177393 0.0
vertex 154.39313758188078 136.29186694297982 10.0
vertex 154.39313758188078 136.29186694297982 0.0
endloop
endfacet
facet normal -0.7071067811865467 0.7071067811865485 0.0
outer loop
vertex 164.3646841428188 186.42221676635515 10.0
vertex 160.39734242400317 181.8983305661751 0.0
vertex 160.39734242400317 181.8983305661751 10.0
endloop
endfacet
facet normal -0.793353340291235 0.608761429008721 0.0
outer loop
vertex 160.39734242400317 181.8983305661751 0.0
vertex 164.3646841428188 186.42221676635515 10.0
vertex 164.3646841428188 186.42221676635515 0.0
endloop
endfacet
facet normal 1.1509980100646993e-16 -1.0 0.0
outer loop
vertex 196.89159607739998 107.89530483177393 10.0
vertex 190.8873912352776 108.28884120857865 0.0
vertex 196.89159607739998 107.89530483177393 0.0
endloop
endfacet
facet normal -0.1305261922200509 -0.9914448613738105 0.0
outer loop
vertex 190.8873912352776 108.28884120857865 0.0
vertex 196.89159607739998 107.89530483177393 10.0
vertex 190.8873912352776 108.28884120857865 10.0
endloop
endfacet
facet normal -0.7933533402912348 -0.6087614290087213 0.0
outer loop
vertex 160.39734242400317 125.89227909737279 10.0
vertex 164.3646841428188 121.36839289719276 0.0
vertex 164.3646841428188 121.36839289719276 10.0
endloop
endfacet
facet normal -0.7071067811865477 -0.7071067811865474 0.0
outer loop
vertex 164.3646841428188 121.36839289719276 0.0
vertex 160.39734242400317 125.89227909737279 10.0
vertex 160.39734242400317 125.89227909737279 0.0
endloop
endfacet
facet normal 0.1332688465145971 0.9910799233909792 0.0
outer loop
vertex 191.83370612887364 115.47681645353852 10.0
vertex 194.19159607739994 115.30916348881257 0.0
vertex 191.83370612887364 115.47681645353852 0.0
endloop
endfacet
facet normal 0.07092390770822217 0.9974817288128117 0.0
outer loop
vertex 194.19159607739994 115.30916348881257 0.0
vertex 191.83370612887364 115.47681645353852 10.0
vertex 194.19159607739994 115.30916348881257 10.0
endloop
endfacet
facet normal 0.9659258262890731 -0.25881904510250286 0.0
outer loop
vertex 159.46197030869823 163.92454282949603 0.0
vertex 158.47310769916456 158.95319478030027 10.0
vertex 158.47310769916456 158.95319478030027 0.0
endloop
endfacet
facet normal 0.9910799233909781 -0.13326884651460538 0.0
outer loop
vertex 158.47310769916456 158.95319478030027 10.0
vertex 159.46197030869823 163.92454282949603 0.0
vertex 159.46197030869823 163.92454282949603 10.0
endloop
endfacet
facet normal 0.7933533402912248 0.6087614290087344 0.0
outer loop
vertex 166.1491541411149 130.30579945768534 0.0
vertex 169.49120830642164 126.49491706079458 10.0
vertex 169.49120830642164 126.49491706079458 0.0
endloop
endfacet
facet normal 0.7071067811865341 0.707106781186561 0.0
outer loop
vertex 169.49120830642164 126.49491706079458 10.0
vertex 166.1491541411149 130.30579945768534 0.0
vertex 166.1491541411149 130.30579945768534 10.0
endloop
endfacet
facet normal -0.0 -1.0 -0.0
outer loop
vertex 199.59159607739994 195.84530483177343 10.0
vertex 194.19159607739996 195.84530483177343 0.0
vertex 199.59159607739994 195.84530483177343 0.0
endloop
endfacet
facet normal -0.0 -1.0 -0.0
outer loop
vertex 194.19159607739996 195.84530483177343 0.0
vertex 199.59159607739994 195.84530483177343 10.0
vertex 194.19159607739996 195.84530483177343 10.0
endloop
endfacet
facet normal 0.6087614290088104 -0.7933533402911662 0.0
outer loop
vertex 173.3020907033114 184.63774676805903 10.0
vertex 170.49052469507183 182.1720695546814 0.0
vertex 173.3020907033114 184.63774676805903 0.0
endloop
endfacet
facet normal 0.6593458151002278 -0.7518398074788382 0.0
outer loop
vertex 170.49052469507183 182.1720695546814 0.0
vertex 173.3020907033114 184.63774676805903 10.0
vertex 170.49052469507183 182.1720695546814 10.0
endloop
endfacet
facet normal 0.7933533402911901 -0.6087614290087796 0.0
outer loop
vertex 166.14915414111402 177.48481020586144 0.0
vertex 163.3331116807525 173.27030483177344 10.0
vertex 163.3331116807525 173.27030483177344 0.0
endloop
endfacet
facet normal 0.8660254037844477 -0.4999999999999846 0.0
outer loop
vertex 163.3331116807525 173.27030483177344 10.0
vertex 166.14915414111402 177.48481020586144 0.0
vertex 166.14915414111402 177.48481020586144 10.0
endloop
endfacet
facet normal 0.49999999999998457 0.8660254037844477 0.0
outer loop
vertex 177.5165960774005 120.33682043512643 10.0
vertex 182.06261307325332 118.09497294696114 0.0
vertex 177.5165960774005 120.33682043512643 0.0
endloop
endfacet
facet normal 0.38268343236507196 0.9238795325112942 0.0
outer loop
vertex 182.06261307325332 118.09497294696114 0.0
vertex 177.5165960774005 120.33682043512643 10.0
vertex 182.06261307325332 118.09497294696114 10.0
endloop
endfacet
facet normal 0.38268343236507196 0.9238795325112942 0.0
outer loop
vertex 182.06261307325332 118.09497294696114 10.0
vertex 186.86235807967793 116.4656790630722 0.0
vertex 182.06261307325332 118.09497294696114 0.0
endloop
endfacet
facet normal 0.258819045102503 0.9659258262890731 0.0
outer loop
vertex 186.86235807967793 116.4656790630722 0.0
vertex 182.06261307325332 118.09497294696114 10.0
vertex 186.86235807967793 116.4656790630722 10.0
endloop
endfacet
facet normal -0.3826834323650729 -0.9238795325112937 0.0
outer loop
vertex 211.72057908154665 189.69563671658673 10.0
vertex 206.92083407512203 191.32493060047568 0.0
vertex 211.72057908154665 189.69563671658673 0.0
endloop
endfacet
facet normal -0.2588190451025026 -0.9659258262890733 0.0
outer loop
vertex 206.92083407512203 191.32493060047568 0.0
vertex 211.72057908154665 189.69563671658673 10.0
vertex 206.92083407512203 191.32493060047568 10.0
endloop
endfacet
facet normal 0.7071067811865533 -0.7071067811865417 0.0
outer loop
vertex 169.49120830642065 181.2956926027523 0.0
vertex 168.61483135449242 180.29637621410208 10.0
vertex 168.61483135449242 180.29637621410208 0.0
endloop
endfacet
facet normal 0.7518398074793379 -0.6593458150996577 0.0
outer loop
vertex 168.61483135449242 180.29637621410208 10.0
vertex 169.49120830642065 181.2956926027523 0.0
vertex 169.49120830642065 181.2956926027523 10.0
endloop
endfacet
facet normal 0.3826834323651061 -0.9238795325112802 0.0
outer loop
vertex 182.06261307325204 189.6956367165862 10.0
vertex 177.5165960773993 187.45378922842076 0.0
vertex 182.06261307325204 189.6956367165862 0.0
endloop
endfacet
facet normal 0.5000000000000144 -0.8660254037844304 0.0
outer loop
vertex 177.5165960773993 187.45378922842076 0.0
vertex 182.06261307325204 189.6956367165862 10.0
vertex 177.5165960773993 187.45378922842076 10.0
endloop
endfacet
facet normal 0.13326884651463658 -0.9910799233909737 0.0
outer loop
vertex 191.83370612887225 192.31379321000918 10.0
vertex 186.86235807967657 191.3249306004753 0.0
vertex 191.83370612887225 192.31379321000918 0.0
endloop
endfacet
facet normal 0.258819045102539 -0.9659258262890635 0.0
outer loop
vertex 186.86235807967657 191.3249306004753 0.0
vertex 191.83370612887225 192.31379321000918 10.0
vertex 186.86235807967657 191.3249306004753 10.0
endloop
endfacet
facet normal 0.0 1.0 0.0
outer loop
vertex 194.19159607739994 111.94530483177448 10.0
vertex 199.5915960773999 111.94530483177448 0.0
vertex 194.19159607739994 111.94530483177448 0.0
endloop
endfacet
facet normal 0.0 1.0 0.0
outer loop
vertex 199.5915960773999 111.94530483177448 0.0
vertex 194.19159607739994 111.94530483177448 10.0
vertex 199.5915960773999 111.94530483177448 10.0
endloop
endfacet
facet normal -0.9910799233909741 -0.1332688465146334 0.0
outer loop
vertex 235.31008445563523 158.95319478030166 10.0
vertex 235.47773742036136 156.59530483177392 0.0
vertex 235.47773742036136 156.59530483177392 10.0
endloop
endfacet
facet normal -0.9974817288128095 -0.07092390770825427 0.0
outer loop
vertex 235.47773742036136 156.59530483177392 0.0
vertex 235.31008445563523 158.95319478030166 10.0
vertex 235.31008445563523 158.95319478030166 0.0
endloop
endfacet
facet normal -0.2588190451025026 -0.9659258262890733 0.0
outer loop
vertex 206.92083407512203 191.32493060047568 10.0
vertex 201.9494860259263 192.31379321000938 0.0
vertex 206.92083407512203 191.32493060047568 0.0
endloop
endfacet
facet normal -0.13326884651459567 -0.9910799233909793 0.0
outer loop
vertex 201.9494860259263 192.31379321000938 0.0
vertex 206.92083407512203 191.32493060047568 10.0
vertex 201.9494860259263 192.31379321000938 10.0
endloop
endfacet
facet normal -0.6087614290087058 -0.7933533402912466 0.0
outer loop
vertex 220.48110145148743 184.63774676805988 10.0
vertex 216.2665960773995 187.4537892284214 0.0
vertex 220.48110145148743 184.63774676805988 0.0
endloop
endfacet
facet normal -0.49999999999998596 -0.8660254037844468 0.0
outer loop
vertex 216.2665960773995 187.4537892284214 0.0
vertex 220.48110145148743 184.63774676805988 10.0
vertex 216.2665960773995 187.4537892284214 10.0
endloop
endfacet
facet normal 0.0709239077082651 -0.9974817288128086 0.0
outer loop
vertex 194.19159607739996 192.48144617473534 10.0
vertex 191.83370612887225 192.31379321000918 0.0
vertex 194.19159607739996 192.48144617473534 0.0
endloop
endfacet
facet normal 0.13326884651463658 -0.9910799233909737 0.0
outer loop
vertex 191.83370612887225 192.31379321000918 0.0
vertex 194.19159607739996 192.48144617473534 10.0
vertex 191.83370612887225 192.31379321000918 10.0
endloop
endfacet
facet normal 1.0 0.0 0.0
outer loop
vertex 154.94159607740048 156.59530483177394 0.0
vertex 154.94159607740048 151.19530483177397 10.0
vertex 154.94159607740048 151.19530483177397 0.0
endloop
endfacet
facet normal 1.0 0.0 0.0
outer loop
vertex 154.94159607740048 151.19530483177397 10.0
vertex 154.94159607740048 156.59530483177394 0.0
vertex 154.94159607740048 156.59530483177394 10.0
endloop
endfacet
facet normal -0.07092390770825358 0.9974817288128095 0.0
outer loop
vertex 199.5915960773999 115.30916348881257 10.0
vertex 201.94948602592768 115.47681645353869 0.0
vertex 199.5915960773999 115.30916348881257 0.0
endloop
endfacet
facet normal -0.13326884651463047 0.9910799233909746 0.0
outer loop
vertex 201.94948602592768 115.47681645353869 0.0
vertex 199.5915960773999 115.30916348881257 10.0
vertex 201.94948602592768 115.47681645353869 10.0
endloop
endfacet
facet normal 0.5000000000000144 -0.8660254037844304 0.0
outer loop
vertex 177.5165960773993 187.45378922842076 10.0
vertex 173.3020907033114 184.63774676805903 0.0
vertex 177.5165960773993 187.45378922842076 0.0
endloop
endfacet
facet normal 0.6087614290088104 -0.7933533402911662 0.0
outer loop
vertex 173.3020907033114 184.63774676805903 0.0
vertex 177.5165960773993 187.45378922842076 10.0
vertex 173.3020907033114 184.63774676805903 10.0
endloop
endfacet
facet normal -0.25881904510253934 0.9659258262890634 0.0
outer loop
vertex 206.9208340751234 116.46567906307256 10.0
vertex 211.72057908154792 118.09497294696168 0.0
vertex 206.9208340751234 116.46567906307256 0.0
endloop
endfacet
facet normal -0.3826834323651059 0.9238795325112801 0.0
outer loop
vertex 211.72057908154792 118.09497294696168 0.0
vertex 206.9208340751234 116.46567906307256 10.0
vertex 211.72057908154792 118.09497294696168 10.0
endloop
endfacet
facet normal -0.7071067811865354 -0.7071067811865597 0.0
outer loop
vertex 224.29198384837835 181.29569260275326 10.0
vertex 227.63403801368506 177.48481020586252 0.0
vertex 227.63403801368506 177.48481020586252 10.0
endloop
endfacet
facet normal -0.7933533402912248 -0.6087614290087341 0.0
outer loop
vertex 227.63403801368506 177.48481020586252 0.0
vertex 224.29198384837835 181.29569260275326 10.0
vertex 224.29198384837835 181.29569260275326 0.0
endloop
endfacet
facet normal 0.9659258262890635 0.25881904510253856 0.0
outer loop
vertex 159.4619703086986 143.8660668340505 0.0
vertex 161.09126419258772 139.06632182762598 10.0
vertex 161.09126419258772 139.06632182762598 0.0
endloop
endfacet
facet normal 0.9238795325112802 0.3826834323651061 0.0
outer loop
vertex 161.09126419258772 139.06632182762598 10.0
vertex 159.4619703086986 143.8660668340505 0.0
vertex 159.4619703086986 143.8660668340505 10.0
endloop
endfacet
facet normal -0.3826834323651059 0.9238795325112801 0.0
outer loop
vertex 211.72057908154792 118.09497294696168 10.0
vertex 216.26659607740066 120.33682043512712 0.0
vertex 211.72057908154792 118.09497294696168 0.0
endloop
endfacet
facet normal -0.5000000000000145 0.8660254037844303 0.0
outer loop
vertex 216.26659607740066 120.33682043512712 0.0
vertex 211.72057908154792 118.09497294696168 10.0
vertex 216.26659607740066 120.33682043512712 10.0
endloop
endfacet
facet normal -0.8660254037844296 -0.5000000000000158 0.0
outer loop
vertex 230.45008047404679 173.27030483177464 10.0
vertex 232.69192796221225 168.72428783592187 0.0
vertex 232.69192796221225 168.72428783592187 10.0
endloop
endfacet
facet normal -0.9238795325112804 -0.38268343236510516 0.0
outer loop
vertex 232.69192796221225 168.72428783592187 0.0
vertex 230.45008047404679 173.27030483177464 10.0
vertex 230.45008047404679 173.27030483177464 0.0
endloop
endfacet
facet normal -0.49999999999998596 -0.8660254037844468 0.0
outer loop
vertex 216.2665960773995 187.4537892284214 10.0
vertex 211.72057908154665 189.69563671658673 0.0
vertex 216.2665960773995 187.4537892284214 0.0
endloop
endfacet
facet normal -0.3826834323650729 -0.9238795325112937 0.0
outer loop
vertex 211.72057908154665 189.69563671658673 0.0
vertex 216.2665960773995 187.4537892284214 10.0
vertex 211.72057908154665 189.69563671658673 10.0
endloop
endfacet
facet normal 0.8660254037844297 0.5000000000000154 0.0
outer loop
vertex 163.33311168075318 134.52030483177325 0.0
vertex 166.1491541411149 130.30579945768534 10.0
vertex 166.1491541411149 130.30579945768534 0.0
endloop
endfacet
facet normal 0.7933533402912248 0.6087614290087344 0.0
outer loop
vertex 166.1491541411149 130.30579945768534 10.0
vertex 163.33311168075318 134.52030483177325 0.0
vertex 163.33311168075318 134.52030483177325 10.0
endloop
endfacet
facet normal 0.9238795325112932 -0.3826834323650745 0.0
outer loop
vertex 161.09126419258718 168.72428783592062 0.0
vertex 159.46197030869823 163.92454282949603 10.0
vertex 159.46197030869823 163.92454282949603 0.0
endloop
endfacet
facet normal 0.9659258262890731 -0.25881904510250286 0.0
outer loop
vertex 159.46197030869823 163.92454282949603 10.0
vertex 161.09126419258718 168.72428783592062 0.0
vertex 161.09126419258718 168.72428783592062 10.0
endloop
endfacet
facet normal 0.9974817288128082 0.07092390770827325 0.0
outer loop
vertex 158.30545473443857 151.19530483177397 0.0
vertex 158.47310769916473 148.83741488324623 10.0
vertex 158.47310769916473 148.83741488324623 0.0
endloop
endfacet
facet normal 0.9910799233909732 0.1332688465146402 0.0
outer loop
vertex 158.47310769916473 148.83741488324623 10.0
vertex 158.30545473443857 151.19530483177397 0.0
vertex 158.30545473443857 151.19530483177397 10.0
endloop
endfacet
facet normal 0.9910799233909732 0.1332688465146402 0.0
outer loop
vertex 158.47310769916473 148.83741488324623 0.0
vertex 159.4619703086986 143.8660668340505 10.0
vertex 159.4619703086986 143.8660668340505 0.0
endloop
endfacet
facet normal 0.9659258262890635 0.25881904510253856 0.0
outer loop
vertex 159.4619703086986 143.8660668340505 10.0
vertex 158.47310769916473 148.83741488324623 0.0
vertex 158.47310769916473 148.83741488324623 10.0
endloop
endfacet
facet normal 0.608761429008705 0.7933533402912472 0.0
outer loop
vertex 173.3020907033125 123.152862895488 10.0
vertex 177.5165960774005 120.33682043512643 0.0
vertex 173.3020907033125 123.152862895488 0.0
endloop
endfacet
facet normal 0.49999999999998457 0.8660254037844477 0.0
outer loop
vertex 177.5165960774005 120.33682043512643 0.0
vertex 173.3020907033125 123.152862895488 10.0
vertex 177.5165960774005 120.33682043512643 10.0
endloop
endfacet
facet normal 0.258819045102503 0.9659258262890731 0.0
outer loop
vertex 186.86235807967793 116.4656790630722 10.0
vertex 191.83370612887364 115.47681645353852 0.0
vertex 186.86235807967793 116.4656790630722 0.0
endloop
endfacet
facet normal 0.1332688465145971 0.9910799233909792 0.0
outer loop
vertex 191.83370612887364 115.47681645353852 0.0
vertex 186.86235807967793 116.4656790630722 10.0
vertex 191.83370612887364 115.47681645353852 10.0
endloop
endfacet
facet normal 0.8660254037844477 -0.4999999999999846 0.0
outer loop
vertex 163.3331116807525 173.27030483177344 0.0
vertex 161.09126419258718 168.72428783592062 10.0
vertex 161.09126419258718 168.72428783592062 0.0
endloop
endfacet
facet normal 0.9238795325112932 -0.3826834323650745 0.0
outer loop
vertex 161.09126419258718 168.72428783592062 10.0
vertex 163.3331116807525 173.27030483177344 0.0
vertex 163.3331116807525 173.27030483177344 10.0
endloop
endfacet
facet normal -0.7071067811865354 -0.7071067811865597 0.0
outer loop
vertex 224.29198384837835 181.29569260275326 10.0
vertex 220.48110145148743 184.63774676805988 0.0
vertex 224.29198384837835 181.29569260275326 0.0
endloop
endfacet
facet normal -0.6087614290087058 -0.7933533402912466 0.0
outer loop
vertex 220.48110145148743 184.63774676805988 0.0
vertex 224.29198384837835 181.29569260275326 10.0
vertex 220.48110145148743 184.63774676805988 10.0
endloop
endfacet
facet normal -0.13326884651463047 0.9910799233909746 0.0
outer loop
vertex 201.94948602592768 115.47681645353869 10.0
vertex 206.9208340751234 116.46567906307256 0.0
vertex 201.94948602592768 115.47681645353869 0.0
endloop
endfacet
facet normal -0.25881904510253934 0.9659258262890634 0.0
outer loop
vertex 206.9208340751234 116.46567906307256 0.0
vertex 201.94948602592768 115.47681645353869 10.0
vertex 206.9208340751234 116.46567906307256 10.0
endloop
endfacet
facet normal 0.258819045102539 -0.9659258262890635 0.0
outer loop
vertex 186.86235807967657 191.3249306004753 10.0
vertex 182.06261307325204 189.6956367165862 0.0
vertex 186.86235807967657 191.3249306004753 0.0
endloop
endfacet
facet normal 0.3826834323651061 -0.9238795325112802 0.0
outer loop
vertex 182.06261307325204 189.6956367165862 0.0
vertex 186.86235807967657 191.3249306004753 10.0
vertex 182.06261307325204 189.6956367165862 10.0
endloop
endfacet
facet normal 0.6593458150996702 -0.751839807479327 0.0
outer loop
vertex 170.49052469507183 182.1720695546814 10.0
vertex 169.49120830642065 181.2956926027523 0.0
vertex 170.49052469507183 182.1720695546814 0.0
endloop
endfacet
facet normal 0.7071067811865533 -0.7071067811865417 0.0
outer loop
vertex 169.49120830642065 181.2956926027523 0.0
vertex 170.49052469507183 182.1720695546814 10.0
vertex 169.49120830642065 181.2956926027523 10.0
endloop
endfacet
facet normal 0.9238795325112802 0.3826834323651061 0.0
outer loop
vertex 161.09126419258772 139.06632182762598 0.0
vertex 163.33311168075318 134.52030483177325 10.0
vertex 163.33311168075318 134.52030483177325 0.0
endloop
endfacet
facet normal 0.8660254037844297 0.5000000000000154 0.0
outer loop
vertex 163.33311168075318 134.52030483177325 10.0
vertex 161.09126419258772 139.06632182762598 0.0
vertex 161.09126419258772 139.06632182762598 10.0
endloop
endfacet
facet normal -0.5000000000000145 0.8660254037844303 0.0
outer loop
vertex 216.26659607740066 120.33682043512712 10.0
vertex 220.48110145148857 123.15286289548885 0.0
vertex 216.26659607740066 120.33682043512712 0.0
endloop
endfacet
facet normal -0.6087614290087331 0.7933533402912257 0.0
outer loop
vertex 220.48110145148857 123.15286289548885 0.0
vertex 216.26659607740066 120.33682043512712 10.0
vertex 220.48110145148857 123.15286289548885 10.0
endloop
endfacet
facet normal -0.6087614290087331 0.7933533402912257 0.0
outer loop
vertex 220.48110145148857 123.15286289548885 10.0
vertex 224.29198384837935 126.49491706079557 0.0
vertex 220.48110145148857 123.15286289548885 0.0
endloop
endfacet
facet normal -0.7071067811865599 0.7071067811865352 0.0
outer loop
vertex 224.29198384837935 126.49491706079557 0.0
vertex 220.48110145148857 123.15286289548885 10.0
vertex 224.29198384837935 126.49491706079557 10.0
endloop
endfacet
facet normal -0.7933533402912467 0.6087614290087057 0.0
outer loop
vertex 227.6340380136859 130.30579945768645 10.0
vertex 224.29198384837935 126.49491706079557 0.0
vertex 224.29198384837935 126.49491706079557 10.0
endloop
endfacet
facet normal -0.7071067811865599 0.7071067811865352 0.0
outer loop
vertex 224.29198384837935 126.49491706079557 0.0
vertex 227.6340380136859 130.30579945768645 10.0
vertex 227.6340380136859 130.30579945768645 0.0
endloop
endfacet
facet normal -0.965925826289063 -0.25881904510254117 0.0
outer loop
vertex 234.32122184610137 163.92454282949734 10.0
vertex 235.31008445563523 158.95319478030166 0.0
vertex 235.31008445563523 158.95319478030166 10.0
endloop
endfacet
facet normal -0.9910799233909741 -0.1332688465146334 0.0
outer loop
vertex 235.31008445563523 158.95319478030166 0.0
vertex 234.32122184610137 163.92454282949734 10.0
vertex 234.32122184610137 163.92454282949734 0.0
endloop
endfacet
facet normal -0.8660254037844483 0.4999999999999833 0.0
outer loop
vertex 230.4500804740475 134.52030483177447 10.0
vertex 227.6340380136859 130.30579945768645 0.0
vertex 227.6340380136859 130.30579945768645 10.0
endloop
endfacet
facet normal -0.7933533402912467 0.6087614290087057 0.0
outer loop
vertex 227.6340380136859 130.30579945768645 0.0
vertex 230.4500804740475 134.52030483177447 10.0
vertex 230.4500804740475 134.52030483177447 0.0
endloop
endfacet
facet normal -0.9238795325112946 0.3826834323650708 0.0
outer loop
vertex 232.6919279622128 139.0663218276273 10.0
vertex 230.4500804740475 134.52030483177447 0.0
vertex 230.4500804740475 134.52030483177447 10.0
endloop
endfacet
facet normal -0.8660254037844483 0.4999999999999833 0.0
outer loop
vertex 230.4500804740475 134.52030483177447 0.0
vertex 232.6919279622128 139.0663218276273 10.0
vertex 232.6919279622128 139.0663218276273 0.0
endloop
endfacet
facet normal -0.9238795325112804 -0.38268343236510516 0.0
outer loop
vertex 232.69192796221225 168.72428783592187 10.0
vertex 234.32122184610137 163.92454282949734 0.0
vertex 234.32122184610137 163.92454282949734 10.0
endloop
endfacet
facet normal -0.965925826289063 -0.25881904510254117 0.0
outer loop
vertex 234.32122184610137 163.92454282949734 0.0
vertex 232.69192796221225 168.72428783592187 10.0
vertex 232.69192796221225 168.72428783592187 0.0
endloop
endfacet
facet normal 0.7518398074788648 -0.6593458151001972 0.0
outer loop
vertex 168.61483135449242 180.29637621410208 0.0
vertex 166.14915414111402 177.48481020586144 10.0
vertex 166.14915414111402 177.48481020586144 0.0
endloop
endfacet
facet normal 0.7933533402911901 -0.6087614290087796 0.0
outer loop
vertex 166.14915414111402 177.48481020586144 10.0
vertex 168.61483135449242 180.29637621410208 0.0
vertex 168.61483135449242 180.29637621410208 10.0
endloop
endfacet
facet normal 0.7071067811865341 0.707106781186561 0.0
outer loop
vertex 169.49120830642164 126.49491706079458 10.0
vertex 173.3020907033125 123.152862895488 0.0
vertex 169.49120830642164 126.49491706079458 0.0
endloop
endfacet
facet normal 0.608761429008705 0.7933533402912472 0.0
outer loop
vertex 173.3020907033125 123.152862895488 0.0
vertex 169.49120830642164 126.49491706079458 10.0
vertex 173.3020907033125 123.152862895488 10.0
endloop
endfacet
facet normal -0.7933533402912248 -0.6087614290087341 0.0
outer loop
vertex 227.63403801368506 177.48481020586252 10.0
vertex 230.45008047404679 173.27030483177464 0.0
vertex 230.45008047404679 173.27030483177464 10.0
endloop
endfacet
facet normal -0.8660254037844296 -0.5000000000000158 0.0
outer loop
vertex 230.45008047404679 173.27030483177464 0.0
vertex 227.63403801368506 177.48481020586252 10.0
vertex 227.63403801368506 177.48481020586252 0.0
endloop
endfacet
endsolid focus_adapter_ring_v1
