solid focus_adapter_ring_v1
facet normal -1.0 0.0 0.0
outer loop
vertex 64.10191249666545 26.701836656740724 20.0
vertex 64.10191249666545 23.537977999702626 0.0
vertex 64.10191249666545 23.537977999702626 20.0
endloop
endfacet
facet normal -1.0 0.0 0.0
outer loop
vertex 64.10191249666545 23.537977999702626 0.0
vertex 64.10191249666545 26.701836656740724 20.0
vertex 64.10191249666545 26.701836656740724 0.0
endloop
endfacet
facet normal 1.0 0.0 0.0
outer loop
vertex 108.35191249666501 67.78797799970205 0.0
vertex 108.35191249666501 62.78797799970206 20.0
vertex 108.35191249666501 62.78797799970206 0.0
endloop
endfacet
facet normal 1.0 0.0 0.0
outer loop
vertex 108.35191249666501 62.78797799970206 20.0
vertex 108.35191249666501 67.78797799970205 0.0
vertex 108.35191249666501 67.78797799970205 20.0
endloop
endfacet
facet normal 0.0 1.0 0.0
outer loop
vertex 105.18805383962687 67.78797799970205 20.0
vertex 108.35191249666501 67.78797799970205 0.0
vertex 105.18805383962687 67.78797799970205 0.0
endloop
endfacet
facet normal 0.0 1.0 0.0
outer loop
vertex 108.35191249666501 67.78797799970205 0.0
vertex 105.18805383962687 67.78797799970205 20.0
vertex 108.35191249666501 67.78797799970205 20.0
endloop
endfacet
facet normal 0.0 1.0 0.0
outer loop
vertex 24.851912496665978 67.78797799970212 20.0
vertex 28.01577115370407 67.78797799970212 0.0
vertex 24.851912496665978 67.78797799970212 0.0
endloop
endfacet
facet normal 0.0 1.0 0.0
outer loop
vertex 28.01577115370407 67.78797799970212 0.0
vertex 24.851912496665978 67.78797799970212 20.0
vertex 28.01577115370407 67.78797799970212 20.0
endloop
endfacet
facet normal 0.0 -1.0 0.0
outer loop
vertex 69.10191249666543 23.537977999702626 20.0
vertex 64.10191249666545 23.537977999702626 0.0
vertex 69.10191249666543 23.537977999702626 0.0
endloop
endfacet
facet normal 0.0 -1.0 0.0
outer loop
vertex 64.10191249666545 23.537977999702626 0.0
vertex 69.10191249666543 23.537977999702626 20.0
vertex 64.10191249666545 23.537977999702626 20.0
endloop
endfacet
facet normal -1.0 -0.0 -0.0
outer loop
vertex 24.851912496665978 67.78797799970212 20.0
vertex 24.851912496665978 62.78797799970213 0.0
vertex 24.851912496665978 62.78797799970213 20.0
endloop
endfacet
facet normal -1.0 -0.0 -0.0
outer loop
vertex 24.851912496665978 62.78797799970213 0.0
vertex 24.851912496665978 67.78797799970212 20.0
vertex 24.851912496665978 67.78797799970212 0.0
endloop
endfacet
facet normal 0.0 -1.0 0.0
outer loop
vertex 28.01577115370408 62.78797799970213 20.0
vertex 24.851912496665978 62.78797799970213 0.0
vertex 28.01577115370408 62.78797799970213 0.0
endloop
endfacet
facet normal 0.0 -1.0 0.0
outer loop
vertex 24.851912496665978 62.78797799970213 0.0
vertex 28.01577115370408 62.78797799970213 20.0
vertex 24.851912496665978 62.78797799970213 20.0
endloop
endfacet
facet normal 1.0 0.0 0.0
outer loop
vertex 69.10191249666543 26.701836656740724 0.0
vertex 69.10191249666543 23.537977999702626 20.0
vertex 69.10191249666543 23.537977999702626 0.0
endloop
endfacet
facet normal 1.0 0.0 0.0
outer loop
vertex 69.10191249666543 23.537977999702626 20.0
vertex 69.10191249666543 26.701836656740724 0.0
vertex 69.10191249666543 26.701836656740724 20.0
endloop
endfacet
facet normal 0.0 -1.0 0.0
outer loop
vertex 108.35191249666501 62.78797799970206 20.0
vertex 105.18805383962689 62.78797799970206 0.0
vertex 108.35191249666501 62.78797799970206 0.0
endloop
endfacet
facet normal 0.0 -1.0 0.0
outer loop
vertex 105.18805383962689 62.78797799970206 0.0
vertex 108.35191249666501 62.78797799970206 20.0
vertex 105.18805383962689 62.78797799970206 20.0
endloop
endfacet
facet normal 1.113765063588814e-31 4.8189610888212766e-32 1.0
outer loop
vertex 69.10191249666543 23.537977999702626 20.0
vertex 64.10191249666545 26.701836656740724 20.0
vertex 64.10191249666545 23.537977999702626 20.0
endloop
endfacet
facet normal 1.113765063588814e-31 4.8189610888212766e-32 1.0
outer loop
vertex 64.10191249666545 26.701836656740724 20.0
vertex 69.10191249666543 23.537977999702626 20.0
vertex 66.60191249666543 29.73797799970199 20.0
endloop
endfacet
facet normal 1.113765063588814e-31 4.8189610888212766e-32 1.0
outer loop
vertex 66.60191249666543 29.73797799970199 20.0
vertex 69.10191249666543 23.537977999702626 20.0
vertex 69.10191249666543 26.701836656740724 20.0
endloop
endfacet
facet normal 1.113765063588814e-31 4.8189610888212766e-32 1.0
outer loop
vertex 66.60191249666543 29.73797799970199 20.0
vertex 69.10191249666543 26.701836656740724 20.0
vertex 71.24211863008829 30.042113177863055 20.0
endloop
endfacet
facet normal 1.113765063588814e-31 4.8189610888212766e-32 1.0
outer loop
vertex 71.24211863008829 30.042113177863055 20.0
vertex 69.10191249666543 26.701836656740724 20.0
vertex 71.65980244519241 26.869489621467473 20.0
endloop
endfacet
facet normal 1.113765063588814e-31 4.8189610888212766e-32 1.0
outer loop
vertex 71.24211863008829 30.042113177863055 20.0
vertex 71.65980244519241 26.869489621467473 20.0
vertex 75.80292955006007 30.94931487512563 20.0
endloop
endfacet
facet normal 1.113765063588814e-31 4.8189610888212766e-32 1.0
outer loop
vertex 75.80292955006007 30.94931487512563 20.0
vertex 71.65980244519241 26.869489621467473 20.0
vertex 76.63115049438798 27.858352231001227 20.0
endloop
endfacet
facet normal 1.113765063588814e-31 4.8189610888212766e-32 1.0
outer loop
vertex 75.80292955006007 30.94931487512563 20.0
vertex 76.63115049438798 27.858352231001227 20.0
vertex 80.2063085172444 32.44406061892577 20.0
endloop
endfacet
facet normal 1.113765063588814e-31 4.8189610888212766e-32 1.0
outer loop
vertex 80.2063085172444 32.44406061892577 20.0
vertex 76.63115049438798 27.858352231001227 20.0
vertex 81.43089550081243 29.487646114890246 20.0
endloop
endfacet
facet normal 1.113765063588814e-31 4.8189610888212766e-32 1.0
outer loop
vertex 80.2063085172444 32.44406061892577 20.0
vertex 81.43089550081243 29.487646114890246 20.0
vertex 84.37691249666547 34.50077489516523 20.0
endloop
endfacet
facet normal 1.113765063588814e-31 4.8189610888212766e-32 1.0
outer loop
vertex 84.37691249666547 34.50077489516523 20.0
vertex 81.43089550081243 29.487646114890246 20.0
vertex 85.97691249666514 31.729493603055566 20.0
endloop
endfacet
facet normal 1.113765063588814e-31 4.8189610888212766e-32 1.0
outer loop
vertex 84.37691249666547 34.50077489516523 20.0
vertex 85.97691249666514 31.729493603055566 20.0
vertex 88.24338129792551 37.0842667523486 20.0
endloop
endfacet
facet normal 1.113765063588814e-31 4.8189610888212766e-32 1.0
outer loop
vertex 88.24338129792551 37.0842667523486 20.0
vertex 85.97691249666514 31.729493603055566 20.0
vertex 90.191417870753 34.54553606341715 20.0
endloop
endfacet
facet normal 1.113765063588814e-31 4.8189610888212766e-32 1.0
outer loop
vertex 88.24338129792551 37.0842667523486 20.0
vertex 90.191417870753 34.54553606341715 20.0
vertex 91.73955856784731 40.15033192852025 20.0
endloop
endfacet
facet normal 1.113765063588814e-31 4.8189610888212766e-32 1.0
outer loop
vertex 91.73955856784731 40.15033192852025 20.0
vertex 90.191417870753 34.54553606341715 20.0
vertex 94.00230026764382 37.8875902287238 20.0
endloop
endfacet
facet normal 1.113765063588814e-31 4.8189610888212766e-32 1.0
outer loop
vertex 91.73955856784731 40.15033192852025 20.0
vertex 94.00230026764382 37.8875902287238 20.0
vertex 94.8056237440189 43.64650919844202 20.0
endloop
endfacet
facet normal 1.113765063588814e-31 4.8189610888212766e-32 1.0
outer loop
vertex 94.8056237440189 43.64650919844202 20.0
vertex 94.00230026764382 37.8875902287238 20.0
vertex 97.34435443295031 41.698472625614514 20.0
endloop
endfacet
facet normal 1.113765063588814e-31 4.8189610888212766e-32 1.0
outer loop
vertex 94.8056237440189 43.64650919844202 20.0
vertex 97.34435443295031 41.698472625614514 20.0
vertex 97.38911560120232 47.512977999702045 20.0
endloop
endfacet
facet normal 1.113765063588814e-31 4.8189610888212766e-32 1.0
outer loop
vertex 97.38911560120232 47.512977999702045 20.0
vertex 97.34435443295031 41.698472625614514 20.0
vertex 100.160396893312 45.91297799970238 20.0
endloop
endfacet
facet normal 1.113765063588814e-31 4.8189610888212766e-32 1.0
outer loop
vertex 97.38911560120232 47.512977999702045 20.0
vertex 100.160396893312 45.91297799970238 20.0
vertex 99.44582987744175 51.683581979123154 20.0
endloop
endfacet
facet normal 1.113765063588814e-31 4.8189610888212766e-32 1.0
outer loop
vertex 99.44582987744175 51.683581979123154 20.0
vertex 100.160396893312 45.91297799970238 20.0
vertex 100.94057562124188 56.086960946307464 20.0
endloop
endfacet
facet normal 1.113765063588814e-31 4.8189610888212766e-32 1.0
outer loop
vertex 100.94057562124188 56.086960946307464 20.0
vertex 100.160396893312 45.91297799970238 20.0
vertex 102.40224438147743 50.458994995555045 20.0
endloop
endfacet
facet normal 1.113765063588814e-31 4.8189610888212766e-32 1.0
outer loop
vertex 100.94057562124188 56.086960946307464 20.0
vertex 102.40224438147743 50.458994995555045 20.0
vertex 101.8477773185045 60.64777186627927 20.0
endloop
endfacet
facet normal 1.113765063588814e-31 4.8189610888212766e-32 1.0
outer loop
vertex 101.8477773185045 60.64777186627927 20.0
vertex 102.40224438147743 50.458994995555045 20.0
vertex 102.15191249666555 65.28797799970212 20.0
endloop
endfacet
facet normal 1.113765063588814e-31 4.8189610888212766e-32 1.0
outer loop
vertex 102.15191249666555 65.28797799970212 20.0
vertex 102.40224438147743 50.458994995555045 20.0
vertex 102.40224438147729 80.11696100384914 20.0
endloop
endfacet
facet normal 1.113765063588814e-31 4.8189610888212766e-32 1.0
outer loop
vertex 102.40224438147729 80.11696100384914 20.0
vertex 102.40224438147743 50.458994995555045 20.0
vertex 104.03153826536634 75.31721599742463 20.0
endloop
endfacet
facet normal 1.113765063588814e-31 4.8189610888212766e-32 1.0
outer loop
vertex 104.03153826536634 75.31721599742463 20.0
vertex 102.40224438147743 50.458994995555045 20.0
vertex 104.03153826536636 55.25874000197955 20.0
endloop
endfacet
facet normal 1.113765063588814e-31 4.8189610888212766e-32 1.0
outer loop
vertex 104.03153826536634 75.31721599742463 20.0
vertex 104.03153826536636 55.25874000197955 20.0
vertex 105.02040087490005 70.34586794822907 20.0
endloop
endfacet
facet normal 1.113765063588814e-31 4.8189610888212766e-32 1.0
outer loop
vertex 105.02040087490005 70.34586794822907 20.0
vertex 104.03153826536636 55.25874000197955 20.0
vertex 105.02040087490009 60.23008805117514 20.0
endloop
endfacet
facet normal 1.113765063588814e-31 4.8189610888212766e-32 1.0
outer loop
vertex 105.02040087490005 70.34586794822907 20.0
vertex 105.02040087490009 60.23008805117514 20.0
vertex 105.18805383962687 67.78797799970205 20.0
endloop
endfacet
facet normal 1.113765063588814e-31 4.8189610888212766e-32 1.0
outer loop
vertex 105.18805383962687 67.78797799970205 20.0
vertex 105.02040087490009 60.23008805117514 20.0
vertex 105.18805383962689 62.78797799970206 20.0
endloop
endfacet
facet normal 1.113765063588814e-31 4.8189610888212766e-32 1.0
outer loop
vertex 105.18805383962687 67.78797799970205 20.0
vertex 105.18805383962689 62.78797799970206 20.0
vertex 108.35191249666501 67.78797799970205 20.0
endloop
endfacet
facet normal 1.113765063588814e-31 4.8189610888212766e-32 1.0
outer loop
vertex 108.35191249666501 67.78797799970205 20.0
vertex 105.18805383962689 62.78797799970206 20.0
vertex 108.35191249666501 62.78797799970206 20.0
endloop
endfacet
facet normal 1.113765063588814e-31 4.8189610888212766e-32 1.0
outer loop
vertex 71.2421186300883 100.5338428215411 20.0
vertex 69.10191249666546 103.87411934266345 20.0
vertex 66.60191249666552 100.83797799970218 20.0
endloop
endfacet
facet normal 1.113765063588814e-31 4.8189610888212766e-32 1.0
outer loop
vertex 69.10191249666546 103.87411934266345 20.0
vertex 71.2421186300883 100.5338428215411 20.0
vertex 71.65980244519238 103.70646637793666 20.0
endloop
endfacet
facet normal 1.113765063588814e-31 4.8189610888212766e-32 1.0
outer loop
vertex 71.65980244519238 103.70646637793666 20.0
vertex 71.2421186300883 100.5338428215411 20.0
vertex 75.80292955006014 99.62664112427855 20.0
endloop
endfacet
facet normal 1.113765063588814e-31 4.8189610888212766e-32 1.0
outer loop
vertex 71.65980244519238 103.70646637793666 20.0
vertex 75.80292955006014 99.62664112427855 20.0
vertex 76.63115049438798 102.71760376840297 20.0
endloop
endfacet
facet normal 1.113765063588814e-31 4.8189610888212766e-32 1.0
outer loop
vertex 76.63115049438798 102.71760376840297 20.0
vertex 75.80292955006014 99.62664112427855 20.0
vertex 80.20630851724444 98.1318953804784 20.0
endloop
endfacet
facet normal 1.113765063588814e-31 4.8189610888212766e-32 1.0
outer loop
vertex 76.63115049438798 102.71760376840297 20.0
vertex 80.20630851724444 98.1318953804784 20.0
vertex 81.43089550081244 101.08830988451386 20.0
endloop
endfacet
facet normal 1.113765063588814e-31 4.8189610888212766e-32 1.0
outer loop
vertex 81.43089550081244 101.08830988451386 20.0
vertex 80.20630851724444 98.1318953804784 20.0
vertex 84.37691249666554 96.07518110423901 20.0
endloop
endfacet
facet normal 1.113765063588814e-31 4.8189610888212766e-32 1.0
outer loop
vertex 81.43089550081244 101.08830988451386 20.0
vertex 84.37691249666554 96.07518110423901 20.0
vertex 85.97691249666518 98.84646239634856 20.0
endloop
endfacet
facet normal 1.113765063588814e-31 4.8189610888212766e-32 1.0
outer loop
vertex 85.97691249666518 98.84646239634856 20.0
vertex 84.37691249666554 96.07518110423901 20.0
vertex 88.24338129792554 93.49168924705556 20.0
endloop
endfacet
facet normal 1.113765063588814e-31 4.8189610888212766e-32 1.0
outer loop
vertex 85.97691249666518 98.84646239634856 20.0
vertex 88.24338129792554 93.49168924705556 20.0
vertex 90.19141787075309 96.03041993598697 20.0
endloop
endfacet
facet normal 1.113765063588814e-31 4.8189610888212766e-32 1.0
outer loop
vertex 90.19141787075309 96.03041993598697 20.0
vertex 88.24338129792554 93.49168924705556 20.0
vertex 91.7395585678473 90.42562407088393 20.0
endloop
endfacet
facet normal 1.113765063588814e-31 4.8189610888212766e-32 1.0
outer loop
vertex 90.19141787075309 96.03041993598697 20.0
vertex 91.7395585678473 90.42562407088393 20.0
vertex 94.00230026764378 92.68836577068042 20.0
endloop
endfacet
facet normal 1.113765063588814e-31 4.8189610888212766e-32 1.0
outer loop
vertex 94.00230026764378 92.68836577068042 20.0
vertex 91.7395585678473 90.42562407088393 20.0
vertex 94.805623744019 86.92944680096215 20.0
endloop
endfacet
facet normal 1.113765063588814e-31 4.8189610888212766e-32 1.0
outer loop
vertex 94.00230026764378 92.68836577068042 20.0
vertex 94.805623744019 86.92944680096215 20.0
vertex 97.34435443295041 88.87748337378966 20.0
endloop
endfacet
facet normal 1.113765063588814e-31 4.8189610888212766e-32 1.0
outer loop
vertex 97.34435443295041 88.87748337378966 20.0
vertex 94.805623744019 86.92944680096215 20.0
vertex 97.38911560120232 83.06297799970211 20.0
endloop
endfacet
facet normal 1.113765063588814e-31 4.8189610888212766e-32 1.0
outer loop
vertex 97.34435443295041 88.87748337378966 20.0
vertex 97.38911560120232 83.06297799970211 20.0
vertex 100.16039689331195 84.66297799970177 20.0
endloop
endfacet
facet normal 1.113765063588814e-31 4.8189610888212766e-32 1.0
outer loop
vertex 100.16039689331195 84.66297799970177 20.0
vertex 97.38911560120232 83.06297799970211 20.0
vertex 99.44582987744181 78.89237402028104 20.0
endloop
endfacet
facet normal 1.113765063588814e-31 4.8189610888212766e-32 1.0
outer loop
vertex 100.16039689331195 84.66297799970177 20.0
vertex 99.44582987744181 78.89237402028104 20.0
vertex 100.94057562124192 74.48899505309673 20.0
endloop
endfacet
facet normal 1.113765063588814e-31 4.8189610888212766e-32 1.0
outer loop
vertex 100.16039689331195 84.66297799970177 20.0
vertex 100.94057562124192 74.48899505309673 20.0
vertex 102.40224438147729 80.11696100384914 20.0
endloop
endfacet
facet normal 1.113765063588814e-31 4.8189610888212766e-32 1.0
outer loop
vertex 102.40224438147729 80.11696100384914 20.0
vertex 100.94057562124192 74.48899505309673 20.0
vertex 101.84777731850446 69.92818413312493 20.0
endloop
endfacet
facet normal 1.113765063588814e-31 4.8189610888212766e-32 1.0
outer loop
vertex 102.40224438147729 80.11696100384914 20.0
vertex 101.84777731850446 69.92818413312493 20.0
vertex 102.15191249666555 65.28797799970212 20.0
endloop
endfacet
facet normal 1.113765063588814e-31 4.8189610888212766e-32 1.0
outer loop
vertex 42.306230250649364 91.1640065282456 20.0
vertex 43.01240712257792 96.03041993598698 20.0
vertex 40.20084111433736 93.56474272260951 20.0
endloop
endfacet
facet normal 1.113765063588814e-31 4.8189610888212766e-32 1.0
outer loop
vertex 43.01240712257792 96.03041993598698 20.0
vertex 42.306230250649364 91.1640065282456 20.0
vertex 44.960443695405424 93.49168924705559 20.0
endloop
endfacet
facet normal 1.113765063588814e-31 4.8189610888212766e-32 1.0
outer loop
vertex 43.01240712257792 96.03041993598698 20.0
vertex 44.960443695405424 93.49168924705559 20.0
vertex 47.22691249666577 98.8464623963486 20.0
endloop
endfacet
facet normal 1.113765063588814e-31 4.8189610888212766e-32 1.0
outer loop
vertex 47.22691249666577 98.8464623963486 20.0
vertex 44.960443695405424 93.49168924705559 20.0
vertex 48.826912496665436 96.07518110423898 20.0
endloop
endfacet
facet normal 1.113765063588814e-31 4.8189610888212766e-32 1.0
outer loop
vertex 47.22691249666577 98.8464623963486 20.0
vertex 48.826912496665436 96.07518110423898 20.0
vertex 51.772929492518436 101.08830988451393 20.0
endloop
endfacet
facet normal 1.113765063588814e-31 4.8189610888212766e-32 1.0
outer loop
vertex 51.772929492518436 101.08830988451393 20.0
vertex 48.826912496665436 96.07518110423898 20.0
vertex 52.997516476086496 98.13189538047845 20.0
endloop
endfacet
facet normal 1.113765063588814e-31 4.8189610888212766e-32 1.0
outer loop
vertex 51.772929492518436 101.08830988451393 20.0
vertex 52.997516476086496 98.13189538047845 20.0
vertex 56.57267449894294 102.71760376840288 20.0
endloop
endfacet
facet normal 1.113765063588814e-31 4.8189610888212766e-32 1.0
outer loop
vertex 56.57267449894294 102.71760376840288 20.0
vertex 52.997516476086496 98.13189538047845 20.0
vertex 57.40089544327083 99.62664112427855 20.0
endloop
endfacet
facet normal 1.113765063588814e-31 4.8189610888212766e-32 1.0
outer loop
vertex 56.57267449894294 102.71760376840288 20.0
vertex 57.40089544327083 99.62664112427855 20.0
vertex 61.54402254813857 103.70646637793668 20.0
endloop
endfacet
facet normal 1.113765063588814e-31 4.8189610888212766e-32 1.0
outer loop
vertex 61.54402254813857 103.70646637793668 20.0
vertex 57.40089544327083 99.62664112427855 20.0
vertex 61.96170636324264 100.53384282154111 20.0
endloop
endfacet
facet normal 1.113765063588814e-31 4.8189610888212766e-32 1.0
outer loop
vertex 61.54402254813857 103.70646637793668 20.0
vertex 61.96170636324264 100.53384282154111 20.0
vertex 64.10191249666548 103.87411934266348 20.0
endloop
endfacet
facet normal 1.113765063588814e-31 4.8189610888212766e-32 1.0
outer loop
vertex 64.10191249666548 103.87411934266348 20.0
vertex 61.96170636324264 100.53384282154111 20.0
vertex 66.60191249666552 100.83797799970218 20.0
endloop
endfacet
facet normal 1.113765063588814e-31 4.8189610888212766e-32 1.0
outer loop
vertex 64.10191249666548 103.87411934266348 20.0
vertex 66.60191249666552 100.83797799970218 20.0
vertex 64.10191249666548 107.0379779997016 20.0
endloop
endfacet
facet normal 1.113765063588814e-31 4.8189610888212766e-32 1.0
outer loop
vertex 64.10191249666548 107.0379779997016 20.0
vertex 66.60191249666552 100.83797799970218 20.0
vertex 69.10191249666546 107.0379779997016 20.0
endloop
endfacet
facet normal 1.113765063588814e-31 4.8189610888212766e-32 1.0
outer loop
vertex 69.10191249666546 107.0379779997016 20.0
vertex 66.60191249666552 100.83797799970218 20.0
vertex 69.10191249666546 103.87411934266345 20.0
endloop
endfacet
facet normal 1.113765063588814e-31 4.8189610888212766e-32 1.0
outer loop
vertex 28.01577115370408 62.78797799970213 20.0
vertex 24.851912496665978 67.78797799970212 20.0
vertex 24.851912496665978 62.78797799970213 20.0
endloop
endfacet
facet normal 1.113765063588814e-31 4.8189610888212766e-32 1.0
outer loop
vertex 24.851912496665978 67.78797799970212 20.0
vertex 28.01577115370408 62.78797799970213 20.0
vertex 28.01577115370407 67.78797799970212 20.0
endloop
endfacet
facet normal 1.113765063588814e-31 4.8189610888212766e-32 1.0
outer loop
vertex 28.01577115370407 67.78797799970212 20.0
vertex 28.01577115370408 62.78797799970213 20.0
vertex 28.183424118430832 70.34586794822906 20.0
endloop
endfacet
facet normal 1.113765063588814e-31 4.8189610888212766e-32 1.0
outer loop
vertex 28.183424118430832 70.34586794822906 20.0
vertex 28.01577115370408 62.78797799970213 20.0
vertex 28.183424118430832 60.23008805117518 20.0
endloop
endfacet
facet normal 1.113765063588814e-31 4.8189610888212766e-32 1.0
outer loop
vertex 28.183424118430832 70.34586794822906 20.0
vertex 28.183424118430832 60.23008805117518 20.0
vertex 29.17228672796457 55.25874000197957 20.0
endloop
endfacet
facet normal 1.113765063588814e-31 4.8189610888212766e-32 1.0
outer loop
vertex 28.183424118430832 70.34586794822906 20.0
vertex 29.17228672796457 55.25874000197957 20.0
vertex 29.172286727964583 75.31721599742467 20.0
endloop
endfacet
facet normal 1.113765063588814e-31 4.8189610888212766e-32 1.0
outer loop
vertex 29.172286727964583 75.31721599742467 20.0
vertex 29.17228672796457 55.25874000197957 20.0
vertex 30.801580611853552 50.45899499555512 20.0
endloop
endfacet
facet normal 1.113765063588814e-31 4.8189610888212766e-32 1.0
outer loop
vertex 29.172286727964583 75.31721599742467 20.0
vertex 30.801580611853552 50.45899499555512 20.0
vertex 30.801580611853616 80.11696100384916 20.0
endloop
endfacet
facet normal 1.113765063588814e-31 4.8189610888212766e-32 1.0
outer loop
vertex 30.801580611853616 80.11696100384916 20.0
vertex 30.801580611853552 50.45899499555512 20.0
vertex 31.05191249666537 65.28797799970218 20.0
endloop
endfacet
facet normal 1.113765063588814e-31 4.8189610888212766e-32 1.0
outer loop
vertex 31.05191249666537 65.28797799970218 20.0
vertex 30.801580611853552 50.45899499555512 20.0
vertex 31.356047674826424 60.64777186627931 20.0
endloop
endfacet
facet normal 1.113765063588814e-31 4.8189610888212766e-32 1.0
outer loop
vertex 31.356047674826424 60.64777186627931 20.0
vertex 30.801580611853552 50.45899499555512 20.0
vertex 33.043428100018915 45.912977999702385 20.0
endloop
endfacet
facet normal 1.113765063588814e-31 4.8189610888212766e-32 1.0
outer loop
vertex 31.356047674826424 60.64777186627931 20.0
vertex 33.043428100018915 45.912977999702385 20.0
vertex 32.26324937208897 56.08696094630748 20.0
endloop
endfacet
facet normal 1.113765063588814e-31 4.8189610888212766e-32 1.0
outer loop
vertex 32.26324937208897 56.08696094630748 20.0
vertex 33.043428100018915 45.912977999702385 20.0
vertex 33.75799511588912 51.68358197912316 20.0
endloop
endfacet
facet normal 1.113765063588814e-31 4.8189610888212766e-32 1.0
outer loop
vertex 33.75799511588912 51.68358197912316 20.0
vertex 33.043428100018915 45.912977999702385 20.0
vertex 35.85947056038048 41.69847262561452 20.0
endloop
endfacet
facet normal 1.113765063588814e-31 4.8189610888212766e-32 1.0
outer loop
vertex 33.75799511588912 51.68358197912316 20.0
vertex 35.85947056038048 41.69847262561452 20.0
vertex 35.81470939212854 47.5129779997021 20.0
endloop
endfacet
facet normal 1.113765063588814e-31 4.8189610888212766e-32 1.0
outer loop
vertex 35.81470939212854 47.5129779997021 20.0
vertex 35.85947056038048 41.69847262561452 20.0
vertex 38.39820124931197 43.64650919844205 20.0
endloop
endfacet
facet normal 1.113765063588814e-31 4.8189610888212766e-32 1.0
outer loop
vertex 38.39820124931197 43.64650919844205 20.0
vertex 35.85947056038048 41.69847262561452 20.0
vertex 39.2015247256871 37.88759022872379 20.0
endloop
endfacet
facet normal 1.113765063588814e-31 4.8189610888212766e-32 1.0
outer loop
vertex 38.39820124931197 43.64650919844205 20.0
vertex 39.2015247256871 37.88759022872379 20.0
vertex 41.464266425483636 40.150331928520266 20.0
endloop
endfacet
facet normal 1.113765063588814e-31 4.8189610888212766e-32 1.0
outer loop
vertex 41.464266425483636 40.150331928520266 20.0
vertex 39.2015247256871 37.88759022872379 20.0
vertex 43.01240712257784 34.54553606341717 20.0
endloop
endfacet
facet normal 1.113765063588814e-31 4.8189610888212766e-32 1.0
outer loop
vertex 41.464266425483636 40.150331928520266 20.0
vertex 43.01240712257784 34.54553606341717 20.0
vertex 44.96044369540535 37.08426675234862 20.0
endloop
endfacet
facet normal 1.113765063588814e-31 4.8189610888212766e-32 1.0
outer loop
vertex 44.96044369540535 37.08426675234862 20.0
vertex 43.01240712257784 34.54553606341717 20.0
vertex 47.226912496665726 31.72949360305553 20.0
endloop
endfacet
facet normal 1.113765063588814e-31 4.8189610888212766e-32 1.0
outer loop
vertex 44.96044369540535 37.08426675234862 20.0
vertex 47.226912496665726 31.72949360305553 20.0
vertex 48.82691249666541 34.50077489516524 20.0
endloop
endfacet
facet normal 1.113765063588814e-31 4.8189610888212766e-32 1.0
outer loop
vertex 48.82691249666541 34.50077489516524 20.0
vertex 47.226912496665726 31.72949360305553 20.0
vertex 51.77292949251842 29.48764611489025 20.0
endloop
endfacet
facet normal 1.113765063588814e-31 4.8189610888212766e-32 1.0
outer loop
vertex 48.82691249666541 34.50077489516524 20.0
vertex 51.77292949251842 29.48764611489025 20.0
vertex 52.99751647608647 32.44406061892577 20.0
endloop
endfacet
facet normal 1.113765063588814e-31 4.8189610888212766e-32 1.0
outer loop
vertex 52.99751647608647 32.44406061892577 20.0
vertex 51.77292949251842 29.48764611489025 20.0
vertex 56.572674498942895 27.858352231001188 20.0
endloop
endfacet
facet normal 1.113765063588814e-31 4.8189610888212766e-32 1.0
outer loop
vertex 52.99751647608647 32.44406061892577 20.0
vertex 56.572674498942895 27.858352231001188 20.0
vertex 57.40089544327081 30.949314875125655 20.0
endloop
endfacet
facet normal 1.113765063588814e-31 4.8189610888212766e-32 1.0
outer loop
vertex 57.40089544327081 30.949314875125655 20.0
vertex 56.572674498942895 27.858352231001188 20.0
vertex 61.544022548138486 26.869489621467473 20.0
endloop
endfacet
facet normal 1.113765063588814e-31 4.8189610888212766e-32 1.0
outer loop
vertex 57.40089544327081 30.949314875125655 20.0
vertex 61.544022548138486 26.869489621467473 20.0
vertex 61.96170636324259 30.04211317786306 20.0
endloop
endfacet
facet normal 1.113765063588814e-31 4.8189610888212766e-32 1.0
outer loop
vertex 61.96170636324259 30.04211317786306 20.0
vertex 61.544022548138486 26.869489621467473 20.0
vertex 64.10191249666545 26.701836656740724 20.0
endloop
endfacet
facet normal 1.113765063588814e-31 4.8189610888212766e-32 1.0
outer loop
vertex 61.96170636324259 30.04211317786306 20.0
vertex 64.10191249666545 26.701836656740724 20.0
vertex 66.60191249666543 29.73797799970199 20.0
endloop
endfacet
facet normal 1.113765063588814e-31 4.8189610888212766e-32 1.0
outer loop
vertex 30.801580611853616 80.11696100384916 20.0
vertex 31.356047674826417 69.92818413312499 20.0
vertex 33.04342810001895 84.6629779997019 20.0
endloop
endfacet
facet normal 1.113765063588814e-31 4.8189610888212766e-32 1.0
outer loop
vertex 31.356047674826417 69.92818413312499 20.0
vertex 30.801580611853616 80.11696100384916 20.0
vertex 31.05191249666537 65.28797799970218 20.0
endloop
endfacet
facet normal 1.113765063588814e-31 4.8189610888212766e-32 1.0
outer loop
vertex 33.04342810001895 84.6629779997019 20.0
vertex 31.356047674826417 69.92818413312499 20.0
vertex 32.26324937208899 74.48899505309677 20.0
endloop
endfacet
facet normal 1.113765063588814e-31 4.8189610888212766e-32 1.0
outer loop
vertex 33.04342810001895 84.6629779997019 20.0
vertex 32.26324937208899 74.48899505309677 20.0
vertex 33.75799511588912 78.89237402028112 20.0
endloop
endfacet
facet normal 1.113765063588814e-31 4.8189610888212766e-32 1.0
outer loop
vertex 33.04342810001895 84.6629779997019 20.0
vertex 33.75799511588912 78.89237402028112 20.0
vertex 35.85947056038053 88.8774833737897 20.0
endloop
endfacet
facet normal 1.113765063588814e-31 4.8189610888212766e-32 1.0
outer loop
vertex 35.85947056038053 88.8774833737897 20.0
vertex 33.75799511588912 78.89237402028112 20.0
vertex 35.81470939212861 83.0629779997022 20.0
endloop
endfacet
facet normal 1.113765063588814e-31 4.8189610888212766e-32 1.0
outer loop
vertex 35.85947056038053 88.8774833737897 20.0
vertex 35.81470939212861 83.0629779997022 20.0
vertex 38.398201249311995 86.92944680096222 20.0
endloop
endfacet
facet normal 1.113765063588814e-31 4.8189610888212766e-32 1.0
outer loop
vertex 35.85947056038053 88.8774833737897 20.0
vertex 38.398201249311995 86.92944680096222 20.0
vertex 38.325147773758 91.68904938203023 20.0
endloop
endfacet
facet normal 1.113765063588814e-31 4.8189610888212766e-32 1.0
outer loop
vertex 38.325147773758 91.68904938203023 20.0
vertex 38.398201249311995 86.92944680096222 20.0
vertex 40.72588396812199 89.58366024571826 20.0
endloop
endfacet
facet normal 0.9620374328024366 -0.2577771532079235 0.08963769949589509
outer loop
vertex 34.001915859409394 74.02312077191216 0.0
vertex 31.356047674826417 69.92818413312499 20.0
vertex 33.14064842529935 69.69323698712886 0.0
endloop
endfacet
facet normal 0.9874537394507833 -0.1300007510507097 0.08963769949589466
outer loop
vertex 31.356047674826417 69.92818413312499 20.0
vertex 34.001915859409394 74.02312077191216 0.0
vertex 32.26324937208899 74.48899505309677 20.0
endloop
endfacet
facet normal -0.9914448613738108 -0.13052619222004827 1.4232025827256133e-14
outer loop
vertex 28.183424118430832 60.23008805117518 20.0
vertex 28.01577115370408 62.78797799970213 0.0
vertex 28.183424118430043 60.23008805117431 0.0
endloop
endfacet
facet normal -0.9978589232386038 -0.06540312923013973 2.7386893408644658e-14
outer loop
vertex 28.01577115370408 62.78797799970213 0.0
vertex 28.183424118430832 60.23008805117518 20.0
vertex 28.01577115370408 62.78797799970213 20.0
endloop
endfacet
facet normal 0.9874537394507833 -0.1300007510507096 0.08963769949589466
outer loop
vertex 33.14064842529935 69.69323698712886 0.0
vertex 31.05191249666537 65.28797799970218 20.0
vertex 32.85191249666544 65.28797799970206 0.0
endloop
endfacet
facet normal 0.9959744388432286 1.1019689922068493e-15 0.0896376994958943
outer loop
vertex 31.05191249666537 65.28797799970218 20.0
vertex 33.14064842529935 69.69323698712886 0.0
vertex 31.356047674826417 69.92818413312499 20.0
endloop
endfacet
facet normal -0.8660254037844375 0.500000000000002 1.5458251355901271e-15
outer loop
vertex 33.04342810001895 84.6629779997019 20.0
vertex 35.859470560379656 88.87748337378886 0.0
vertex 33.043428100018104 84.662977999701 0.0
endloop
endfacet
facet normal -0.7933533402912358 0.6087614290087198 1.8868935108587764e-15
outer loop
vertex 35.859470560379656 88.87748337378886 0.0
vertex 33.04342810001895 84.6629779997019 20.0
vertex 35.85947056038053 88.8774833737897 20.0
endloop
endfacet
facet normal 0.9620374328024369 0.25777715320792216 0.08963769949589478
outer loop
vertex 34.0019158594094 56.55283522749206 0.0
vertex 31.356047674826424 60.64777186627931 20.0
vertex 32.26324937208897 56.08696094630748 20.0
endloop
endfacet
facet normal 0.9874537394507831 0.1300007510507109 0.08963769949589442
outer loop
vertex 31.356047674826424 60.64777186627931 20.0
vertex 34.0019158594094 56.55283522749206 0.0
vertex 33.14064842529936 60.88271901227538 0.0
endloop
endfacet
facet normal -0.9659258262890689 -0.2588190451025187 9.498686032597415e-16
outer loop
vertex 29.17228672796457 55.25874000197957 20.0
vertex 28.183424118430043 60.23008805117431 0.0
vertex 29.172286727963737 55.25874000197877 0.0
endloop
endfacet
facet normal -0.9914448613738105 -0.13052619222005138 1.4232025827255496e-14
outer loop
vertex 28.183424118430043 60.23008805117431 0.0
vertex 29.17228672796457 55.25874000197957 20.0
vertex 28.183424118430832 60.23008805117518 20.0
endloop
endfacet
facet normal 0.748826099009181 -0.6567028637057389 0.08944731546208785
outer loop
vertex 42.076298077452066 88.39937885654247 0.0
vertex 38.398201249311995 86.92944680096222 20.0
vertex 39.82623726183629 85.83367622874646 0.0
endloop
endfacet
facet normal 0.7901596479009625 -0.6063108226463639 0.08963769949589513
outer loop
vertex 38.398201249311995 86.92944680096222 20.0
vertex 42.076298077452066 88.39937885654247 0.0
vertex 40.72588396812199 89.58366024571826 20.0
endloop
endfacet
facet normal -0.7933533402912328 0.6087614290087238 1.886893510858783e-15
outer loop
vertex 35.85947056038053 88.8774833737897 20.0
vertex 38.325147773757955 91.68904938203025 0.0
vertex 35.859470560379656 88.87748337378886 0.0
endloop
endfacet
facet normal -0.7518398074789755 0.659345815100071 1.9696865579738878e-15
outer loop
vertex 38.325147773757955 91.68904938203025 0.0
vertex 35.85947056038053 88.8774833737897 20.0
vertex 38.325147773758 91.68904938203023 20.0
endloop
endfacet
facet normal 0.9201603989516728 -0.38114291680442147 0.08963769949589526
outer loop
vertex 35.420978274409556 78.2035438420239 0.0
vertex 32.26324937208899 74.48899505309677 20.0
vertex 34.001915859409394 74.02312077191216 0.0
endloop
endfacet
facet normal 0.9620374328024364 -0.2577771532079236 0.08963769949589505
outer loop
vertex 32.26324937208899 74.48899505309677 20.0
vertex 35.420978274409556 78.2035438420239 0.0
vertex 33.75799511588912 78.89237402028112 20.0
endloop
endfacet
facet normal 0.7901596479009626 -0.6063108226463638 0.08963769949589512
outer loop
vertex 39.82623726183629 85.83367622874646 0.0
vertex 35.81470939212861 83.0629779997022 20.0
vertex 37.373555118940644 82.16297799970212 0.0
endloop
endfacet
facet normal 0.8625391655581861 -0.4979872194216149 0.08963769949589523
outer loop
vertex 35.81470939212861 83.0629779997022 20.0
vertex 39.82623726183629 85.83367622874646 0.0
vertex 38.398201249311995 86.92944680096222 20.0
endloop
endfacet
facet normal -0.9238795325112876 -0.3826834323650879 8.405198211405572e-16
outer loop
vertex 30.801580611853552 50.45899499555512 20.0
vertex 29.172286727963737 55.25874000197877 0.0
vertex 30.801580611852685 50.458994995554335 0.0
endloop
endfacet
facet normal -0.9659258262890683 -0.25881904510252096 9.49868603259739e-16
outer loop
vertex 29.172286727963737 55.25874000197877 0.0
vertex 30.801580611853552 50.45899499555512 20.0
vertex 29.17228672796457 55.25874000197957 20.0
endloop
endfacet
facet normal 0.6593458151000718 0.7518398074789748 7.266305187430667e-18
outer loop
vertex 38.325147773758 91.68904938203023 20.0
vertex 42.076298077452066 88.39937885654247 0.0
vertex 38.325147773757955 91.68904938203025 0.0
endloop
endfacet
facet normal 0.6593458151000718 0.7518398074789748 7.266305187430667e-18
outer loop
vertex 42.076298077452066 88.39937885654247 0.0
vertex 38.325147773758 91.68904938203023 20.0
vertex 40.72588396812199 89.58366024571826 20.0
endloop
endfacet
facet normal -0.9659258262890678 0.2588190451025233 1.3103736590544977e-15
outer loop
vertex 29.172286727964583 75.31721599742467 20.0
vertex 30.80158061185287 80.11696100384839 0.0
vertex 29.1722867279638 75.31721599742396 0.0
endloop
endfacet
facet normal -0.9238795325112874 0.38268343236508867 1.3103464914329908e-15
outer loop
vertex 30.80158061185287 80.11696100384839 0.0
vertex 29.172286727964583 75.31721599742467 20.0
vertex 30.801580611853616 80.11696100384916 20.0
endloop
endfacet
facet normal -0.9238795325112857 0.38268343236509245 1.3103464914329898e-15
outer loop
vertex 30.801580611853616 80.11696100384916 20.0
vertex 33.043428100018104 84.662977999701 0.0
vertex 30.80158061185287 80.11696100384839 0.0
endloop
endfacet
facet normal -0.86602540378444 0.49999999999999756 1.5458251355901076e-15
outer loop
vertex 33.043428100018104 84.662977999701 0.0
vertex 30.801580611853616 80.11696100384916 20.0
vertex 33.04342810001895 84.6629779997019 20.0
endloop
endfacet
facet normal 0.9201603989516735 0.3811429168044199 0.08963769949589488
outer loop
vertex 35.4209782744095 52.372412157380325 0.0
vertex 32.26324937208897 56.08696094630748 20.0
vertex 33.75799511588912 51.68358197912316 20.0
endloop
endfacet
facet normal 0.9620374328024368 0.25777715320792216 0.08963769949589477
outer loop
vertex 32.26324937208897 56.08696094630748 20.0
vertex 35.4209782744095 52.372412157380325 0.0
vertex 34.0019158594094 56.55283522749206 0.0
endloop
endfacet
facet normal 0.862539165558187 0.49798721942161356 0.08963769949589487
outer loop
vertex 37.37355511894064 48.4129779997021 0.0
vertex 33.75799511588912 51.68358197912316 20.0
vertex 35.81470939212854 47.5129779997021 20.0
endloop
endfacet
facet normal 0.9201603989516735 0.38114291680441975 0.08963769949589484
outer loop
vertex 33.75799511588912 51.68358197912316 20.0
vertex 37.37355511894064 48.4129779997021 0.0
vertex 35.4209782744095 52.372412157380325 0.0
endloop
endfacet
facet normal -0.8660254037844396 -0.4999999999999988 7.458779003866097e-16
outer loop
vertex 33.043428100018915 45.912977999702385 20.0
vertex 30.801580611852685 50.458994995554335 0.0
vertex 33.043428100018026 45.91297799970168 0.0
endloop
endfacet
facet normal -0.9238795325112871 -0.38268343236508945 8.405198211405563e-16
outer loop
vertex 30.801580611852685 50.458994995554335 0.0
vertex 33.043428100018915 45.912977999702385 20.0
vertex 30.801580611853552 50.45899499555512 20.0
endloop
endfacet
facet normal -0.9914448613738105 0.1305261922200511 1.2338272071810931e-14
outer loop
vertex 28.183424118430832 70.34586794822906 20.0
vertex 29.1722867279638 75.31721599742396 0.0
vertex 28.183424118430064 70.34586794822842 0.0
endloop
endfacet
facet normal -0.9659258262890688 0.25881904510251963 1.3103736590544965e-15
outer loop
vertex 29.1722867279638 75.31721599742396 0.0
vertex 28.183424118430832 70.34586794822906 20.0
vertex 29.172286727964583 75.31721599742467 20.0
endloop
endfacet
facet normal -0.9914448613738105 0.1305261922200511 1.2338272071810931e-14
outer loop
vertex 28.183424118430832 70.34586794822906 20.0
vertex 28.01577115370407 67.78797799970212 0.0
vertex 28.01577115370407 67.78797799970212 20.0
endloop
endfacet
facet normal -0.9978589232386038 0.0654031292301398 2.3334645234916568e-14
outer loop
vertex 28.01577115370407 67.78797799970212 0.0
vertex 28.183424118430832 70.34586794822906 20.0
vertex 28.183424118430064 70.34586794822842 0.0
endloop
endfacet
facet normal 0.9874537394507831 0.13000075105071102 0.08963769949589444
outer loop
vertex 33.14064842529936 60.88271901227538 0.0
vertex 31.05191249666537 65.28797799970218 20.0
vertex 31.356047674826424 60.64777186627931 20.0
endloop
endfacet
facet normal 0.9959744388432286 1.1019689922068493e-15 0.0896376994958943
outer loop
vertex 31.05191249666537 65.28797799970218 20.0
vertex 33.14064842529936 60.88271901227538 0.0
vertex 32.85191249666544 65.28797799970206 0.0
endloop
endfacet
facet normal 0.8625391655581862 -0.4979872194216148 0.08963769949589523
outer loop
vertex 37.373555118940644 82.16297799970212 0.0
vertex 33.75799511588912 78.89237402028112 20.0
vertex 35.420978274409556 78.2035438420239 0.0
endloop
endfacet
facet normal 0.9201603989516727 -0.38114291680442147 0.08963769949589523
outer loop
vertex 33.75799511588912 78.89237402028112 20.0
vertex 37.373555118940644 82.16297799970212 0.0
vertex 35.81470939212861 83.0629779997022 20.0
endloop
endfacet
facet normal -0.6087614290087207 -0.7933533402912352 8.377203509156593e-16
outer loop
vertex 43.01240712257784 34.54553606341717 20.0
vertex 39.20152472568616 37.887590228723134 0.0
vertex 43.012407122576825 34.54553606341658 0.0
endloop
endfacet
facet normal -0.7071067811865482 -0.7071067811865468 8.454879992367219e-16
outer loop
vertex 39.20152472568616 37.887590228723134 0.0
vertex 43.01240712257784 34.54553606341717 20.0
vertex 39.2015247256871 37.88759022872379 20.0
endloop
endfacet
facet normal 0.49798721942161434 0.8625391655581863 0.08963769949589485
outer loop
vertex 48.82691249666541 34.50077489516524 20.0
vertex 53.686346654343645 34.1070437774462 0.0
vertex 49.72691249666546 36.05962062197731 0.0
endloop
endfacet
facet normal 0.38114291680442114 0.9201603989516728 0.08963769949589491
outer loop
vertex 53.686346654343645 34.1070437774462 0.0
vertex 48.82691249666541 34.50077489516524 20.0
vertex 52.99751647608647 32.44406061892577 20.0
endloop
endfacet
facet normal 0.6063108226463633 0.7901596479009633 0.08963769949589476
outer loop
vertex 44.96044369540535 37.08426675234862 20.0
vertex 49.72691249666546 36.05962062197731 0.0
vertex 46.056214267621115 38.51230276487293 0.0
endloop
endfacet
facet normal 0.49798721942161434 0.8625391655581865 0.08963769949589485
outer loop
vertex 49.72691249666546 36.05962062197731 0.0
vertex 44.96044369540535 37.08426675234862 20.0
vertex 48.82691249666541 34.50077489516524 20.0
endloop
endfacet
facet normal -0.1305261922200455 -0.9914448613738114 1.633321375012155e-14
outer loop
vertex 61.544022548138486 26.869489621467473 20.0
vertex 56.57267449894206 27.8583522310003 0.0
vertex 61.54402254813758 26.869489621466514 0.0
endloop
endfacet
facet normal -0.258819045102523 -0.9659258262890679 4.876164992276645e-16
outer loop
vertex 56.57267449894206 27.8583522310003 0.0
vertex 61.544022548138486 26.869489621467473 20.0
vertex 56.572674498942895 27.858352231001188 20.0
endloop
endfacet
facet normal -0.7071067811865476 -0.7071067811865476 8.454879992367222e-16
outer loop
vertex 39.2015247256871 37.88759022872379 20.0
vertex 35.85947056037958 41.698472625613825 0.0
vertex 39.20152472568616 37.887590228723134 0.0
endloop
endfacet
facet normal -0.7933533402912357 -0.6087614290087201 7.691189270099568e-16
outer loop
vertex 35.85947056037958 41.698472625613825 0.0
vertex 39.2015247256871 37.88759022872379 20.0
vertex 35.85947056038048 41.69847262561452 20.0
endloop
endfacet
facet normal 0.7042602795945136 0.7042602795945128 0.08963769949589466
outer loop
vertex 42.737058631619476 41.42312413465612 0.0
vertex 38.39820124931197 43.64650919844205 20.0
vertex 41.464266425483636 40.150331928520266 20.0
endloop
endfacet
facet normal 0.790159647900964 0.6063108226463618 0.08963769949589474
outer loop
vertex 38.39820124931197 43.64650919844205 20.0
vertex 42.737058631619476 41.42312413465612 0.0
vertex 39.826237261836255 44.742279770657795 0.0
endloop
endfacet
facet normal 0.38114291680442103 0.920160398951673 0.08963769949589491
outer loop
vertex 52.99751647608647 32.44406061892577 20.0
vertex 57.86676972445534 32.68798136244606 0.0
vertex 53.686346654343645 34.1070437774462 0.0
endloop
endfacet
facet normal 0.2577771532079238 0.9620374328024364 0.089637699495895
outer loop
vertex 57.86676972445534 32.68798136244606 0.0
vertex 52.99751647608647 32.44406061892577 20.0
vertex 57.40089544327081 30.949314875125655 20.0
endloop
endfacet
facet normal -0.49999999999999956 -0.866025403784439 8.151708022413365e-16
outer loop
vertex 47.226912496665726 31.72949360305553 20.0
vertex 43.012407122576825 34.54553606341658 0.0
vertex 47.22691249666496 31.729493603054568 0.0
endloop
endfacet
facet normal -0.6087614290087222 -0.793353340291234 8.377203509156596e-16
outer loop
vertex 43.012407122576825 34.54553606341658 0.0
vertex 47.226912496665726 31.72949360305553 20.0
vertex 43.01240712257784 34.54553606341717 20.0
endloop
endfacet
facet normal 0.790159647900964 0.6063108226463618 0.08963769949589473
outer loop
vertex 39.826237261836255 44.742279770657795 0.0
vertex 35.81470939212854 47.5129779997021 20.0
vertex 38.39820124931197 43.64650919844205 20.0
endloop
endfacet
facet normal 0.8625391655581872 0.49798721942161356 0.08963769949589488
outer loop
vertex 35.81470939212854 47.5129779997021 20.0
vertex 39.826237261836255 44.742279770657795 0.0
vertex 37.37355511894064 48.4129779997021 0.0
endloop
endfacet
facet normal -0.38268343236508945 -0.9238795325112868 6.538095443827873e-16
outer loop
vertex 51.77292949251842 29.48764611489025 20.0
vertex 47.22691249666496 31.729493603054568 0.0
vertex 51.77292949251767 29.48764611488922 0.0
endloop
endfacet
facet normal -0.5000000000000002 -0.8660254037844386 8.151708022413367e-16
outer loop
vertex 47.22691249666496 31.729493603054568 0.0
vertex 51.77292949251842 29.48764611489025 20.0
vertex 47.226912496665726 31.72949360305553 20.0
endloop
endfacet
facet normal -0.25881904510252063 -0.9659258262890684 4.876164992276638e-16
outer loop
vertex 56.572674498942895 27.858352231001188 20.0
vertex 51.77292949251767 29.48764611488922 0.0
vertex 56.57267449894206 27.8583522310003 0.0
endloop
endfacet
facet normal -0.3826834323650907 -0.9238795325112864 6.538095443827902e-16
outer loop
vertex 51.77292949251767 29.48764611488922 0.0
vertex 56.572674498942895 27.858352231001188 20.0
vertex 51.77292949251842 29.48764611489025 20.0
endloop
endfacet
facet normal -0.7933533402912357 -0.6087614290087202 7.691189270099569e-16
outer loop
vertex 35.85947056038048 41.69847262561452 20.0
vertex 33.043428100018026 45.91297799970168 0.0
vertex 35.85947056037958 41.698472625613825 0.0
endloop
endfacet
facet normal -0.8660254037844392 -0.49999999999999933 7.45877900386609e-16
outer loop
vertex 33.043428100018026 45.91297799970168 0.0
vertex 35.85947056038048 41.69847262561452 20.0
vertex 33.043428100018915 45.912977999702385 20.0
endloop
endfacet
facet normal 0.2577771532079237 0.9620374328024365 0.08963769949589502
outer loop
vertex 57.40089544327081 30.949314875125655 20.0
vertex 62.19665350923868 31.826713928335995 0.0
vertex 57.86676972445534 32.68798136244606 0.0
endloop
endfacet
facet normal 0.13000075105071127 0.9874537394507831 0.0896376994958949
outer loop
vertex 62.19665350923868 31.826713928335995 0.0
vertex 57.40089544327081 30.949314875125655 20.0
vertex 61.96170636324259 30.04211317786306 20.0
endloop
endfacet
facet normal 0.7042602795945135 0.7042602795945128 0.08963769949589465
outer loop
vertex 41.464266425483636 40.150331928520266 20.0
vertex 46.056214267621115 38.51230276487293 0.0
vertex 42.737058631619476 41.42312413465612 0.0
endloop
endfacet
facet normal 0.6063108226463633 0.7901596479009629 0.08963769949589473
outer loop
vertex 46.056214267621115 38.51230276487293 0.0
vertex 41.464266425483636 40.150331928520266 20.0
vertex 44.96044369540535 37.08426675234862 20.0
endloop
endfacet
facet normal 0.38268343236508834 0.9238795325112874 1.0438191925819952e-15
outer loop
vertex 81.43089550081244 101.08830988451386 20.0
vertex 85.97691249666548 98.8464623963491 0.0
vertex 81.43089550081274 101.0883098845145 0.0
endloop
endfacet
facet normal 0.49999999999999983 0.8660254037844389 1.08966031478455e-15
outer loop
vertex 85.97691249666548 98.8464623963491 0.0
vertex 81.43089550081244 101.08830988451386 20.0
vertex 85.97691249666518 98.84646239634856 20.0
endloop
endfacet
facet normal 0.9659258262890682 0.25881904510252124 1.410474994458815e-15
outer loop
vertex 104.03153826536693 75.31721599742477 0.0
vertex 102.40224438147729 80.11696100384914 20.0
vertex 104.03153826536634 75.31721599742463 20.0
endloop
endfacet
facet normal 0.9238795325112863 0.3826834323650909 1.2568392861034557e-15
outer loop
vertex 102.40224438147729 80.11696100384914 20.0
vertex 104.03153826536693 75.31721599742477 0.0
vertex 102.40224438147783 80.11696100384935 0.0
endloop
endfacet
facet normal 0.06540312923015944 0.9978589232386025 1.9221305336806487e-14
outer loop
vertex 69.10191249666546 103.87411934266345 20.0
vertex 71.65980244519248 103.70646637793725 0.0
vertex 69.10191249666546 103.87411934266345 0.0
endloop
endfacet
facet normal 0.13052619222005968 0.9914448613738094 1.0137574520339254e-14
outer loop
vertex 71.65980244519248 103.70646637793725 0.0
vertex 69.10191249666546 103.87411934266345 20.0
vertex 71.65980244519238 103.70646637793666 20.0
endloop
endfacet
facet normal 0.49999999999999983 0.8660254037844388 1.08966031478455e-15
outer loop
vertex 85.97691249666518 98.84646239634856 20.0
vertex 90.19141787075343 96.03041993598744 0.0
vertex 85.97691249666548 98.8464623963491 0.0
endloop
endfacet
facet normal 0.6087614290087227 0.7933533402912336 1.117882438486248e-15
outer loop
vertex 90.19141787075343 96.03041993598744 0.0
vertex 85.97691249666518 98.84646239634856 20.0
vertex 90.19141787075309 96.03041993598697 20.0
endloop
endfacet
facet normal -0.4979872194216149 -0.8625391655581862 0.08963769949589434
outer loop
vertex 84.37691249666554 96.07518110423901 20.0
vertex 79.51747833898727 96.46891222195798 0.0
vertex 83.47691249666548 94.51633537742691 0.0
endloop
endfacet
facet normal -0.3811429168044202 -0.9201603989516733 0.08963769949589435
outer loop
vertex 79.51747833898727 96.46891222195798 0.0
vertex 84.37691249666554 96.07518110423901 20.0
vertex 80.20630851724444 98.1318953804784 20.0
endloop
endfacet
facet normal -0.38114291680442014 -0.9201603989516735 0.08963769949589434
outer loop
vertex 80.20630851724444 98.1318953804784 20.0
vertex 75.33705526887556 97.88797463695816 0.0
vertex 79.51747833898727 96.46891222195798 0.0
endloop
endfacet
facet normal -0.2577771532079227 -0.9620374328024368 0.08963769949589424
outer loop
vertex 75.33705526887556 97.88797463695816 0.0
vertex 80.20630851724444 98.1318953804784 20.0
vertex 75.80292955006014 99.62664112427855 20.0
endloop
endfacet
facet normal -0.790159647900964 -0.6063108226463623 0.08963769949589448
outer loop
vertex 94.805623744019 86.92944680096215 20.0
vertex 90.46676636171148 89.1528318647481 0.0
vertex 93.37758773149466 85.83367622874641 0.0
endloop
endfacet
facet normal -0.7042602795945132 -0.7042602795945132 0.08963769949589435
outer loop
vertex 90.46676636171148 89.1528318647481 0.0
vertex 94.805623744019 86.92944680096215 20.0
vertex 91.7395585678473 90.42562407088393 20.0
endloop
endfacet
facet normal -0.7042602795945132 -0.7042602795945133 0.08963769949589434
outer loop
vertex 91.7395585678473 90.42562407088393 20.0
vertex 87.14761072570982 92.0636532345313 0.0
vertex 90.46676636171148 89.1528318647481 0.0
endloop
endfacet
facet normal -0.6063108226463632 -0.7901596479009634 0.08963769949589437
outer loop
vertex 87.14761072570982 92.0636532345313 0.0
vertex 91.7395585678473 90.42562407088393 20.0
vertex 88.24338129792554 93.49168924705556 20.0
endloop
endfacet
facet normal 0.6087614290087228 0.7933533402912336 1.1178824384862478e-15
outer loop
vertex 90.19141787075309 96.03041993598697 20.0
vertex 94.00230026764419 92.6883657706808 0.0
vertex 90.19141787075343 96.03041993598744 0.0
endloop
endfacet
facet normal 0.7071067811865477 0.7071067811865475 1.1374808213287872e-15
outer loop
vertex 94.00230026764419 92.6883657706808 0.0
vertex 90.19141787075309 96.03041993598697 20.0
vertex 94.00230026764378 92.68836577068042 20.0
endloop
endfacet
facet normal 0.9238795325112863 0.3826834323650909 1.2568392861034557e-15
outer loop
vertex 102.40224438147783 80.11696100384935 0.0
vertex 100.16039689331195 84.66297799970177 20.0
vertex 102.40224438147729 80.11696100384914 20.0
endloop
endfacet
facet normal 0.8660254037844388 0.4999999999999996 1.2345601247066118e-15
outer loop
vertex 100.16039689331195 84.66297799970177 20.0
vertex 102.40224438147783 80.11696100384935 0.0
vertex 100.16039689331247 84.66297799970212 0.0
endloop
endfacet
facet normal -1.692944298511328e-15 -0.9959744388432287 0.08963769949589243
outer loop
vertex 66.60191249666552 100.83797799970218 20.0
vertex 62.19665350923875 98.74924207106825 0.0
vertex 66.60191249666548 99.03797799970211 0.0
endloop
endfacet
facet normal 0.1300007510507067 -0.9874537394507836 0.08963769949589333
outer loop
vertex 62.19665350923875 98.74924207106825 0.0
vertex 66.60191249666552 100.83797799970218 20.0
vertex 61.96170636324264 100.53384282154111 20.0
endloop
endfacet
facet normal -0.13052619222005732 0.9914448613738097 1.0508277786349292e-14
outer loop
vertex 61.54402254813857 103.70646637793668 20.0
vertex 64.10191249666548 103.87411934266348 0.0
vertex 61.54402254813845 103.70646637793726 0.0
endloop
endfacet
facet normal -0.06540312923015548 0.9978589232386027 1.929503965481544e-14
outer loop
vertex 64.10191249666548 103.87411934266348 0.0
vertex 61.54402254813857 103.70646637793668 20.0
vertex 64.10191249666548 103.87411934266348 20.0
endloop
endfacet
facet normal 0.9914448613738095 0.13052619222005904 9.984547030988448e-15
outer loop
vertex 105.02040087490063 70.34586794822908 0.0
vertex 104.03153826536634 75.31721599742463 20.0
vertex 105.02040087490005 70.34586794822907 20.0
endloop
endfacet
facet normal 0.9659258262890682 0.25881904510252135 1.4104749944588147e-15
outer loop
vertex 104.03153826536634 75.31721599742463 20.0
vertex 105.02040087490063 70.34586794822908 0.0
vertex 104.03153826536693 75.31721599742477 0.0
endloop
endfacet
facet normal 0.2588190451025208 0.9659258262890683 1.0142222198928602e-15
outer loop
vertex 76.63115049438798 102.71760376840297 20.0
vertex 81.43089550081274 101.0883098845145 0.0
vertex 76.63115049438815 102.71760376840352 0.0
endloop
endfacet
facet normal 0.38268343236508845 0.9238795325112874 1.043819192581995e-15
outer loop
vertex 81.43089550081274 101.0883098845145 0.0
vertex 76.63115049438798 102.71760376840297 20.0
vertex 81.43089550081244 101.08830988451386 20.0
endloop
endfacet
facet normal 0.13000075105070677 -0.9874537394507836 0.08963769949589333
outer loop
vertex 61.96170636324264 100.53384282154111 20.0
vertex 57.86676972445544 97.88797463695818 0.0
vertex 62.19665350923875 98.74924207106825 0.0
endloop
endfacet
facet normal 0.2577771532079218 -0.9620374328024369 0.08963769949589422
outer loop
vertex 57.86676972445544 97.88797463695818 0.0
vertex 61.96170636324264 100.53384282154111 20.0
vertex 57.40089544327083 99.62664112427855 20.0
endloop
endfacet
facet normal -0.25881904510252013 0.9659258262890685 1.724417213837261e-15
outer loop
vertex 56.57267449894294 102.71760376840288 20.0
vertex 61.54402254813845 103.70646637793726 0.0
vertex 56.572674498942796 102.71760376840354 0.0
endloop
endfacet
facet normal -0.1305261922200575 0.9914448613738097 1.0508277786349267e-14
outer loop
vertex 61.54402254813845 103.70646637793726 0.0
vertex 56.57267449894294 102.71760376840288 20.0
vertex 61.54402254813857 103.70646637793668 20.0
endloop
endfacet
facet normal -0.8625391655581865 -0.4979872194216144 0.08963769949589459
outer loop
vertex 97.38911560120232 83.06297799970211 20.0
vertex 93.37758773149466 85.83367622874641 0.0
vertex 95.8302698743903 82.16297799970204 0.0
endloop
endfacet
facet normal -0.790159647900964 -0.606310822646362 0.08963769949589447
outer loop
vertex 93.37758773149466 85.83367622874641 0.0
vertex 97.38911560120232 83.06297799970211 20.0
vertex 94.805623744019 86.92944680096215 20.0
endloop
endfacet
facet normal -0.6063108226463633 -0.7901596479009632 0.08963769949589438
outer loop
vertex 88.24338129792554 93.49168924705556 20.0
vertex 83.47691249666548 94.51633537742691 0.0
vertex 87.14761072570982 92.0636532345313 0.0
endloop
endfacet
facet normal -0.4979872194216149 -0.8625391655581863 0.08963769949589438
outer loop
vertex 83.47691249666548 94.51633537742691 0.0
vertex 88.24338129792554 93.49168924705556 20.0
vertex 84.37691249666554 96.07518110423901 20.0
endloop
endfacet
facet normal 0.8660254037844387 0.49999999999999983 1.2345601247066116e-15
outer loop
vertex 100.16039689331247 84.66297799970212 0.0
vertex 97.34435443295041 88.87748337378966 20.0
vertex 100.16039689331195 84.66297799970177 20.0
endloop
endfacet
facet normal 0.793353340291235 0.6087614290087209 1.1823495051627786e-15
outer loop
vertex 97.34435443295041 88.87748337378966 20.0
vertex 100.16039689331247 84.66297799970212 0.0
vertex 97.34435443295084 88.87748337379003 0.0
endloop
endfacet
facet normal -0.9201603989516731 -0.38114291680442064 0.08963769949589447
outer loop
vertex 99.44582987744181 78.89237402028104 20.0
vertex 95.8302698743903 82.16297799970204 0.0
vertex 97.78284671892143 78.20354384202388 0.0
endloop
endfacet
facet normal -0.8625391655581867 -0.4979872194216142 0.08963769949589459
outer loop
vertex 95.8302698743903 82.16297799970204 0.0
vertex 99.44582987744181 78.89237402028104 20.0
vertex 97.38911560120232 83.06297799970211 20.0
endloop
endfacet
facet normal -0.25777715320792277 -0.9620374328024367 0.08963769949589423
outer loop
vertex 75.80292955006014 99.62664112427855 20.0
vertex 71.00717148409223 98.74924207106824 0.0
vertex 75.33705526887556 97.88797463695816 0.0
endloop
endfacet
facet normal -0.13000075105070874 -0.9874537394507835 0.08963769949589329
outer loop
vertex 71.00717148409223 98.74924207106824 0.0
vertex 75.80292955006014 99.62664112427855 20.0
vertex 71.2421186300883 100.5338428215411 20.0
endloop
endfacet
facet normal 0.1305261922200596 0.9914448613738094 1.0137574520339268e-14
outer loop
vertex 71.65980244519238 103.70646637793666 20.0
vertex 76.63115049438815 102.71760376840352 0.0
vertex 71.65980244519248 103.70646637793725 0.0
endloop
endfacet
facet normal 0.25881904510252096 0.9659258262890682 1.0142222198928602e-15
outer loop
vertex 76.63115049438815 102.71760376840352 0.0
vertex 71.65980244519238 103.70646637793666 20.0
vertex 76.63115049438798 102.71760376840297 20.0
endloop
endfacet
facet normal -0.9620374328024369 -0.2577771532079224 0.08963769949589419
outer loop
vertex 100.94057562124192 74.48899505309673 20.0
vertex 97.78284671892143 78.20354384202388 0.0
vertex 99.20190913392156 74.02312077191219 0.0
endloop
endfacet
facet normal -0.920160398951673 -0.38114291680442075 0.08963769949589447
outer loop
vertex 97.78284671892143 78.20354384202388 0.0
vertex 100.94057562124192 74.48899505309673 20.0
vertex 99.44582987744181 78.89237402028104 20.0
endloop
endfacet
facet normal 0.793353340291235 0.608761429008721 1.1823495051627784e-15
outer loop
vertex 97.34435443295084 88.87748337379003 0.0
vertex 94.00230026764378 92.68836577068042 20.0
vertex 97.34435443295041 88.87748337378966 20.0
endloop
endfacet
facet normal 0.7071067811865476 0.7071067811865476 1.1374808213287874e-15
outer loop
vertex 94.00230026764378 92.68836577068042 20.0
vertex 97.34435443295084 88.87748337379003 0.0
vertex 94.00230026764419 92.6883657706808 0.0
endloop
endfacet
facet normal -0.13000075105070866 -0.9874537394507834 0.08963769949589327
outer loop
vertex 71.2421186300883 100.5338428215411 20.0
vertex 66.60191249666548 99.03797799970211 0.0
vertex 71.00717148409223 98.74924207106824 0.0
endloop
endfacet
facet normal -1.5215806405685804e-15 -0.9959744388432286 0.08963769949589243
outer loop
vertex 66.60191249666548 99.03797799970211 0.0
vertex 71.2421186300883 100.5338428215411 20.0
vertex 66.60191249666552 100.83797799970218 20.0
endloop
endfacet
facet normal -0.7518398074789785 -0.6593458151000676 7.650991932647699e-17
outer loop
vertex 42.306230250649364 91.1640065282456 20.0
vertex 40.20084111433734 93.56474272260954 0.0
vertex 43.49051163982514 89.81359241891553 0.0
endloop
endfacet
facet normal -0.7518398074789785 -0.6593458151000676 7.650991932647699e-17
outer loop
vertex 40.20084111433734 93.56474272260954 0.0
vertex 42.306230250649364 91.1640065282456 20.0
vertex 40.20084111433736 93.56474272260951 20.0
endloop
endfacet
facet normal 0.38114291680442075 -0.9201603989516731 0.0896376994958944
outer loop
vertex 52.997516476086496 98.13189538047845 20.0
vertex 49.72691249666549 94.51633537742694 0.0
vertex 53.68634665434367 96.46891222195804 0.0
endloop
endfacet
facet normal 0.49798721942161445 -0.8625391655581865 0.0896376994958945
outer loop
vertex 49.72691249666549 94.51633537742694 0.0
vertex 52.997516476086496 98.13189538047845 20.0
vertex 48.826912496665436 96.07518110423898 20.0
endloop
endfacet
facet normal -0.5 0.8660254037844387 1.8055737565018973e-15
outer loop
vertex 47.22691249666577 98.8464623963486 20.0
vertex 51.77292949251825 101.08830988451452 0.0
vertex 47.22691249666546 98.84646239634912 0.0
endloop
endfacet
facet normal -0.38268343236509006 0.9238795325112868 1.7764972539473472e-15
outer loop
vertex 51.77292949251825 101.08830988451452 0.0
vertex 47.22691249666577 98.8464623963486 20.0
vertex 51.772929492518436 101.08830988451393 20.0
endloop
endfacet
facet normal -0.6087614290087208 0.793353340291235 1.7683725446812942e-15
outer loop
vertex 43.01240712257792 96.03041993598698 20.0
vertex 47.22691249666546 98.84646239634912 0.0
vertex 43.01240712257755 96.03041993598751 0.0
endloop
endfacet
facet normal -0.5000000000000001 0.8660254037844388 1.8055737565018973e-15
outer loop
vertex 47.22691249666546 98.84646239634912 0.0
vertex 43.01240712257792 96.03041993598698 20.0
vertex 47.22691249666577 98.8464623963486 20.0
endloop
endfacet
facet normal -0.65934581510007 0.7518398074789765 1.7062118022938147e-15
outer loop
vertex 40.20084111433736 93.56474272260951 20.0
vertex 43.01240712257755 96.03041993598751 0.0
vertex 40.20084111433734 93.56474272260954 0.0
endloop
endfacet
facet normal -0.6087614290087208 0.7933533402912353 1.7683725446812942e-15
outer loop
vertex 43.01240712257755 96.03041993598751 0.0
vertex 40.20084111433736 93.56474272260951 20.0
vertex 43.01240712257792 96.03041993598698 20.0
endloop
endfacet
facet normal 0.0 0.0 -1.0
outer loop
vertex 33.043428100018104 84.662977999701 0.0
vertex 32.85191249666544 65.28797799970206 0.0
vertex 30.80158061185287 80.11696100384839 0.0
endloop
endfacet
facet normal 0.0 0.0 -1.0
outer loop
vertex 32.85191249666544 65.28797799970206 0.0
vertex 33.043428100018104 84.662977999701 0.0
vertex 33.14064842529935 69.69323698712886 0.0
endloop
endfacet
facet normal 0.0 0.0 -1.0
outer loop
vertex 33.14064842529935 69.69323698712886 0.0
vertex 33.043428100018104 84.662977999701 0.0
vertex 35.859470560379656 88.87748337378886 0.0
endloop
endfacet
facet normal 0.0 0.0 -1.0
outer loop
vertex 33.14064842529935 69.69323698712886 0.0
vertex 35.859470560379656 88.87748337378886 0.0
vertex 34.001915859409394 74.02312077191216 0.0
endloop
endfacet
facet normal 0.0 0.0 -1.0
outer loop
vertex 34.001915859409394 74.02312077191216 0.0
vertex 35.859470560379656 88.87748337378886 0.0
vertex 35.420978274409556 78.2035438420239 0.0
endloop
endfacet
facet normal 0.0 0.0 -1.0
outer loop
vertex 35.420978274409556 78.2035438420239 0.0
vertex 35.859470560379656 88.87748337378886 0.0
vertex 37.373555118940644 82.16297799970212 0.0
endloop
endfacet
facet normal 0.0 0.0 -1.0
outer loop
vertex 37.373555118940644 82.16297799970212 0.0
vertex 35.859470560379656 88.87748337378886 0.0
vertex 38.325147773757955 91.68904938203025 0.0
endloop
endfacet
facet normal 0.0 0.0 -1.0
outer loop
vertex 37.373555118940644 82.16297799970212 0.0
vertex 38.325147773757955 91.68904938203025 0.0
vertex 39.82623726183629 85.83367622874646 0.0
endloop
endfacet
facet normal 0.0 0.0 -1.0
outer loop
vertex 39.82623726183629 85.83367622874646 0.0
vertex 38.325147773757955 91.68904938203025 0.0
vertex 42.076298077452066 88.39937885654247 0.0
endloop
endfacet
facet normal 0.0 0.0 -1.0
outer loop
vertex 69.10191249666546 107.0379779997016 0.0
vertex 64.10191249666548 103.87411934266348 0.0
vertex 64.10191249666548 107.0379779997016 0.0
endloop
endfacet
facet normal 0.0 0.0 -1.0
outer loop
vertex 64.10191249666548 103.87411934266348 0.0
vertex 69.10191249666546 107.0379779997016 0.0
vertex 66.60191249666548 99.03797799970211 0.0
endloop
endfacet
facet normal 0.0 0.0 -1.0
outer loop
vertex 66.60191249666548 99.03797799970211 0.0
vertex 69.10191249666546 107.0379779997016 0.0
vertex 69.10191249666546 103.87411934266345 0.0
endloop
endfacet
facet normal 0.0 0.0 -1.0
outer loop
vertex 66.60191249666548 99.03797799970211 0.0
vertex 69.10191249666546 103.87411934266345 0.0
vertex 71.00717148409223 98.74924207106824 0.0
endloop
endfacet
facet normal 0.0 0.0 -1.0
outer loop
vertex 71.00717148409223 98.74924207106824 0.0
vertex 69.10191249666546 103.87411934266345 0.0
vertex 71.65980244519248 103.70646637793725 0.0
endloop
endfacet
facet normal 0.0 0.0 -1.0
outer loop
vertex 71.00717148409223 98.74924207106824 0.0
vertex 71.65980244519248 103.70646637793725 0.0
vertex 75.33705526887556 97.88797463695816 0.0
endloop
endfacet
facet normal 0.0 0.0 -1.0
outer loop
vertex 75.33705526887556 97.88797463695816 0.0
vertex 71.65980244519248 103.70646637793725 0.0
vertex 76.63115049438815 102.71760376840352 0.0
endloop
endfacet
facet normal 0.0 0.0 -1.0
outer loop
vertex 75.33705526887556 97.88797463695816 0.0
vertex 76.63115049438815 102.71760376840352 0.0
vertex 79.51747833898727 96.46891222195798 0.0
endloop
endfacet
facet normal 0.0 0.0 -1.0
outer loop
vertex 79.51747833898727 96.46891222195798 0.0
vertex 76.63115049438815 102.71760376840352 0.0
vertex 81.43089550081274 101.0883098845145 0.0
endloop
endfacet
facet normal 0.0 0.0 -1.0
outer loop
vertex 79.51747833898727 96.46891222195798 0.0
vertex 81.43089550081274 101.0883098845145 0.0
vertex 83.47691249666548 94.51633537742691 0.0
endloop
endfacet
facet normal 0.0 0.0 -1.0
outer loop
vertex 83.47691249666548 94.51633537742691 0.0
vertex 81.43089550081274 101.0883098845145 0.0
vertex 85.97691249666548 98.8464623963491 0.0
endloop
endfacet
facet normal 0.0 0.0 -1.0
outer loop
vertex 83.47691249666548 94.51633537742691 0.0
vertex 85.97691249666548 98.8464623963491 0.0
vertex 87.14761072570982 92.0636532345313 0.0
endloop
endfacet
facet normal 0.0 0.0 -1.0
outer loop
vertex 87.14761072570982 92.0636532345313 0.0
vertex 85.97691249666548 98.8464623963491 0.0
vertex 90.19141787075343 96.03041993598744 0.0
endloop
endfacet
facet normal 0.0 0.0 -1.0
outer loop
vertex 87.14761072570982 92.0636532345313 0.0
vertex 90.19141787075343 96.03041993598744 0.0
vertex 90.46676636171148 89.1528318647481 0.0
endloop
endfacet
facet normal 0.0 0.0 -1.0
outer loop
vertex 90.46676636171148 89.1528318647481 0.0
vertex 90.19141787075343 96.03041993598744 0.0
vertex 94.00230026764419 92.6883657706808 0.0
endloop
endfacet
facet normal 0.0 0.0 -1.0
outer loop
vertex 90.46676636171148 89.1528318647481 0.0
vertex 94.00230026764419 92.6883657706808 0.0
vertex 93.37758773149466 85.83367622874641 0.0
endloop
endfacet
facet normal 0.0 0.0 -1.0
outer loop
vertex 93.37758773149466 85.83367622874641 0.0
vertex 94.00230026764419 92.6883657706808 0.0
vertex 95.8302698743903 82.16297799970204 0.0
endloop
endfacet
facet normal 0.0 0.0 -1.0
outer loop
vertex 95.8302698743903 82.16297799970204 0.0
vertex 94.00230026764419 92.6883657706808 0.0
vertex 97.34435443295084 88.87748337379003 0.0
endloop
endfacet
facet normal 0.0 0.0 -1.0
outer loop
vertex 95.8302698743903 82.16297799970204 0.0
vertex 97.34435443295084 88.87748337379003 0.0
vertex 97.78284671892143 78.20354384202388 0.0
endloop
endfacet
facet normal 0.0 0.0 -1.0
outer loop
vertex 97.78284671892143 78.20354384202388 0.0
vertex 97.34435443295084 88.87748337379003 0.0
vertex 100.16039689331247 84.66297799970212 0.0
endloop
endfacet
facet normal 0.0 0.0 -1.0
outer loop
vertex 97.78284671892143 78.20354384202388 0.0
vertex 100.16039689331247 84.66297799970212 0.0
vertex 99.20190913392156 74.02312077191219 0.0
endloop
endfacet
facet normal 0.0 0.0 -1.0
outer loop
vertex 99.20190913392156 74.02312077191219 0.0
vertex 100.16039689331247 84.66297799970212 0.0
vertex 100.06317656803158 69.69323698712883 0.0
endloop
endfacet
facet normal 0.0 0.0 -1.0
outer loop
vertex 100.06317656803158 69.69323698712883 0.0
vertex 100.16039689331247 84.66297799970212 0.0
vertex 100.35191249666548 65.28797799970212 0.0
endloop
endfacet
facet normal 0.0 0.0 -1.0
outer loop
vertex 100.35191249666548 65.28797799970212 0.0
vertex 100.16039689331247 84.66297799970212 0.0
vertex 102.40224438147783 80.11696100384935 0.0
endloop
endfacet
facet normal 0.0 0.0 -1.0
outer loop
vertex 71.00717148409218 31.826713928335995 0.0
vertex 69.10191249666543 26.701836656740724 0.0
vertex 66.60191249666546 31.537977999702083 0.0
endloop
endfacet
facet normal 0.0 0.0 -1.0
outer loop
vertex 69.10191249666543 26.701836656740724 0.0
vertex 71.00717148409218 31.826713928335995 0.0
vertex 71.65980244519154 26.869489621466773 0.0
endloop
endfacet
facet normal 0.0 0.0 -1.0
outer loop
vertex 71.65980244519154 26.869489621466773 0.0
vertex 71.00717148409218 31.826713928335995 0.0
vertex 75.3370552688755 32.68798136244605 0.0
endloop
endfacet
facet normal 0.0 0.0 -1.0
outer loop
vertex 71.65980244519154 26.869489621466773 0.0
vertex 75.3370552688755 32.68798136244605 0.0
vertex 76.63115049438704 27.85835223100045 0.0
endloop
endfacet
facet normal 0.0 0.0 -1.0
outer loop
vertex 76.63115049438704 27.85835223100045 0.0
vertex 75.3370552688755 32.68798136244605 0.0
vertex 79.51747833898719 34.107043777446165 0.0
endloop
endfacet
facet normal 0.0 0.0 -1.0
outer loop
vertex 76.63115049438704 27.85835223100045 0.0
vertex 79.51747833898719 34.107043777446165 0.0
vertex 81.43089550081136 29.487646114889497 0.0
endloop
endfacet
facet normal 0.0 0.0 -1.0
outer loop
vertex 81.43089550081136 29.487646114889497 0.0
vertex 79.51747833898719 34.107043777446165 0.0
vertex 83.4769124966654 36.05962062197729 0.0
endloop
endfacet
facet normal 0.0 0.0 -1.0
outer loop
vertex 81.43089550081136 29.487646114889497 0.0
vertex 83.4769124966654 36.05962062197729 0.0
vertex 85.976912496664 31.72949360305468 0.0
endloop
endfacet
facet normal 0.0 0.0 -1.0
outer loop
vertex 85.976912496664 31.72949360305468 0.0
vertex 83.4769124966654 36.05962062197729 0.0
vertex 87.14761072570977 38.51230276487288 0.0
endloop
endfacet
facet normal 0.0 0.0 -1.0
outer loop
vertex 85.976912496664 31.72949360305468 0.0
vertex 87.14761072570977 38.51230276487288 0.0
vertex 90.19141787075189 34.54553606341624 0.0
endloop
endfacet
facet normal 0.0 0.0 -1.0
outer loop
vertex 90.19141787075189 34.54553606341624 0.0
vertex 87.14761072570977 38.51230276487288 0.0
vertex 90.46676636171142 41.42312413465613 0.0
endloop
endfacet
facet normal 0.0 0.0 -1.0
outer loop
vertex 90.19141787075189 34.54553606341624 0.0
vertex 90.46676636171142 41.42312413465613 0.0
vertex 94.00230026764274 37.887590228722814 0.0
endloop
endfacet
facet normal 0.0 0.0 -1.0
outer loop
vertex 94.00230026764274 37.887590228722814 0.0
vertex 90.46676636171142 41.42312413465613 0.0
vertex 93.37758773149464 44.7422797706578 0.0
endloop
endfacet
facet normal 0.0 0.0 -1.0
outer loop
vertex 94.00230026764274 37.887590228722814 0.0
vertex 93.37758773149464 44.7422797706578 0.0
vertex 95.83026987439025 48.412977999702136 0.0
endloop
endfacet
facet normal 0.0 0.0 -1.0
outer loop
vertex 94.00230026764274 37.887590228722814 0.0
vertex 95.83026987439025 48.412977999702136 0.0
vertex 97.34435443295077 41.69847262561422 0.0
endloop
endfacet
facet normal 0.0 0.0 -1.0
outer loop
vertex 97.34435443295077 41.69847262561422 0.0
vertex 95.83026987439025 48.412977999702136 0.0
vertex 97.78284671892142 52.37241215738031 0.0
endloop
endfacet
facet normal 0.0 0.0 -1.0
outer loop
vertex 97.34435443295077 41.69847262561422 0.0
vertex 97.78284671892142 52.37241215738031 0.0
vertex 100.16039689331254 45.91297799970208 0.0
endloop
endfacet
facet normal 0.0 0.0 -1.0
outer loop
vertex 100.16039689331254 45.91297799970208 0.0
vertex 97.78284671892142 52.37241215738031 0.0
vertex 99.20190913392153 56.55283522749204 0.0
endloop
endfacet
facet normal 0.0 0.0 -1.0
outer loop
vertex 100.16039689331254 45.91297799970208 0.0
vertex 99.20190913392153 56.55283522749204 0.0
vertex 100.0631765680316 60.88271901227536 0.0
endloop
endfacet
facet normal 0.0 0.0 -1.0
outer loop
vertex 100.16039689331254 45.91297799970208 0.0
vertex 100.0631765680316 60.88271901227536 0.0
vertex 100.35191249666548 65.28797799970212 0.0
endloop
endfacet
facet normal 0.0 0.0 -1.0
outer loop
vertex 100.16039689331254 45.91297799970208 0.0
vertex 100.35191249666548 65.28797799970212 0.0
vertex 102.40224438147794 50.45899499555482 0.0
endloop
endfacet
facet normal 0.0 0.0 -1.0
outer loop
vertex 102.40224438147794 50.45899499555482 0.0
vertex 100.35191249666548 65.28797799970212 0.0
vertex 102.40224438147783 80.11696100384935 0.0
endloop
endfacet
facet normal 0.0 0.0 -1.0
outer loop
vertex 102.40224438147794 50.45899499555482 0.0
vertex 102.40224438147783 80.11696100384935 0.0
vertex 104.03153826536693 75.31721599742477 0.0
endloop
endfacet
facet normal 0.0 0.0 -1.0
outer loop
vertex 102.40224438147794 50.45899499555482 0.0
vertex 104.03153826536693 75.31721599742477 0.0
vertex 104.03153826536693 55.25874000197941 0.0
endloop
endfacet
facet normal 0.0 0.0 -1.0
outer loop
vertex 104.03153826536693 55.25874000197941 0.0
vertex 104.03153826536693 75.31721599742477 0.0
vertex 105.02040087490063 70.34586794822908 0.0
endloop
endfacet
facet normal 0.0 0.0 -1.0
outer loop
vertex 104.03153826536693 55.25874000197941 0.0
vertex 105.02040087490063 70.34586794822908 0.0
vertex 105.0204008749007 60.23008805117506 0.0
endloop
endfacet
facet normal 0.0 0.0 -1.0
outer loop
vertex 105.0204008749007 60.23008805117506 0.0
vertex 105.02040087490063 70.34586794822908 0.0
vertex 105.18805383962687 67.78797799970205 0.0
endloop
endfacet
facet normal 0.0 0.0 -1.0
outer loop
vertex 105.0204008749007 60.23008805117506 0.0
vertex 105.18805383962687 67.78797799970205 0.0
vertex 105.18805383962689 62.78797799970206 0.0
endloop
endfacet
facet normal 0.0 0.0 -1.0
outer loop
vertex 105.18805383962689 62.78797799970206 0.0
vertex 105.18805383962687 67.78797799970205 0.0
vertex 108.35191249666501 67.78797799970205 0.0
endloop
endfacet
facet normal 0.0 0.0 -1.0
outer loop
vertex 105.18805383962689 62.78797799970206 0.0
vertex 108.35191249666501 67.78797799970205 0.0
vertex 108.35191249666501 62.78797799970206 0.0
endloop
endfacet
facet normal 0.0 0.0 -1.0
outer loop
vertex 28.01577115370407 67.78797799970212 0.0
vertex 24.851912496665978 62.78797799970213 0.0
vertex 24.851912496665978 67.78797799970212 0.0
endloop
endfacet
facet normal 0.0 0.0 -1.0
outer loop
vertex 24.851912496665978 62.78797799970213 0.0
vertex 28.01577115370407 67.78797799970212 0.0
vertex 28.01577115370408 62.78797799970213 0.0
endloop
endfacet
facet normal 0.0 0.0 -1.0
outer loop
vertex 28.01577115370408 62.78797799970213 0.0
vertex 28.01577115370407 67.78797799970212 0.0
vertex 28.183424118430064 70.34586794822842 0.0
endloop
endfacet
facet normal 0.0 0.0 -1.0
outer loop
vertex 28.01577115370408 62.78797799970213 0.0
vertex 28.183424118430064 70.34586794822842 0.0
vertex 28.183424118430043 60.23008805117431 0.0
endloop
endfacet
facet normal 0.0 0.0 -1.0
outer loop
vertex 28.183424118430043 60.23008805117431 0.0
vertex 28.183424118430064 70.34586794822842 0.0
vertex 29.172286727963737 55.25874000197877 0.0
endloop
endfacet
facet normal 0.0 0.0 -1.0
outer loop
vertex 29.172286727963737 55.25874000197877 0.0
vertex 28.183424118430064 70.34586794822842 0.0
vertex 29.1722867279638 75.31721599742396 0.0
endloop
endfacet
facet normal 0.0 0.0 -1.0
outer loop
vertex 29.172286727963737 55.25874000197877 0.0
vertex 29.1722867279638 75.31721599742396 0.0
vertex 30.801580611852685 50.458994995554335 0.0
endloop
endfacet
facet normal 0.0 0.0 -1.0
outer loop
vertex 30.801580611852685 50.458994995554335 0.0
vertex 29.1722867279638 75.31721599742396 0.0
vertex 30.80158061185287 80.11696100384839 0.0
endloop
endfacet
facet normal 0.0 0.0 -1.0
outer loop
vertex 30.801580611852685 50.458994995554335 0.0
vertex 30.80158061185287 80.11696100384839 0.0
vertex 33.043428100018026 45.91297799970168 0.0
endloop
endfacet
facet normal 0.0 0.0 -1.0
outer loop
vertex 33.043428100018026 45.91297799970168 0.0
vertex 30.80158061185287 80.11696100384839 0.0
vertex 32.85191249666544 65.28797799970206 0.0
endloop
endfacet
facet normal 0.0 0.0 -1.0
outer loop
vertex 33.043428100018026 45.91297799970168 0.0
vertex 32.85191249666544 65.28797799970206 0.0
vertex 33.14064842529936 60.88271901227538 0.0
endloop
endfacet
facet normal 0.0 0.0 -1.0
outer loop
vertex 33.043428100018026 45.91297799970168 0.0
vertex 33.14064842529936 60.88271901227538 0.0
vertex 35.85947056037958 41.698472625613825 0.0
endloop
endfacet
facet normal 0.0 0.0 -1.0
outer loop
vertex 35.85947056037958 41.698472625613825 0.0
vertex 33.14064842529936 60.88271901227538 0.0
vertex 34.0019158594094 56.55283522749206 0.0
endloop
endfacet
facet normal 0.0 0.0 -1.0
outer loop
vertex 35.85947056037958 41.698472625613825 0.0
vertex 34.0019158594094 56.55283522749206 0.0
vertex 35.4209782744095 52.372412157380325 0.0
endloop
endfacet
facet normal 0.0 0.0 -1.0
outer loop
vertex 35.85947056037958 41.698472625613825 0.0
vertex 35.4209782744095 52.372412157380325 0.0
vertex 37.37355511894064 48.4129779997021 0.0
endloop
endfacet
facet normal 0.0 0.0 -1.0
outer loop
vertex 35.85947056037958 41.698472625613825 0.0
vertex 37.37355511894064 48.4129779997021 0.0
vertex 39.20152472568616 37.887590228723134 0.0
endloop
endfacet
facet normal 0.0 0.0 -1.0
outer loop
vertex 39.20152472568616 37.887590228723134 0.0
vertex 37.37355511894064 48.4129779997021 0.0
vertex 39.826237261836255 44.742279770657795 0.0
endloop
endfacet
facet normal 0.0 0.0 -1.0
outer loop
vertex 39.20152472568616 37.887590228723134 0.0
vertex 39.826237261836255 44.742279770657795 0.0
vertex 43.012407122576825 34.54553606341658 0.0
endloop
endfacet
facet normal 0.0 0.0 -1.0
outer loop
vertex 43.012407122576825 34.54553606341658 0.0
vertex 39.826237261836255 44.742279770657795 0.0
vertex 42.737058631619476 41.42312413465612 0.0
endloop
endfacet
facet normal 0.0 0.0 -1.0
outer loop
vertex 43.012407122576825 34.54553606341658 0.0
vertex 42.737058631619476 41.42312413465612 0.0
vertex 46.056214267621115 38.51230276487293 0.0
endloop
endfacet
facet normal 0.0 0.0 -1.0
outer loop
vertex 43.012407122576825 34.54553606341658 0.0
vertex 46.056214267621115 38.51230276487293 0.0
vertex 47.22691249666496 31.729493603054568 0.0
endloop
endfacet
facet normal 0.0 0.0 -1.0
outer loop
vertex 47.22691249666496 31.729493603054568 0.0
vertex 46.056214267621115 38.51230276487293 0.0
vertex 49.72691249666546 36.05962062197731 0.0
endloop
endfacet
facet normal 0.0 0.0 -1.0
outer loop
vertex 47.22691249666496 31.729493603054568 0.0
vertex 49.72691249666546 36.05962062197731 0.0
vertex 51.77292949251767 29.48764611488922 0.0
endloop
endfacet
facet normal 0.0 0.0 -1.0
outer loop
vertex 51.77292949251767 29.48764611488922 0.0
vertex 49.72691249666546 36.05962062197731 0.0
vertex 53.686346654343645 34.1070437774462 0.0
endloop
endfacet
facet normal 0.0 0.0 -1.0
outer loop
vertex 51.77292949251767 29.48764611488922 0.0
vertex 53.686346654343645 34.1070437774462 0.0
vertex 56.57267449894206 27.8583522310003 0.0
endloop
endfacet
facet normal 0.0 0.0 -1.0
outer loop
vertex 56.57267449894206 27.8583522310003 0.0
vertex 53.686346654343645 34.1070437774462 0.0
vertex 57.86676972445534 32.68798136244606 0.0
endloop
endfacet
facet normal 0.0 0.0 -1.0
outer loop
vertex 56.57267449894206 27.8583522310003 0.0
vertex 57.86676972445534 32.68798136244606 0.0
vertex 61.54402254813758 26.869489621466514 0.0
endloop
endfacet
facet normal 0.0 0.0 -1.0
outer loop
vertex 61.54402254813758 26.869489621466514 0.0
vertex 57.86676972445534 32.68798136244606 0.0
vertex 62.19665350923868 31.826713928335995 0.0
endloop
endfacet
facet normal 0.0 0.0 -1.0
outer loop
vertex 61.54402254813758 26.869489621466514 0.0
vertex 62.19665350923868 31.826713928335995 0.0
vertex 64.10191249666545 26.701836656740724 0.0
endloop
endfacet
facet normal 0.0 0.0 -1.0
outer loop
vertex 64.10191249666545 26.701836656740724 0.0
vertex 62.19665350923868 31.826713928335995 0.0
vertex 66.60191249666546 31.537977999702083 0.0
endloop
endfacet
facet normal 0.0 0.0 -1.0
outer loop
vertex 64.10191249666545 26.701836656740724 0.0
vertex 66.60191249666546 31.537977999702083 0.0
vertex 64.10191249666545 23.537977999702626 0.0
endloop
endfacet
facet normal 0.0 0.0 -1.0
outer loop
vertex 64.10191249666545 23.537977999702626 0.0
vertex 66.60191249666546 31.537977999702083 0.0
vertex 69.10191249666543 23.537977999702626 0.0
endloop
endfacet
facet normal 0.0 0.0 -1.0
outer loop
vertex 69.10191249666543 23.537977999702626 0.0
vertex 66.60191249666546 31.537977999702083 0.0
vertex 69.10191249666543 26.701836656740724 0.0
endloop
endfacet
facet normal 0.0 0.0 -1.0
outer loop
vertex 43.01240712257755 96.03041993598751 0.0
vertex 43.49051163982514 89.81359241891553 0.0
vertex 40.20084111433734 93.56474272260954 0.0
endloop
endfacet
facet normal 0.0 0.0 -1.0
outer loop
vertex 43.49051163982514 89.81359241891553 0.0
vertex 43.01240712257755 96.03041993598751 0.0
vertex 47.22691249666546 98.84646239634912 0.0
endloop
endfacet
facet normal 0.0 0.0 -1.0
outer loop
vertex 43.49051163982514 89.81359241891553 0.0
vertex 47.22691249666546 98.84646239634912 0.0
vertex 46.05621426762115 92.06365323453133 0.0
endloop
endfacet
facet normal 0.0 0.0 -1.0
outer loop
vertex 46.05621426762115 92.06365323453133 0.0
vertex 47.22691249666546 98.84646239634912 0.0
vertex 49.72691249666549 94.51633537742694 0.0
endloop
endfacet
facet normal 0.0 0.0 -1.0
outer loop
vertex 49.72691249666549 94.51633537742694 0.0
vertex 47.22691249666546 98.84646239634912 0.0
vertex 51.77292949251825 101.08830988451452 0.0
endloop
endfacet
facet normal 0.0 0.0 -1.0
outer loop
vertex 49.72691249666549 94.51633537742694 0.0
vertex 51.77292949251825 101.08830988451452 0.0
vertex 53.68634665434367 96.46891222195804 0.0
endloop
endfacet
facet normal 0.0 0.0 -1.0
outer loop
vertex 53.68634665434367 96.46891222195804 0.0
vertex 51.77292949251825 101.08830988451452 0.0
vertex 56.572674498942796 102.71760376840354 0.0
endloop
endfacet
facet normal 0.0 0.0 -1.0
outer loop
vertex 53.68634665434367 96.46891222195804 0.0
vertex 56.572674498942796 102.71760376840354 0.0
vertex 57.86676972445544 97.88797463695818 0.0
endloop
endfacet
facet normal 0.0 0.0 -1.0
outer loop
vertex 57.86676972445544 97.88797463695818 0.0
vertex 56.572674498942796 102.71760376840354 0.0
vertex 61.54402254813845 103.70646637793726 0.0
endloop
endfacet
facet normal 0.0 0.0 -1.0
outer loop
vertex 57.86676972445544 97.88797463695818 0.0
vertex 61.54402254813845 103.70646637793726 0.0
vertex 62.19665350923875 98.74924207106825 0.0
endloop
endfacet
facet normal 0.0 0.0 -1.0
outer loop
vertex 62.19665350923875 98.74924207106825 0.0
vertex 61.54402254813845 103.70646637793726 0.0
vertex 64.10191249666548 103.87411934266348 0.0
endloop
endfacet
facet normal 0.0 0.0 -1.0
outer loop
vertex 62.19665350923875 98.74924207106825 0.0
vertex 64.10191249666548 103.87411934266348 0.0
vertex 66.60191249666548 99.03797799970211 0.0
endloop
endfacet
facet normal -0.38268343236509017 0.9238795325112866 1.776497253947347e-15
outer loop
vertex 51.772929492518436 101.08830988451393 20.0
vertex 56.572674498942796 102.71760376840354 0.0
vertex 51.77292949251825 101.08830988451452 0.0
endloop
endfacet
facet normal -0.25881904510252 0.9659258262890685 1.7244172138372613e-15
outer loop
vertex 56.572674498942796 102.71760376840354 0.0
vertex 51.772929492518436 101.08830988451393 20.0
vertex 56.57267449894294 102.71760376840288 20.0
endloop
endfacet
facet normal 0.25777715320792216 -0.962037432802437 0.08963769949589424
outer loop
vertex 57.40089544327083 99.62664112427855 20.0
vertex 53.68634665434367 96.46891222195804 0.0
vertex 57.86676972445544 97.88797463695818 0.0
endloop
endfacet
facet normal 0.3811429168044208 -0.920160398951673 0.08963769949589438
outer loop
vertex 53.68634665434367 96.46891222195804 0.0
vertex 57.40089544327083 99.62664112427855 20.0
vertex 52.997516476086496 98.13189538047845 20.0
endloop
endfacet
facet normal 0.4979872194216144 -0.8625391655581865 0.08963769949589448
outer loop
vertex 48.826912496665436 96.07518110423898 20.0
vertex 46.05621426762115 92.06365323453133 0.0
vertex 49.72691249666549 94.51633537742694 0.0
endloop
endfacet
facet normal 0.6063108226463628 -0.7901596479009636 0.08963769949589437
outer loop
vertex 46.05621426762115 92.06365323453133 0.0
vertex 48.826912496665436 96.07518110423898 20.0
vertex 44.960443695405424 93.49168924705559 20.0
endloop
endfacet
facet normal 0.6063108226463626 -0.7901596479009638 0.08963769949589438
outer loop
vertex 44.960443695405424 93.49168924705559 20.0
vertex 43.49051163982514 89.81359241891553 0.0
vertex 46.05621426762115 92.06365323453133 0.0
endloop
endfacet
facet normal 0.6567028637057378 -0.748826099009182 0.089447315462087
outer loop
vertex 43.49051163982514 89.81359241891553 0.0
vertex 44.960443695405424 93.49168924705559 20.0
vertex 42.306230250649364 91.1640065282456 20.0
endloop
endfacet
facet normal -0.8625391655581858 0.49798721942161567 0.08963769949589466
outer loop
vertex 97.38911560120232 47.512977999702045 20.0
vertex 93.37758773149464 44.7422797706578 0.0
vertex 94.8056237440189 43.64650919844202 20.0
endloop
endfacet
facet normal -0.7901596479009648 0.6063108226463612 0.08963769949589495
outer loop
vertex 93.37758773149464 44.7422797706578 0.0
vertex 97.38911560120232 47.512977999702045 20.0
vertex 95.83026987439025 48.412977999702136 0.0
endloop
endfacet
facet normal 0.9238795325112871 -0.3826834323650892 1.1943435137562172e-15
outer loop
vertex 102.40224438147794 50.45899499555482 0.0
vertex 100.160396893312 45.91297799970238 20.0
vertex 100.16039689331254 45.91297799970208 0.0
endloop
endfacet
facet normal 0.8660254037844379 -0.5000000000000017 1.1793345764445344e-15
outer loop
vertex 100.160396893312 45.91297799970238 20.0
vertex 102.40224438147794 50.45899499555482 0.0
vertex 102.40224438147743 50.458994995555045 20.0
endloop
endfacet
facet normal -0.9620374328024368 0.25777715320792294 0.08963769949589438
outer loop
vertex 100.94057562124188 56.086960946307464 20.0
vertex 97.78284671892142 52.37241215738031 0.0
vertex 99.44582987744175 51.683581979123154 20.0
endloop
endfacet
facet normal -0.9201603989516733 0.3811429168044204 0.08963769949589458
outer loop
vertex 97.78284671892142 52.37241215738031 0.0
vertex 100.94057562124188 56.086960946307464 20.0
vertex 99.20190913392153 56.55283522749204 0.0
endloop
endfacet
facet normal -0.9874537394507834 0.13000075105070902 0.08963769949589395
outer loop
vertex 101.8477773185045 60.64777186627927 20.0
vertex 99.20190913392153 56.55283522749204 0.0
vertex 100.94057562124188 56.086960946307464 20.0
endloop
endfacet
facet normal -0.9620374328024367 0.25777715320792277 0.08963769949589438
outer loop
vertex 99.20190913392153 56.55283522749204 0.0
vertex 101.8477773185045 60.64777186627927 20.0
vertex 100.0631765680316 60.88271901227536 0.0
endloop
endfacet
facet normal 0.9914448613738097 -0.1305261922200567 1.0161307531957414e-14
outer loop
vertex 105.0204008749007 60.23008805117506 0.0
vertex 104.03153826536636 55.25874000197955 20.0
vertex 104.03153826536693 55.25874000197941 0.0
endloop
endfacet
facet normal 0.9659258262890681 -0.25881904510252174 1.2750084939236254e-15
outer loop
vertex 104.03153826536636 55.25874000197955 20.0
vertex 105.0204008749007 60.23008805117506 0.0
vertex 105.02040087490009 60.23008805117514 20.0
endloop
endfacet
facet normal 0.13052619222006037 -0.9914448613738093 1.2232541291522544e-14
outer loop
vertex 71.65980244519241 26.869489621467473 20.0
vertex 69.10191249666543 26.701836656740724 0.0
vertex 71.65980244519154 26.869489621466773 0.0
endloop
endfacet
facet normal 0.0654031292301573 -0.9978589232386027 2.3635161808556554e-14
outer loop
vertex 69.10191249666543 26.701836656740724 0.0
vertex 71.65980244519241 26.869489621467473 20.0
vertex 69.10191249666543 26.701836656740724 20.0
endloop
endfacet
facet normal 0.9659258262890682 -0.25881904510252174 1.2750084939236256e-15
outer loop
vertex 104.03153826536693 55.25874000197941 0.0
vertex 102.40224438147743 50.458994995555045 20.0
vertex 102.40224438147794 50.45899499555482 0.0
endloop
endfacet
facet normal 0.923879532511287 -0.38268343236508917 1.194343513756217e-15
outer loop
vertex 102.40224438147743 50.458994995555045 20.0
vertex 104.03153826536693 55.25874000197941 0.0
vertex 104.03153826536636 55.25874000197955 20.0
endloop
endfacet
facet normal -0.9959744388432287 -4.1546008375540476e-15 0.08963769949589308
outer loop
vertex 102.15191249666555 65.28797799970212 20.0
vertex 100.0631765680316 60.88271901227536 0.0
vertex 101.8477773185045 60.64777186627927 20.0
endloop
endfacet
facet normal -0.9874537394507834 0.13000075105070907 0.08963769949589395
outer loop
vertex 100.0631765680316 60.88271901227536 0.0
vertex 102.15191249666555 65.28797799970212 20.0
vertex 100.35191249666548 65.28797799970212 0.0
endloop
endfacet
facet normal 0.9978589232386031 -0.06540312923014883 1.8869653460175747e-14
outer loop
vertex 105.18805383962689 62.78797799970206 0.0
vertex 105.02040087490009 60.23008805117514 20.0
vertex 105.0204008749007 60.23008805117506 0.0
endloop
endfacet
facet normal 0.9914448613738097 -0.1305261922200567 1.016130753195741e-14
outer loop
vertex 105.02040087490009 60.23008805117514 20.0
vertex 105.18805383962689 62.78797799970206 0.0
vertex 105.18805383962689 62.78797799970206 20.0
endloop
endfacet
facet normal 0.7071067811865496 -0.7071067811865455 1.1464700346661155e-15
outer loop
vertex 94.00230026764382 37.8875902287238 20.0
vertex 90.19141787075189 34.54553606341624 0.0
vertex 94.00230026764274 37.887590228722814 0.0
endloop
endfacet
facet normal 0.6087614290087184 -0.7933533402912369 1.1744909426463746e-15
outer loop
vertex 90.19141787075189 34.54553606341624 0.0
vertex 94.00230026764382 37.8875902287238 20.0
vertex 90.191417870753 34.54553606341715 20.0
endloop
endfacet
facet normal -0.9201603989516733 0.3811429168044204 0.08963769949589456
outer loop
vertex 99.44582987744175 51.683581979123154 20.0
vertex 95.83026987439025 48.412977999702136 0.0
vertex 97.38911560120232 47.512977999702045 20.0
endloop
endfacet
facet normal -0.8625391655581859 0.4979872194216154 0.08963769949589465
outer loop
vertex 95.83026987439025 48.412977999702136 0.0
vertex 99.44582987744175 51.683581979123154 20.0
vertex 97.78284671892142 52.37241215738031 0.0
endloop
endfacet
facet normal -0.13000075105071043 0.9874537394507832 0.08963769949589488
outer loop
vertex 71.24211863008829 30.042113177863055 20.0
vertex 75.3370552688755 32.68798136244605 0.0
vertex 71.00717148409218 31.826713928335995 0.0
endloop
endfacet
facet normal -0.25777715320792244 0.9620374328024368 0.08963769949589492
outer loop
vertex 75.3370552688755 32.68798136244605 0.0
vertex 71.24211863008829 30.042113177863055 20.0
vertex 75.80292955006007 30.94931487512563 20.0
endloop
endfacet
facet normal -0.2577771532079225 0.9620374328024369 0.08963769949589495
outer loop
vertex 75.80292955006007 30.94931487512563 20.0
vertex 79.51747833898719 34.107043777446165 0.0
vertex 75.3370552688755 32.68798136244605 0.0
endloop
endfacet
facet normal -0.3811429168044196 0.9201603989516736 0.08963769949589494
outer loop
vertex 79.51747833898719 34.107043777446165 0.0
vertex 75.80292955006007 30.94931487512563 20.0
vertex 80.2063085172444 32.44406061892577 20.0
endloop
endfacet
facet normal -0.7901596479009647 0.6063108226463614 0.08963769949589497
outer loop
vertex 94.8056237440189 43.64650919844202 20.0
vertex 90.46676636171142 41.42312413465613 0.0
vertex 91.73955856784731 40.15033192852025 20.0
endloop
endfacet
facet normal -0.7042602795945132 0.7042602795945132 0.08963769949589523
outer loop
vertex 90.46676636171142 41.42312413465613 0.0
vertex 94.8056237440189 43.64650919844202 20.0
vertex 93.37758773149464 44.7422797706578 0.0
endloop
endfacet
facet normal -0.6063108226463615 0.7901596479009644 0.08963769949589515
outer loop
vertex 88.24338129792551 37.0842667523486 20.0
vertex 90.46676636171142 41.42312413465613 0.0
vertex 87.14761072570977 38.51230276487288 0.0
endloop
endfacet
facet normal -0.7042602795945132 0.7042602795945132 0.08963769949589523
outer loop
vertex 90.46676636171142 41.42312413465613 0.0
vertex 88.24338129792551 37.0842667523486 20.0
vertex 91.73955856784731 40.15033192852025 20.0
endloop
endfacet
facet normal -0.9874537394507832 -0.13000075105071146 0.08963769949589327
outer loop
vertex 101.84777731850446 69.92818413312493 20.0
vertex 99.20190913392156 74.02312077191219 0.0
vertex 100.06317656803158 69.69323698712883 0.0
endloop
endfacet
facet normal -0.9620374328024369 -0.25777715320792244 0.0896376994958942
outer loop
vertex 99.20190913392156 74.02312077191219 0.0
vertex 101.84777731850446 69.92818413312493 20.0
vertex 100.94057562124192 74.48899505309673 20.0
endloop
endfacet
facet normal 2.2217116778363894e-16 0.9959744388432283 0.08963769949589491
outer loop
vertex 66.60191249666543 29.73797799970199 20.0
vertex 71.00717148409218 31.826713928335995 0.0
vertex 66.60191249666546 31.537977999702083 0.0
endloop
endfacet
facet normal -0.13000075105071046 0.9874537394507831 0.0896376994958949
outer loop
vertex 71.00717148409218 31.826713928335995 0.0
vertex 66.60191249666543 29.73797799970199 20.0
vertex 71.24211863008829 30.042113177863055 20.0
endloop
endfacet
facet normal -0.06540312923013365 -0.9978589232386043 3.213017538725166e-14
outer loop
vertex 64.10191249666545 26.701836656740724 20.0
vertex 61.54402254813758 26.869489621466514 0.0
vertex 64.10191249666545 26.701836656740724 0.0
endloop
endfacet
facet normal -0.13052619222004866 -0.9914448613738108 1.633321375012077e-14
outer loop
vertex 61.54402254813758 26.869489621466514 0.0
vertex 64.10191249666545 26.701836656740724 20.0
vertex 61.544022548138486 26.869489621467473 20.0
endloop
endfacet
facet normal 0.8660254037844378 -0.5000000000000016 1.1793345764445344e-15
outer loop
vertex 100.16039689331254 45.91297799970208 0.0
vertex 97.34435443295031 41.698472625614514 20.0
vertex 97.34435443295077 41.69847262561422 0.0
endloop
endfacet
facet normal 0.793353340291235 -0.608761429008721 1.1361131702380331e-15
outer loop
vertex 97.34435443295031 41.698472625614514 20.0
vertex 100.16039689331254 45.91297799970208 0.0
vertex 100.160396893312 45.91297799970238 20.0
endloop
endfacet
facet normal -0.9874537394507832 -0.13000075105071146 0.08963769949589327
outer loop
vertex 101.84777731850446 69.92818413312493 20.0
vertex 100.35191249666548 65.28797799970212 0.0
vertex 102.15191249666555 65.28797799970212 20.0
endloop
endfacet
facet normal -0.9959744388432286 -4.181038977562361e-15 0.08963769949589306
outer loop
vertex 100.35191249666548 65.28797799970212 0.0
vertex 101.84777731850446 69.92818413312493 20.0
vertex 100.06317656803158 69.69323698712883 0.0
endloop
endfacet
facet normal 0.9914448613738095 0.13052619222005904 9.984547030988448e-15
outer loop
vertex 105.02040087490063 70.34586794822908 0.0
vertex 105.18805383962687 67.78797799970205 20.0
vertex 105.18805383962687 67.78797799970205 0.0
endloop
endfacet
facet normal 0.9978589232386025 0.06540312923015874 1.8371260389324574e-14
outer loop
vertex 105.18805383962687 67.78797799970205 20.0
vertex 105.02040087490063 70.34586794822908 0.0
vertex 105.02040087490005 70.34586794822907 20.0
endloop
endfacet
facet normal -0.4979872194216139 0.8625391655581867 0.08963769949589503
outer loop
vertex 84.37691249666547 34.50077489516523 20.0
vertex 87.14761072570977 38.51230276487288 0.0
vertex 83.4769124966654 36.05962062197729 0.0
endloop
endfacet
facet normal -0.6063108226463615 0.7901596479009644 0.08963769949589512
outer loop
vertex 87.14761072570977 38.51230276487288 0.0
vertex 84.37691249666547 34.50077489516523 20.0
vertex 88.24338129792551 37.0842667523486 20.0
endloop
endfacet
facet normal 0.5000000000000032 -0.8660254037844369 1.1662127436097588e-15
outer loop
vertex 85.97691249666514 31.729493603055566 20.0
vertex 81.43089550081136 29.487646114889497 0.0
vertex 85.976912496664 31.72949360305468 0.0
endloop
endfacet
facet normal 0.38268343236508784 -0.9238795325112877 8.059161740745935e-16
outer loop
vertex 81.43089550081136 29.487646114889497 0.0
vertex 85.97691249666514 31.729493603055566 20.0
vertex 81.43089550081243 29.487646114890246 20.0
endloop
endfacet
facet normal 0.6087614290087232 -0.7933533402912333 1.1744909426463707e-15
outer loop
vertex 90.191417870753 34.54553606341715 20.0
vertex 85.976912496664 31.72949360305468 0.0
vertex 90.19141787075189 34.54553606341624 0.0
endloop
endfacet
facet normal 0.49999999999999806 -0.8660254037844397 1.1662127436097535e-15
outer loop
vertex 85.976912496664 31.72949360305468 0.0
vertex 90.191417870753 34.54553606341715 20.0
vertex 85.97691249666514 31.729493603055566 20.0
endloop
endfacet
facet normal 0.38268343236509267 -0.9238795325112855 8.059161740746178e-16
outer loop
vertex 81.43089550081243 29.487646114890246 20.0
vertex 76.63115049438704 27.85835223100045 0.0
vertex 81.43089550081136 29.487646114889497 0.0
endloop
endfacet
facet normal 0.2588190451025192 -0.9659258262890689 6.39678470539471e-16
outer loop
vertex 76.63115049438704 27.85835223100045 0.0
vertex 81.43089550081243 29.487646114890246 20.0
vertex 76.63115049438798 27.858352231001227 20.0
endloop
endfacet
facet normal -0.3811429168044195 0.9201603989516735 0.08963769949589491
outer loop
vertex 80.2063085172444 32.44406061892577 20.0
vertex 83.4769124966654 36.05962062197729 0.0
vertex 79.51747833898719 34.107043777446165 0.0
endloop
endfacet
facet normal -0.49798721942161367 0.8625391655581868 0.08963769949589503
outer loop
vertex 83.4769124966654 36.05962062197729 0.0
vertex 80.2063085172444 32.44406061892577 20.0
vertex 84.37691249666547 34.50077489516523 20.0
endloop
endfacet
facet normal 0.2588190451025237 -0.9659258262890676 6.396784705394613e-16
outer loop
vertex 76.63115049438798 27.858352231001227 20.0
vertex 71.65980244519154 26.869489621466773 0.0
vertex 76.63115049438704 27.85835223100045 0.0
endloop
endfacet
facet normal 0.1305261922200565 -0.9914448613738098 1.2232541291523229e-14
outer loop
vertex 71.65980244519154 26.869489621466773 0.0
vertex 76.63115049438798 27.858352231001227 20.0
vertex 71.65980244519241 26.869489621467473 20.0
endloop
endfacet
facet normal 0.13000075105071118 0.9874537394507831 0.08963769949589491
outer loop
vertex 61.96170636324259 30.04211317786306 20.0
vertex 66.60191249666546 31.537977999702083 0.0
vertex 62.19665350923868 31.826713928335995 0.0
endloop
endfacet
facet normal 1.3231136004944176e-16 0.9959744388432283 0.08963769949589488
outer loop
vertex 66.60191249666546 31.537977999702083 0.0
vertex 61.96170636324259 30.04211317786306 20.0
vertex 66.60191249666543 29.73797799970199 20.0
endloop
endfacet
facet normal 0.793353340291235 -0.6087614290087208 1.136113170238033e-15
outer loop
vertex 97.34435443295077 41.69847262561422 0.0
vertex 94.00230026764382 37.8875902287238 20.0
vertex 94.00230026764274 37.887590228722814 0.0
endloop
endfacet
facet normal 0.7071067811865496 -0.7071067811865455 1.1464700346661155e-15
outer loop
vertex 94.00230026764382 37.8875902287238 20.0
vertex 97.34435443295077 41.69847262561422 0.0
vertex 97.34435443295031 41.698472625614514 20.0
endloop
endfacet
facet normal 0.0 1.0 0.0
outer loop
vertex 64.10191249666548 107.0379779997016 20.0
vertex 69.10191249666546 107.0379779997016 0.0
vertex 64.10191249666548 107.0379779997016 0.0
endloop
endfacet
facet normal 0.0 1.0 0.0
outer loop
vertex 69.10191249666546 107.0379779997016 0.0
vertex 64.10191249666548 107.0379779997016 20.0
vertex 69.10191249666546 107.0379779997016 20.0
endloop
endfacet
facet normal 1.0 0.0 0.0
outer loop
vertex 69.10191249666546 107.0379779997016 0.0
vertex 69.10191249666546 103.87411934266345 20.0
vertex 69.10191249666546 103.87411934266345 0.0
endloop
endfacet
facet normal 1.0 0.0 0.0
outer loop
vertex 69.10191249666546 103.87411934266345 20.0
vertex 69.10191249666546 107.0379779997016 0.0
vertex 69.10191249666546 107.0379779997016 20.0
endloop
endfacet
facet normal -1.0 0.0 0.0
outer loop
vertex 64.10191249666548 107.0379779997016 20.0
vertex 64.10191249666548 103.87411934266348 0.0
vertex 64.10191249666548 103.87411934266348 20.0
endloop
endfacet
facet normal -1.0 0.0 0.0
outer loop
vertex 64.10191249666548 103.87411934266348 0.0
vertex 64.10191249666548 107.0379779997016 20.0
vertex 64.10191249666548 107.0379779997016 0.0
endloop
endfacet
endsolid focus_adapter_ring_v1
